<svg width="53" height="53" viewBox="0 0 53 53" fill="none" xmlns="http://www.w3.org/2000/svg">
<g clip-path="url(#clip0_1135_608)">
<path d="M6.86444 0.957825H21.5511L47.0933 26.5L21.5511 52.0422H6.86444L32.4066 26.5L6.86444 0.957825Z" fill="#D9D7FC" stroke="#404040"/>
<path d="M6.86444 52.0422H13.8885L39.4307 26.5L13.8885 0.957825H6.86444L32.4066 26.5L6.86444 52.0422Z" fill="#A19CF8" stroke="#404040"/>
<path d="M16.4045 4.82832L31.0905 19.5143L32.4451 18.1598L17.7591 3.47376L16.4045 4.82832Z" fill="#F7F7F7" stroke="#404040"/>
<path d="M21.9478 53H4.55209L31.0521 26.5L4.55209 0H21.948L48.448 26.5L21.9478 53ZM9.17676 51.0843H21.1543L45.7387 26.5L21.1544 1.91566H9.17676L33.7611 26.5L9.17676 51.0843Z" fill="#404040" stroke="#404040"/>
</g>
<defs>
<clipPath id="clip0_1135_608">
<rect width="53" height="53" fill="white"/>
</clipPath>
</defs>
</svg>
