<?xml version="1.0" encoding="iso-8859-1"?>
<svg version="1.1" id="Layer_1" xmlns="http://www.w3.org/2000/svg"
	 viewBox="0 0 512 512" xml:space="preserve">
<rect x="199.576" y="183.338" style="fill:#FFFFFF;" width="112.849" height="280.597"/>
<path style="fill:#27B5F7;" d="M278.625,315.623h-45.249v-79.987c0-12.444,10.181-22.625,22.625-22.625l0,0
	c12.444,0,22.625,10.181,22.625,22.625v19.667v60.32H278.625z"/>
<path style="fill:#FF3131;" d="M278.625,463.935h-45.249v-89.233c0-12.444,10.181-22.625,22.625-22.625l0,0
	c12.444,0,22.625,10.181,22.625,22.625v19.667v69.566H278.625z"/>
<path style="fill:#003A7F;" d="M256,62.694l56.424,120.642H199.576L256,62.694z"/>
<rect x="35.568" y="298.893" style="fill:#DEDDE1;" width="164.007" height="165.042"/>
<polygon style="fill:#003A7F;" points="199.576,242.184 75.639,242.184 35.57,298.892 199.576,298.892 "/>
<path style="fill:#27B5F7;" d="M75.244,424.229V354.09c0-7.399,6.113-13.453,13.584-13.453l0,0c7.471,0,13.584,6.054,13.584,13.453
	v70.139H75.244z"/>
<path style="fill:#FF3131;" d="M131.51,424.229V354.09c0-7.399,6.113-13.453,13.584-13.453l0,0c7.471,0,13.584,6.054,13.584,13.453
	v70.139H131.51z"/>
<rect x="312.424" y="298.893" style="fill:#DEDDE1;" width="164.007" height="165.042"/>
<polygon style="fill:#003A7F;" points="312.424,242.184 436.361,242.184 476.43,298.892 312.424,298.892 "/>
<path style="fill:#27B5F7;" d="M436.756,424.229V354.09c0-7.399-6.113-13.453-13.584-13.453l0,0
	c-7.471,0-13.584,6.054-13.584,13.453v70.139H436.756z"/>
<path style="fill:#FF3131;" d="M380.49,424.229V354.09c0-7.399-6.113-13.453-13.584-13.453l0,0c-7.471,0-13.584,6.054-13.584,13.453
	v70.139H380.49z"/>
<path d="M102.411,434.678H75.244c-5.77,0-10.449-4.678-10.449-10.449V354.09c0-13.18,10.78-23.902,24.033-23.902
	s24.033,10.723,24.033,23.902v70.139C112.86,429.998,108.181,434.678,102.411,434.678z M85.693,413.78h6.269v-59.69
	c0-1.629-1.435-3.004-3.134-3.004c-1.7,0-3.136,1.376-3.136,3.004V413.78z"/>
<path d="M158.677,434.678H131.51c-5.77,0-10.449-4.678-10.449-10.449V354.09c0-13.18,10.78-23.902,24.033-23.902
	s24.033,10.723,24.033,23.902v70.139C169.126,429.998,164.448,434.678,158.677,434.678z M141.959,413.78h6.269v-59.69
	c0-1.629-1.436-3.004-3.135-3.004c-1.699,0-3.135,1.376-3.135,3.004V413.78z"/>
<path d="M436.756,434.678h-27.167c-5.77,0-10.449-4.678-10.449-10.449V354.09c0-13.18,10.78-23.902,24.032-23.902
	c13.252,0,24.034,10.723,24.034,23.902v70.139C447.205,429.998,442.527,434.678,436.756,434.678z M420.037,413.78h6.269v-59.69
	c0-1.629-1.436-3.004-3.135-3.004s-3.135,1.376-3.135,3.004V413.78z"/>
<path d="M380.49,434.678h-27.167c-5.77,0-10.449-4.678-10.449-10.449V354.09c0-13.18,10.78-23.902,24.033-23.902
	c13.252,0,24.033,10.723,24.033,23.902v70.139C390.939,429.998,386.26,434.678,380.49,434.678z M363.772,413.78h6.269v-59.69
	c0-1.629-1.436-3.004-3.135-3.004s-3.135,1.376-3.135,3.004V413.78z"/>
<path d="M181.461,52.245c-12.55,0-23.823,5.544-31.52,14.304c-7.698-8.759-18.97-14.304-31.52-14.304
	c-5.77,0-10.449,4.678-10.449,10.449s4.679,10.449,10.449,10.449c11.618,0,21.071,9.452,21.071,21.071
	c0,5.771,4.679,10.449,10.449,10.449s10.449-4.678,10.449-10.449c0-11.619,9.453-21.071,21.071-21.071
	c5.77,0,10.449-4.678,10.449-10.449S187.232,52.245,181.461,52.245z"/>
<path d="M118.42,128.145c-12.55,0-23.823,5.544-31.52,14.304c-7.698-8.759-18.97-14.304-31.52-14.304
	c-5.77,0-10.449,4.678-10.449,10.449s4.679,10.449,10.449,10.449c11.618,0,21.071,9.452,21.071,21.071
	c0,5.771,4.679,10.449,10.449,10.449s10.449-4.678,10.449-10.449c0-11.619,9.453-21.071,21.071-21.071
	c5.77,0,10.449-4.678,10.449-10.449S124.19,128.145,118.42,128.145z"/>
<path d="M425.948,151.484c-12.55,0-23.823,5.544-31.52,14.304c-7.698-8.759-18.97-14.304-31.52-14.304
	c-5.77,0-10.449,4.678-10.449,10.449s4.679,10.449,10.449,10.449c11.618,0,21.071,9.452,21.071,21.071
	c0,5.771,4.679,10.449,10.449,10.449s10.449-4.678,10.449-10.449c0-11.619,9.453-21.071,21.071-21.071
	c5.77,0,10.449-4.678,10.449-10.449S431.718,151.484,425.948,151.484z"/>
<path d="M278.624,326.072h-45.249c-5.77,0-10.449-4.678-10.449-10.449v-79.987c0-18.237,14.837-33.073,33.073-33.073
	s33.073,14.837,33.073,33.073v19.667c0,5.771-4.679,10.449-10.449,10.449s-10.449-4.678-10.449-10.449v-19.667
	c0-6.713-5.463-12.175-12.175-12.175s-12.175,5.462-12.175,12.175v69.538h34.8c5.77,0,10.449,4.678,10.449,10.449
	C289.073,321.394,284.395,326.072,278.624,326.072z"/>
<path d="M278.625,297.882c-5.77,0-10.449-4.678-10.449-10.449v-0.137c0-5.771,4.679-10.449,10.449-10.449
	s10.449,4.678,10.449,10.449v0.137C289.074,293.203,284.396,297.882,278.625,297.882z"/>
<path d="M486.854,298.892c0-2.121-0.622-4.233-1.891-6.029l-40.07-56.708c-1.958-2.771-5.14-4.419-8.534-4.419H322.873v-48.4
	c-0.007,0-0.013,0.001-0.02,0.001c0-1.508-0.305-3.02-0.963-4.427L266.449,60.37V40.49h4.963c5.77,0,10.449-4.678,10.449-10.449
	s-4.679-10.449-10.449-10.449h-4.963v-1.829c0-5.771-4.679-10.449-10.449-10.449c-5.77,0-10.449,4.678-10.449,10.449v1.829h-4.963
	c-5.77,0-10.449,4.678-10.449,10.449s4.679,10.449,10.449,10.449h4.963v19.88L190.11,178.91c-0.658,1.407-0.963,2.919-0.963,4.426
	c-0.007,0-0.014,0.001-0.02,0.001v48.4H75.64c-3.394,0-6.576,1.648-8.534,4.419l-40.07,56.708c-1.271,1.798-1.892,3.911-1.891,6.033
	c-0.008-0.001-0.016-0.002-0.024-0.004v165.043c0,5.771,4.679,10.449,10.449,10.449H476.43c5.77,0,10.449-4.678,10.449-10.449
	V298.893C486.87,298.892,486.863,298.892,486.854,298.892z M189.127,453.486H46.019V309.342h143.107V453.486z M189.127,288.443
	H55.748l25.303-35.81h108.075V288.443z M256,87.358l40.002,85.529h-80.004L256,87.358z M301.975,453.486h-58.151v-78.783
	c0-6.713,5.463-12.175,12.175-12.175c6.712,0,12.175,5.462,12.175,12.175v25.936c0,5.771,4.679,10.449,10.449,10.449
	s10.449-4.678,10.449-10.449v-25.936c0-18.237-14.837-33.073-33.073-33.073s-33.073,14.836-33.073,33.073v78.783h-12.902V193.785
	h91.951V453.486z M322.873,252.633h108.076l25.303,35.81H322.873V252.633z M465.981,453.486H322.873V309.342h143.107V453.486z"/>
<path d="M278.625,443.215c-5.77,0-10.449-4.678-10.449-10.449v-0.137c0-5.771,4.679-10.449,10.449-10.449
	s10.449,4.678,10.449,10.449v0.137C289.074,438.537,284.396,443.215,278.625,443.215z"/>
<path style="fill:#27B5F7;" d="M446.392,113.202c5.106-7.25,8.018-16.157,7.735-25.762c-0.681-23.166-20.185-41.714-43.357-41.286
	C387.629,46.583,369,65.475,369,88.72c0,1.475,0.075,2.934,0.223,4.371c-4.706-7.348-13.169-12.059-22.684-11.401
	c-11.655,0.806-21.298,9.861-22.847,21.439c-0.472,3.529-0.176,6.925,0.712,10.074h121.988V113.202z"/>
<path d="M472.219,102.752h-9.505c1.378-5.029,2.017-10.273,1.86-15.62c-0.841-28.563-24.523-51.435-53.008-51.435
	c-0.327,0-0.659,0.003-0.986,0.009c-23.405,0.433-43.25,16.343-49.765,37.773c-4.698-1.785-9.799-2.575-14.994-2.216
	c-16.614,1.147-30.276,13.966-32.484,30.48c-0.045,0.336-0.073,0.672-0.109,1.008h-4.343c-5.77,0-10.449,4.678-10.449,10.449
	s4.679,10.449,10.449,10.449h163.334c5.77,0,10.449-4.678,10.449-10.449S477.989,102.752,472.219,102.752z M334.403,102.752
	c1.564-5.775,6.811-10.222,12.856-10.64c5.269-0.357,10.317,2.169,13.165,6.613c1.19,1.858,2.891,3.233,4.822,4.027
	C365.246,102.752,334.403,102.752,334.403,102.752z M373.199,102.752c4.256-1.749,6.891-6.103,6.419-10.726
	c-0.111-1.092-0.168-2.205-0.168-3.308c0-17.389,14.137-31.796,31.515-32.118c17.561-0.321,32.205,13.647,32.719,31.145
	c0.155,5.266-0.946,10.371-3.21,15.006h-67.275V102.752z"/>
<path d="M501.551,123.65h-0.517c-5.77,0-10.449-4.678-10.449-10.449s4.679-10.449,10.449-10.449h0.517
	c5.77,0,10.449,4.678,10.449,10.449S507.321,123.65,501.551,123.65z"/>
<path d="M10.586,504.686h-0.137C4.679,504.686,0,500.008,0,494.237c0-5.771,4.679-10.449,10.449-10.449h0.137
	c5.77,0,10.449,4.678,10.449,10.449C21.035,500.008,16.356,504.686,10.586,504.686z"/>
<path d="M501.551,504.686H44.389c-5.77,0-10.449-4.678-10.449-10.449c0-5.771,4.679-10.449,10.449-10.449h457.162
	c5.77,0,10.449,4.678,10.449,10.449C512,500.008,507.321,504.686,501.551,504.686z"/>
</svg>
