<?xml version="1.0" encoding="iso-8859-1"?>
<svg version="1.1" id="Layer_1" xmlns="http://www.w3.org/2000/svg"
	 viewBox="0 0 512 512" xml:space="preserve">
<rect x="417.959" y="179.681" style="fill:#003A7F;" width="83.592" height="321.87"/>
<polygon style="fill:#5E5E68;" points="10.449,213.159 142.181,273.914 142.181,213.159 273.914,273.914 273.914,213.159
	417.959,273.914 417.959,501.551 10.449,501.551 "/>
<g>
	<rect x="48.707" y="360.667" style="fill:#27B5F7;" width="55.14" height="57.178"/>
	<rect x="180.36" y="360.667" style="fill:#27B5F7;" width="55.14" height="57.178"/>
	<rect x="312.017" y="360.667" style="fill:#27B5F7;" width="55.14" height="57.178"/>
</g>
<path style="fill:#918FA9;" d="M398.988,77.504c5.106-7.25,8.017-16.157,7.735-25.762c-0.681-23.166-20.185-41.714-43.358-41.286
	c-23.141,0.428-41.77,19.321-41.77,42.566c0,1.475,0.075,2.934,0.222,4.371c-4.706-7.348-13.169-12.059-22.684-11.401
	c-11.655,0.806-21.298,9.861-22.847,21.439c-0.472,3.529-0.176,6.925,0.712,10.074h121.99V77.504z"/>
<path d="M501.551,169.23h-32.133c-4.981-32.416-33.061-57.32-66.848-57.32h-90.549c-5.77,0-10.449,4.678-10.449,10.449
	s4.679,10.449,10.449,10.449h90.549c22.226,0,40.865,15.6,45.575,36.422h-30.186c-5.77,0-10.449,4.678-10.449,10.449v78.488
	l-129.537-54.635c-3.227-1.361-6.919-1.015-9.838,0.921c-2.917,1.936-4.672,5.205-4.672,8.707v44.429l-116.907-53.917
	c-3.237-1.492-7.009-1.231-10.009,0.688c-3.001,1.921-4.816,5.238-4.816,8.8v44.429L14.825,203.672
	c-3.237-1.492-7.009-1.231-10.009,0.688C1.815,206.28,0,209.596,0,213.159v288.392C0,507.322,4.679,512,10.449,512h491.102
	c5.77,0,10.449-4.678,10.449-10.449V179.679C512,173.909,507.321,169.23,501.551,169.23z M20.898,229.485l116.906,53.917
	c3.238,1.493,7.01,1.233,10.009-0.688c3.001-1.921,4.816-5.238,4.816-8.8v-44.429l116.908,53.917
	c3.235,1.493,7.008,1.233,10.008-0.688c3.001-1.921,4.816-5.238,4.816-8.8v-45.007l123.149,51.94v210.255H20.898V229.485z
	 M428.408,491.102V273.914v-83.785h62.694v43.476h-31.347c-5.77,0-10.449,4.678-10.449,10.449c0,5.771,4.679,10.449,10.449,10.449
	h31.347v43.476h-31.347c-5.77,0-10.449,4.678-10.449,10.449c0,5.771,4.679,10.449,10.449,10.449h31.347v43.476h-31.347
	c-5.77,0-10.449,4.678-10.449,10.449c0,5.771,4.679,10.449,10.449,10.449h31.347v43.476h-31.347c-5.77,0-10.449,4.678-10.449,10.449
	c0,5.771,4.679,10.449,10.449,10.449h31.347v43.477H428.408z"/>
<path d="M103.848,350.215H48.707c-5.77,0-10.449,4.678-10.449,10.449v57.469c0,5.771,4.679,10.449,10.449,10.449h27.571
	c5.77,0,10.449-4.678,10.449-10.449c0-5.771-4.679-10.449-10.449-10.449H59.156v-36.571h34.242v11.609
	c0,5.771,4.679,10.449,10.449,10.449s10.449-4.678,10.449-10.449v-22.058C114.297,354.893,109.618,350.215,103.848,350.215z"/>
<path d="M103.848,407.393c-5.77,0-10.449,4.678-10.449,10.449v0.29c0,5.771,4.679,10.449,10.449,10.449
	c5.77,0,10.449-4.678,10.449-10.449v-0.29C114.297,412.071,109.618,407.393,103.848,407.393z"/>
<path d="M235.505,350.215h-55.14c-5.77,0-10.449,4.678-10.449,10.449v57.469c0,5.771,4.679,10.449,10.449,10.449h27.57
	c5.77,0,10.449-4.678,10.449-10.449c0-5.771-4.679-10.449-10.449-10.449h-17.122v-36.571h34.242v11.609
	c0,5.771,4.679,10.449,10.449,10.449c5.77,0,10.449-4.678,10.449-10.449v-22.058C245.954,354.893,241.275,350.215,235.505,350.215z"
	/>
<path d="M235.505,407.393c-5.77,0-10.449,4.678-10.449,10.449v0.29c0,5.771,4.679,10.449,10.449,10.449
	c5.77,0,10.449-4.678,10.449-10.449v-0.29C245.954,412.071,241.275,407.393,235.505,407.393z"/>
<path d="M367.162,350.215h-55.14c-5.77,0-10.449,4.678-10.449,10.449v57.469c0,5.771,4.679,10.449,10.449,10.449h27.57
	c5.77,0,10.449-4.678,10.449-10.449c0-5.771-4.679-10.449-10.449-10.449H322.47v-36.571h34.242v11.609
	c0,5.771,4.679,10.449,10.449,10.449s10.449-4.678,10.449-10.449v-22.058C377.611,354.893,372.932,350.215,367.162,350.215z"/>
<path d="M367.162,407.393c-5.77,0-10.449,4.678-10.449,10.449v0.29c0,5.771,4.679,10.449,10.449,10.449s10.449-4.678,10.449-10.449
	v-0.29C377.611,412.071,372.932,407.393,367.162,407.393z"/>
<path d="M261.479,87.953h163.334c5.77,0,10.449-4.678,10.449-10.449c0-5.771-4.679-10.449-10.449-10.449h-9.505
	c1.379-5.029,2.017-10.274,1.86-15.62C416.327,22.872,392.644,0,364.157,0c-0.327,0-0.657,0.003-0.985,0.008
	c-23.404,0.434-43.248,16.344-49.763,37.774c-4.698-1.784-9.804-2.575-14.995-2.216c-16.614,1.148-30.275,13.967-32.482,30.477
	c-0.045,0.338-0.074,0.675-0.11,1.011h-4.343c-5.77,0-10.449,4.678-10.449,10.449S255.71,87.953,261.479,87.953z M332.213,56.329
	c-0.112-1.091-0.168-2.204-0.168-3.307c0-17.388,14.136-31.797,31.513-32.119c0.2-0.003,0.399-0.005,0.598-0.005
	c17.262,0,31.614,13.853,32.122,31.152c0.155,5.266-0.946,10.371-3.21,15.006h-67.275C330.051,65.306,332.686,60.952,332.213,56.329
	z M299.853,56.415c5.273-0.357,10.319,2.169,13.167,6.613c1.19,1.859,2.892,3.234,4.823,4.028h-30.844
	C288.563,61.28,293.809,56.833,299.853,56.415z"/>
<path d="M453.63,87.953h0.517c5.77,0,10.449-4.678,10.449-10.449c0-5.771-4.679-10.449-10.449-10.449h-0.517
	c-5.77,0-10.449,4.678-10.449,10.449C443.181,83.275,447.859,87.953,453.63,87.953z"/>
<path d="M146.736,145.331c-5.77,0-10.449,4.678-10.449,10.449s4.679,10.449,10.449,10.449h66.691c5.77,0,10.449-4.678,10.449-10.449
	s-4.679-10.449-10.449-10.449H146.736z"/>
<path d="M103.777,145.331c-5.77,0-10.449,4.678-10.449,10.449s4.679,10.449,10.449,10.449h10.384c5.77,0,10.449-4.678,10.449-10.449
	s-4.679-10.449-10.449-10.449H103.777z"/>
<path d="M268.675,114.866c-1.943,1.944-3.062,4.639-3.062,7.387c0,2.748,1.117,5.444,3.062,7.387
	c1.945,1.944,4.638,3.062,7.387,3.062c2.748,0,5.444-1.118,7.386-3.062c1.954-1.944,3.063-4.639,3.063-7.387
	c0-2.748-1.109-5.444-3.063-7.387c-1.942-1.944-4.638-3.062-7.386-3.062C273.313,111.804,270.618,112.922,268.675,114.866z"/>
<path d="M70.642,132.702h168.154c5.77,0,10.449-4.678,10.449-10.449c0-5.771-4.679-10.449-10.449-10.449H70.642
	c-5.77,0-10.449,4.678-10.449,10.449C60.193,128.024,64.872,132.702,70.642,132.702z"/>
</svg>
