<?xml version="1.0" encoding="iso-8859-1"?>
<svg version="1.1" id="Layer_1" xmlns="http://www.w3.org/2000/svg"
	 viewBox="0 0 512 512" xml:space="preserve">
<rect x="92.98" y="85.671" style="fill:#27B5F7;" width="326.008" height="415.816"/>
<rect x="74.263" y="42.835" style="fill:#CE1128;" width="363.526" height="42.833"/>
<rect x="201.661" y="360.443" style="fill:#C2EDFF;" width="108.655" height="141.242"/>
<rect x="181.811" y="331.232" style="fill:#CE1128;" width="148.356" height="29.21"/>
<g>
	<rect x="230.904" y="137.93" style="fill:#C2EDFF;" width="50.149" height="50.149"/>
	<rect x="230.904" y="231.029" style="fill:#C2EDFF;" width="50.149" height="50.149"/>
	<rect x="131.662" y="137.93" style="fill:#C2EDFF;" width="50.149" height="50.149"/>
	<rect x="131.662" y="231.029" style="fill:#C2EDFF;" width="50.149" height="50.149"/>
	<rect x="330.167" y="137.93" style="fill:#C2EDFF;" width="50.149" height="50.149"/>
	<rect x="330.167" y="231.029" style="fill:#C2EDFF;" width="50.149" height="50.149"/>
</g>
<rect x="217.897" y="10.448" style="fill:#FF3131;" width="76.195" height="75.223"/>
<g>
	<path style="fill:#7DCE09;" d="M26.655,501.487c-9.939-9.251-16.162-22.44-16.162-37.089c0-27.985,22.686-50.671,50.671-50.671
		c21.929,0,40.601,13.932,47.656,33.425c5.724-3.947,12.658-6.263,20.137-6.263c19.619,0,35.522,15.903,35.522,35.522
		c0,9.788-3.96,18.651-10.364,25.076L26.655,501.487L26.655,501.487z"/>
	<path style="fill:#7DCE09;" d="M485.346,501.552c9.939-9.251,16.163-22.44,16.163-37.089c0-27.985-22.686-50.671-50.671-50.671
		c-21.929,0-40.601,13.932-47.656,33.425c-5.724-3.947-12.658-6.263-20.137-6.263c-19.619,0-35.522,15.903-35.522,35.522
		c0,9.788,3.96,18.651,10.364,25.076L485.346,501.552L485.346,501.552z"/>
</g>
<path d="M281.049,198.524H230.9c-5.769,0-10.448-4.678-10.448-10.448v-50.149c0-5.769,4.678-10.448,10.448-10.448h50.149
	c5.769,0,10.448,4.678,10.448,10.448v50.149C291.496,193.845,286.818,198.524,281.049,198.524z M241.348,177.629h29.253v-29.253
	h-29.253L241.348,177.629L241.348,177.629z"/>
<path d="M281.049,291.622H230.9c-5.769,0-10.448-4.678-10.448-10.448v-50.149c0-5.769,4.678-10.448,10.448-10.448h50.149
	c5.769,0,10.448,4.678,10.448,10.448v50.149C291.496,286.943,286.818,291.622,281.049,291.622z M241.348,270.727h29.253v-29.253
	h-29.253L241.348,270.727L241.348,270.727z"/>
<path d="M181.811,198.524h-50.149c-5.769,0-10.448-4.678-10.448-10.448v-50.149c0-5.769,4.678-10.448,10.448-10.448h50.149
	c5.769,0,10.448,4.678,10.448,10.448v50.149C192.258,193.845,187.58,198.524,181.811,198.524z M142.11,177.629h29.253v-29.253
	H142.11V177.629z"/>
<path d="M181.811,291.622h-50.149c-5.769,0-10.448-4.678-10.448-10.448v-50.149c0-5.769,4.678-10.448,10.448-10.448h50.149
	c5.769,0,10.448,4.678,10.448,10.448v50.149C192.258,286.943,187.58,291.622,181.811,291.622z M142.11,270.727h29.253v-29.253
	H142.11V270.727z"/>
<path d="M380.316,198.524h-50.149c-5.769,0-10.448-4.678-10.448-10.448v-50.149c0-5.769,4.678-10.448,10.448-10.448h50.149
	c5.769,0,10.448,4.678,10.448,10.448v50.149C390.764,193.845,386.085,198.524,380.316,198.524z M340.615,177.629h29.253v-29.253
	h-29.253V177.629z"/>
<path d="M380.316,291.622h-50.149c-5.769,0-10.448-4.678-10.448-10.448v-50.149c0-5.769,4.678-10.448,10.448-10.448h50.149
	c5.769,0,10.448,4.678,10.448,10.448v50.149C390.764,286.943,386.085,291.622,380.316,291.622z M340.615,270.727h29.253v-29.253
	h-29.253V270.727z"/>
<path d="M255.988,409.973c-5.769,0-10.448-4.678-10.448-10.448v-0.137c0-5.769,4.678-10.448,10.448-10.448
	s10.448,4.678,10.448,10.448v0.137C266.436,405.295,261.757,409.973,255.988,409.973z"/>
<path d="M267.357,37.611h-0.921V36.69c0-5.769-4.678-10.448-10.448-10.448S245.54,30.921,245.54,36.69v0.921h-0.921
	c-5.769,0-10.448,4.678-10.448,10.448s4.678,10.448,10.448,10.448h0.921v0.921c0,5.769,4.678,10.448,10.448,10.448
	s10.448-4.678,10.448-10.448v-0.921h0.921c5.769,0,10.448-4.678,10.448-10.448S273.127,37.611,267.357,37.611z"/>
<path d="M450.837,403.345c-7.447,0-14.679,1.367-21.407,3.895V96.118h8.407c5.769,0,10.448-4.678,10.448-10.448V42.837
	c0-5.769-4.678-10.448-10.448-10.448H304.533V10.448c0-5.77-4.678-10.448-10.448-10.448h-76.195
	c-5.769,0-10.448,4.677-10.448,10.448V32.39H74.259c-5.769,0-10.448,4.678-10.448,10.448v42.833c0,5.769,4.678,10.448,10.448,10.448
	h8.273V407.16c-6.717-2.52-13.935-3.881-21.368-3.881c-33.701,0-61.119,27.418-61.119,61.119c0,16.9,7.104,33.206,19.49,44.736
	c1.934,1.8,4.477,2.801,7.118,2.801L485.345,512c2.641,0,5.185-1.001,7.118-2.801c12.387-11.529,19.491-27.836,19.491-44.736
	C511.956,430.762,484.537,403.345,450.837,403.345z M304.533,53.285h122.856v21.938H304.533V53.285z M228.339,20.895h55.299v54.328
	h-55.299V20.895z M84.706,53.285h122.738v21.938H84.706V53.285z M149.328,491.039H66.872H31.035
	c-6.536-7.349-10.093-16.672-10.093-26.641c0-22.179,18.044-40.223,40.223-40.223c16.883,0,32.088,10.663,37.832,26.533
	c1.103,3.046,3.553,5.407,6.638,6.394c3.085,0.987,6.45,0.49,9.118-1.349c4.191-2.89,9.103-4.417,14.207-4.417
	c13.825,0,25.074,11.249,25.074,25.074C154.033,481.732,152.384,486.803,149.328,491.039z M299.869,491.039h-33.432v-57.714
	c0-5.769-4.678-10.448-10.448-10.448s-10.448,4.678-10.448,10.448v57.714h-33.432V370.891h87.76V491.039z M319.72,349.996H192.258
	v-8.314H319.72V349.996z M339.432,491.039h-18.668V370.891h9.403c5.769,0,10.448-4.678,10.448-10.448v-29.21
	c0-5.769-4.678-10.448-10.448-10.448H181.811c-5.769,0-10.448,4.678-10.448,10.448v29.21c0,5.769,4.678,10.448,10.448,10.448h9.403
	v120.148h-18.666c1.558-4.655,2.38-9.578,2.38-14.629c0-25.348-20.622-45.97-45.97-45.97c-5.274,0-10.438,0.891-15.319,2.618
	c-2.834-4.731-6.285-9.008-10.21-12.76V96.118h305.107v324.289c-3.908,3.741-7.347,8.002-10.171,12.716
	c-4.88-1.726-10.044-2.617-15.319-2.617c-25.348,0-45.97,20.622-45.97,45.97C337.074,481.502,337.889,486.403,339.432,491.039z
	 M480.965,491.105h-34.747c-0.375-0.041-0.756-0.066-1.143-0.066h-82.448c-3.026-4.222-4.66-9.267-4.66-14.563
	c0-13.825,11.249-25.074,25.074-25.074c5.105,0,10.016,1.527,14.206,4.417c2.664,1.838,6.03,2.335,9.119,1.349
	c3.083-0.987,5.535-3.348,6.638-6.394c5.744-15.87,20.949-26.533,37.832-26.533c22.179,0,40.223,18.044,40.223,40.223
	C491.061,474.431,487.502,483.755,480.965,491.105z"/>
</svg>
