<svg>
  <symbol id="alien" viewBox="0 0 16 16" xmlns="http://www.w3.org/2000/svg">
    <path d="M8 1C6.40926 1.00182 4.88419 1.63455 3.75937 2.75937C2.63455 3.88419 2.00182 5.40926 2 7C2 8.5 2.785 10.4412 4.10063 12.1875C5.42438 13.9469 6.88188 15 8 15C9.11812 15 10.5756 13.9494 11.8994 12.1875C13.215 10.4375 14 8.5 14 7C13.9982 5.40926 13.3655 3.88419 12.2406 2.75937C11.1158 1.63455 9.59074 1.00182 8 1ZM11.1006 11.5887C10.015 13.0306 8.76937 14 8 14C7.23063 14 5.985 13.0306 4.89937 11.5887C3.72812 10.0312 3 8.27313 3 7C3 5.67392 3.52678 4.40215 4.46447 3.46447C5.40215 2.52678 6.67392 2 8 2C9.32608 2 10.5979 2.52678 11.5355 3.46447C12.4732 4.40215 13 5.67392 13 7C13 8.27313 12.2719 10.0312 11.1006 11.5887ZM7.5 8.5C7.5 7.83696 7.23661 7.20107 6.76777 6.73223C6.29893 6.26339 5.66304 6 5 6C4.73478 6 4.48043 6.10536 4.29289 6.29289C4.10536 6.48043 4 6.73478 4 7C4 7.66304 4.26339 8.29893 4.73223 8.76777C5.20107 9.23661 5.83696 9.5 6.5 9.5C6.76522 9.5 7.01957 9.39464 7.20711 9.20711C7.39464 9.01957 7.5 8.76522 7.5 8.5ZM5 7C5.39782 7 5.77936 7.15804 6.06066 7.43934C6.34196 7.72064 6.5 8.10218 6.5 8.5C6.10218 8.5 5.72064 8.34196 5.43934 8.06066C5.15804 7.77936 5 7.39782 5 7ZM11 6C10.337 6 9.70107 6.26339 9.23223 6.73223C8.76339 7.20107 8.5 7.83696 8.5 8.5C8.5 8.76522 8.60536 9.01957 8.79289 9.20711C8.98043 9.39464 9.23478 9.5 9.5 9.5C9.8283 9.5 10.1534 9.43534 10.4567 9.3097C10.76 9.18406 11.0356 8.99991 11.2678 8.76777C11.4999 8.53562 11.6841 8.26002 11.8097 7.95671C11.9353 7.65339 12 7.3283 12 7C12 6.73478 11.8946 6.48043 11.7071 6.29289C11.5196 6.10536 11.2652 6 11 6ZM9.5 8.5C9.5 8.10218 9.65804 7.72064 9.93934 7.43934C10.2206 7.15804 10.6022 7 11 7C11 7.39782 10.842 7.77936 10.5607 8.06066C10.2794 8.34196 9.89782 8.5 9.5 8.5ZM9.5 11.5C9.5 11.6326 9.44732 11.7598 9.35355 11.8536C9.25979 11.9473 9.13261 12 9 12H7C6.86739 12 6.74021 11.9473 6.64645 11.8536C6.55268 11.7598 6.5 11.6326 6.5 11.5C6.5 11.3674 6.55268 11.2402 6.64645 11.1464C6.74021 11.0527 6.86739 11 7 11H9C9.13261 11 9.25979 11.0527 9.35355 11.1464C9.44732 11.2402 9.5 11.3674 9.5 11.5Z"/>
  </symbol>
  <symbol id="x" viewBox="0 0 24 24" xmlns="http://www.w3.org/2000/svg">
    <path fill-rule="evenodd" clip-rule="evenodd" d="M18.7071 5.29289C19.0976 5.68342 19.0976 6.31658 18.7071 6.70711L6.70711 18.7071C6.31658 19.0976 5.68342 19.0976 5.29289 18.7071C4.90237 18.3166 4.90237 17.6834 5.29289 17.2929L17.2929 5.29289C17.6834 4.90237 18.3166 4.90237 18.7071 5.29289Z"/>
<path fill-rule="evenodd" clip-rule="evenodd" d="M5.29289 5.29289C5.68342 4.90237 6.31658 4.90237 6.70711 5.29289L18.7071 17.2929C19.0976 17.6834 19.0976 18.3166 18.7071 18.7071C18.3166 19.0976 17.6834 19.0976 17.2929 18.7071L5.29289 6.70711C4.90237 6.31658 4.90237 5.68342 5.29289 5.29289Z"/>
  </symbol>
  <symbol id="alert-circle" viewBox="0 0 24 24" xmlns="http://www.w3.org/2000/svg">
    <path fill-rule="evenodd" clip-rule="evenodd" d="M12 3C7.02944 3 3 7.02944 3 12C3 16.9706 7.02944 21 12 21C16.9706 21 21 16.9706 21 12C21 7.02944 16.9706 3 12 3ZM1 12C1 5.92487 5.92487 1 12 1C18.0751 1 23 5.92487 23 12C23 18.0751 18.0751 23 12 23C5.92487 23 1 18.0751 1 12Z"/>
<path fill-rule="evenodd" clip-rule="evenodd" d="M12 7C12.5523 7 13 7.44772 13 8V12C13 12.5523 12.5523 13 12 13C11.4477 13 11 12.5523 11 12V8C11 7.44772 11.4477 7 12 7Z"/>
<path fill-rule="evenodd" clip-rule="evenodd" d="M11 16C11 15.4477 11.4477 15 12 15H12.01C12.5623 15 13.01 15.4477 13.01 16C13.01 16.5523 12.5623 17 12.01 17H12C11.4477 17 11 16.5523 11 16Z"/>
  </symbol>
 <symbol id="alert-octagon" viewBox="0 0 24 24" xmlns="http://www.w3.org/2000/svg">
    <path fill-rule="evenodd" clip-rule="evenodd" d="M7.15289 1.29289C7.34043 1.10536 7.59478 1 7.86 1H16.14C16.4052 1 16.6596 1.10536 16.8471 1.29289L22.7071 7.15289C22.8946 7.34043 23 7.59478 23 7.86V16.14C23 16.4052 22.8946 16.6596 22.7071 16.8471L16.8471 22.7071C16.6596 22.8946 16.4052 23 16.14 23H7.86C7.59478 23 7.34043 22.8946 7.15289 22.7071L1.29289 16.8471C1.10536 16.6596 1 16.4052 1 16.14V7.86C1 7.59478 1.10536 7.34043 1.29289 7.15289L7.15289 1.29289ZM8.27421 3L3 8.27421V15.7258L8.27421 21H15.7258L21 15.7258V8.27421L15.7258 3H8.27421Z" fill="black"/>
<path fill-rule="evenodd" clip-rule="evenodd" d="M11 16C11 15.4477 11.4477 15 12 15H12.01C12.5623 15 13.01 15.4477 13.01 16C13.01 16.5523 12.5623 17 12.01 17H12C11.4477 17 11 16.5523 11 16Z"/>
<path fill-rule="evenodd" clip-rule="evenodd" d="M12 7C12.5523 7 13 7.44772 13 8V12C13 12.5523 12.5523 13 12 13C11.4477 13 11 12.5523 11 12V8C11 7.44772 11.4477 7 12 7Z"/>
  </symbol>
 <symbol id="alert-triangle" viewBox="0 0 24 24" xmlns="http://www.w3.org/2000/svg">
    <path fill-rule="evenodd" clip-rule="evenodd" d="M10.5282 2.28306C10.9775 2.0301 11.4844 1.89722 12 1.89722C12.5156 1.89722 13.0225 2.0301 13.4718 2.28306C13.9211 2.53601 14.2976 2.90049 14.565 3.34133L14.5679 3.34608L23.0379 17.4861L23.046 17.4999C23.308 17.9535 23.4466 18.4678 23.448 18.9917C23.4495 19.5155 23.3138 20.0306 23.0544 20.4857C22.795 20.9408 22.4209 21.32 21.9694 21.5857C21.518 21.8513 21.0048 21.9941 20.481 21.9999L20.47 22L3.51903 22C2.99522 21.9942 2.48206 21.8513 2.03059 21.5857C1.57912 21.32 1.20507 20.9408 0.94567 20.4857C0.686267 20.0306 0.550547 19.5155 0.552014 18.9917C0.55348 18.4678 0.692083 17.9535 0.95403 17.4999L0.962153 17.4861L9.43501 3.34132C9.70241 2.90048 10.0789 2.53601 10.5282 2.28306ZM12 3.89722C11.8282 3.89722 11.6592 3.94151 11.5094 4.02583C11.3603 4.10977 11.2353 4.23054 11.1462 4.3766L2.68271 18.5058C2.59753 18.6556 2.55249 18.8249 2.55201 18.9973C2.55152 19.1719 2.59676 19.3436 2.68322 19.4953C2.76969 19.647 2.89438 19.7734 3.04487 19.8619C3.19404 19.9497 3.36342 19.9973 3.53642 20H20.4636C20.6366 19.9973 20.806 19.9497 20.9552 19.8619C21.1057 19.7734 21.2303 19.647 21.3168 19.4953C21.4033 19.3436 21.4485 19.1719 21.448 18.9973C21.4476 18.8249 21.4025 18.6556 21.3174 18.5058L12.855 4.37859C12.8546 4.37792 12.8542 4.37726 12.8538 4.3766C12.7648 4.23054 12.6397 4.10977 12.4906 4.02583C12.3409 3.94151 12.1719 3.89722 12 3.89722Z"/>
<path fill-rule="evenodd" clip-rule="evenodd" d="M11 17C11 16.4477 11.4477 16 12 16H12.01C12.5623 16 13.01 16.4477 13.01 17C13.01 17.5523 12.5623 18 12.01 18H12C11.4477 18 11 17.5523 11 17Z"/>
<path fill-rule="evenodd" clip-rule="evenodd" d="M12 8C12.5523 8 13 8.44772 13 9V13C13 13.5523 12.5523 14 12 14C11.4477 14 11 13.5523 11 13V9C11 8.44772 11.4477 8 12 8Z"/>
 </symbol>
 <symbol id="warning-circle" viewBox="0 0 32 32" xmlns="http://www.w3.org/2000/svg">
    <path d="M16 3C13.4288 3 10.9154 3.76244 8.77759 5.1909C6.63975 6.61935 4.97351 8.64968 3.98957 11.0251C3.00563 13.4006 2.74818 16.0144 3.24979 18.5362C3.7514 21.0579 4.98953 23.3743 6.80761 25.1924C8.62569 27.0105 10.9421 28.2486 13.4638 28.7502C15.9856 29.2518 18.5994 28.9944 20.9749 28.0104C23.3503 27.0265 25.3806 25.3603 26.8091 23.2224C28.2376 21.0846 29 18.5712 29 16C28.9964 12.5533 27.6256 9.24882 25.1884 6.81163C22.7512 4.37445 19.4467 3.00364 16 3ZM16 27C13.8244 27 11.6977 26.3549 9.88873 25.1462C8.07979 23.9375 6.66989 22.2195 5.83733 20.2095C5.00476 18.1995 4.78692 15.9878 5.21136 13.854C5.6358 11.7202 6.68345 9.7602 8.22183 8.22183C9.7602 6.68345 11.7202 5.6358 13.854 5.21136C15.9878 4.78692 18.1995 5.00476 20.2095 5.83733C22.2195 6.66989 23.9375 8.07979 25.1462 9.88873C26.3549 11.6977 27 13.8244 27 16C26.9967 18.9164 25.8367 21.7123 23.7745 23.7745C21.7123 25.8367 18.9164 26.9967 16 27ZM15 17V10C15 9.73478 15.1054 9.48043 15.2929 9.29289C15.4804 9.10536 15.7348 9 16 9C16.2652 9 16.5196 9.10536 16.7071 9.29289C16.8946 9.48043 17 9.73478 17 10V17C17 17.2652 16.8946 17.5196 16.7071 17.7071C16.5196 17.8946 16.2652 18 16 18C15.7348 18 15.4804 17.8946 15.2929 17.7071C15.1054 17.5196 15 17.2652 15 17ZM17.5 21.5C17.5 21.7967 17.412 22.0867 17.2472 22.3334C17.0824 22.58 16.8481 22.7723 16.574 22.8858C16.2999 22.9993 15.9983 23.0291 15.7074 22.9712C15.4164 22.9133 15.1491 22.7704 14.9393 22.5607C14.7296 22.3509 14.5867 22.0836 14.5288 21.7926C14.4709 21.5017 14.5006 21.2001 14.6142 20.926C14.7277 20.6519 14.92 20.4176 15.1666 20.2528C15.4133 20.088 15.7033 20 16 20C16.3978 20 16.7794 20.158 17.0607 20.4393C17.342 20.7206 17.5 21.1022 17.5 21.5Z"/>
 </symbol>
 <symbol id="warning-diamond" viewBox="0 0 32 32" xmlns="http://www.w3.org/2000/svg">
    <path d="M16 9C16.2652 9 16.5196 9.10536 16.7071 9.29289C16.8946 9.48043 17 9.73478 17 10V17C17 17.2652 16.8946 17.5196 16.7071 17.7071C16.5196 17.8946 16.2652 18 16 18C15.7348 18 15.4804 17.8946 15.2929 17.7071C15.1054 17.5196 15 17.2652 15 17V10C15 9.73478 15.1054 9.48043 15.2929 9.29289C15.4804 9.10536 15.7348 9 16 9ZM14.5 21.5C14.5 21.7967 14.588 22.0867 14.7528 22.3334C14.9176 22.58 15.1519 22.7723 15.426 22.8858C15.7001 22.9993 16.0017 23.0291 16.2926 22.9712C16.5836 22.9133 16.8509 22.7704 17.0607 22.5607C17.2704 22.3509 17.4133 22.0836 17.4712 21.7926C17.5291 21.5017 17.4993 21.2001 17.3858 20.926C17.2723 20.6519 17.08 20.4176 16.8334 20.2528C16.5867 20.088 16.2967 20 16 20C15.6022 20 15.2206 20.158 14.9393 20.4393C14.658 20.7206 14.5 21.1022 14.5 21.5ZM30 16C30.0007 16.2619 29.9495 16.5214 29.8493 16.7635C29.7491 17.0055 29.6019 17.2252 29.4162 17.41L17.41 29.4175C17.0353 29.79 16.5284 29.9991 16 29.9991C15.4716 29.9991 14.9647 29.79 14.59 29.4175L2.59 17.41C2.2175 17.0353 2.00841 16.5284 2.00841 16C2.00841 15.4716 2.2175 14.9647 2.59 14.59L14.5962 2.5825C14.971 2.21 15.4779 2.00092 16.0063 2.00092C16.5346 2.00092 17.0415 2.21 17.4163 2.5825L29.4225 14.59C29.6071 14.7753 29.7531 14.9953 29.8522 15.2373C29.9513 15.4793 30.0016 15.7385 30 16ZM28 16L16 4L4 16L16 28L28 16Z"/>
  </symbol>
  <symbol id="caret-down" viewBox="0 0 16 16" xmlns="http://www.w3.org/2000/svg">
    <path d="M13.3538 6.35375L8.35375 11.3538C8.30731 11.4002 8.25217 11.4371 8.19147 11.4623C8.13077 11.4874 8.06571 11.5004 8 11.5004C7.93429 11.5004 7.86923 11.4874 7.80853 11.4623C7.74783 11.4371 7.69269 11.4002 7.64625 11.3538L2.64625 6.35375C2.55243 6.25993 2.49972 6.13269 2.49972 6C2.49972 5.86732 2.55243 5.74007 2.64625 5.64625C2.74007 5.55243 2.86732 5.49973 3 5.49973C3.13268 5.49973 3.25993 5.55243 3.35375 5.64625L8 10.2931L12.6462 5.64625C12.6927 5.5998 12.7479 5.56295 12.8086 5.53781C12.8692 5.51267 12.9343 5.49973 13 5.49973C13.0657 5.49973 13.1308 5.51267 13.1914 5.53781C13.2521 5.56295 13.3073 5.5998 13.3538 5.64625C13.4002 5.69271 13.4371 5.74786 13.4622 5.80856C13.4873 5.86925 13.5003 5.93431 13.5003 6C13.5003 6.0657 13.4873 6.13076 13.4622 6.19145C13.4371 6.25215 13.4002 6.3073 13.3538 6.35375Z"/>
 </symbol>
  <symbol id="eye" viewBox="0 0 16 17" xmlns="http://www.w3.org/2000/svg">
    <path d="M15.4569 8.2975C15.435 8.24813 14.9056 7.07375 13.7287 5.89687C12.1606 4.32875 10.18 3.5 7.99999 3.5C5.81999 3.5 3.83937 4.32875 2.27124 5.89687C1.09437 7.07375 0.562494 8.25 0.543119 8.2975C0.51469 8.36144 0.5 8.43064 0.5 8.50062C0.5 8.5706 0.51469 8.6398 0.543119 8.70375C0.564994 8.75312 1.09437 9.92688 2.27124 11.1038C3.83937 12.6713 5.81999 13.5 7.99999 13.5C10.18 13.5 12.1606 12.6713 13.7287 11.1038C14.9056 9.92688 15.435 8.75312 15.4569 8.70375C15.4853 8.6398 15.5 8.5706 15.5 8.50062C15.5 8.43064 15.4853 8.36144 15.4569 8.2975ZM7.99999 12.5C6.07624 12.5 4.39562 11.8006 3.00437 10.4219C2.43352 9.85418 1.94786 9.20685 1.56249 8.5C1.94776 7.79309 2.43343 7.14574 3.00437 6.57812C4.39562 5.19938 6.07624 4.5 7.99999 4.5C9.92374 4.5 11.6044 5.19938 12.9956 6.57812C13.5676 7.1456 14.0543 7.79295 14.4406 8.5C13.99 9.34125 12.0269 12.5 7.99999 12.5ZM7.99999 5.5C7.40665 5.5 6.82663 5.67595 6.33328 6.00559C5.83994 6.33524 5.45542 6.80377 5.22836 7.35195C5.00129 7.90013 4.94188 8.50333 5.05764 9.08527C5.17339 9.66721 5.45912 10.2018 5.87867 10.6213C6.29823 11.0409 6.83278 11.3266 7.41472 11.4424C7.99667 11.5581 8.59987 11.4987 9.14804 11.2716C9.69622 11.0446 10.1648 10.6601 10.4944 10.1667C10.824 9.67336 11 9.09334 11 8.5C10.9992 7.7046 10.6828 6.94202 10.1204 6.37959C9.55797 5.81716 8.79539 5.50083 7.99999 5.5ZM7.99999 10.5C7.60443 10.5 7.21775 10.3827 6.88885 10.1629C6.55996 9.94318 6.30361 9.63082 6.15224 9.26537C6.00086 8.89991 5.96125 8.49778 6.03842 8.10982C6.11559 7.72186 6.30608 7.36549 6.58578 7.08579C6.86549 6.80608 7.22185 6.6156 7.60981 6.53843C7.99778 6.46126 8.39991 6.50087 8.76536 6.65224C9.13081 6.80362 9.44317 7.05996 9.66293 7.38886C9.8827 7.71776 9.99999 8.10444 9.99999 8.5C9.99999 9.03043 9.78928 9.53914 9.41421 9.91421C9.03913 10.2893 8.53043 10.5 7.99999 10.5Z"/>
  </symbol>
  <symbol id="vec" viewBox="0 0 18 13" xmlns="http://www.w3.org/2000/svg">
    <path fill-rule="evenodd" clip-rule="evenodd" d="M17.7071 0.292893C18.0976 0.683417 18.0976 1.31658 17.7071 1.70711L6.70711 12.7071C6.31658 13.0976 5.68342 13.0976 5.29289 12.7071L0.292893 7.70711C-0.0976311 7.31658 -0.0976311 6.68342 0.292893 6.29289C0.683417 5.90237 1.31658 5.90237 1.70711 6.29289L6 10.5858L16.2929 0.292893C16.6834 -0.0976311 17.3166 -0.0976311 17.7071 0.292893Z" />
  </symbol>
</svg>
