<svg>
    <symbol id="alien" viewBox="0 0 16 16" xmlns="http://www.w3.org/2000/svg">
        <path d="M8 1C6.40926 1.00182 4.88419 1.63455 3.75937 2.75937C2.63455 3.88419 2.00182 5.40926 2 7C2 8.5 2.785 10.4412 4.10063 12.1875C5.42438 13.9469 6.88188 15 8 15C9.11812 15 10.5756 13.9494 11.8994 12.1875C13.215 10.4375 14 8.5 14 7C13.9982 5.40926 13.3655 3.88419 12.2406 2.75937C11.1158 1.63455 9.59074 1.00182 8 1ZM11.1006 11.5887C10.015 13.0306 8.76937 14 8 14C7.23063 14 5.985 13.0306 4.89937 11.5887C3.72812 10.0312 3 8.27313 3 7C3 5.67392 3.52678 4.40215 4.46447 3.46447C5.40215 2.52678 6.67392 2 8 2C9.32608 2 10.5979 2.52678 11.5355 3.46447C12.4732 4.40215 13 5.67392 13 7C13 8.27313 12.2719 10.0312 11.1006 11.5887ZM7.5 8.5C7.5 7.83696 7.23661 7.20107 6.76777 6.73223C6.29893 6.26339 5.66304 6 5 6C4.73478 6 4.48043 6.10536 4.29289 6.29289C4.10536 6.48043 4 6.73478 4 7C4 7.66304 4.26339 8.29893 4.73223 8.76777C5.20107 9.23661 5.83696 9.5 6.5 9.5C6.76522 9.5 7.01957 9.39464 7.20711 9.20711C7.39464 9.01957 7.5 8.76522 7.5 8.5ZM5 7C5.39782 7 5.77936 7.15804 6.06066 7.43934C6.34196 7.72064 6.5 8.10218 6.5 8.5C6.10218 8.5 5.72064 8.34196 5.43934 8.06066C5.15804 7.77936 5 7.39782 5 7ZM11 6C10.337 6 9.70107 6.26339 9.23223 6.73223C8.76339 7.20107 8.5 7.83696 8.5 8.5C8.5 8.76522 8.60536 9.01957 8.79289 9.20711C8.98043 9.39464 9.23478 9.5 9.5 9.5C9.8283 9.5 10.1534 9.43534 10.4567 9.3097C10.76 9.18406 11.0356 8.99991 11.2678 8.76777C11.4999 8.53562 11.6841 8.26002 11.8097 7.95671C11.9353 7.65339 12 7.3283 12 7C12 6.73478 11.8946 6.48043 11.7071 6.29289C11.5196 6.10536 11.2652 6 11 6ZM9.5 8.5C9.5 8.10218 9.65804 7.72064 9.93934 7.43934C10.2206 7.15804 10.6022 7 11 7C11 7.39782 10.842 7.77936 10.5607 8.06066C10.2794 8.34196 9.89782 8.5 9.5 8.5ZM9.5 11.5C9.5 11.6326 9.44732 11.7598 9.35355 11.8536C9.25979 11.9473 9.13261 12 9 12H7C6.86739 12 6.74021 11.9473 6.64645 11.8536C6.55268 11.7598 6.5 11.6326 6.5 11.5C6.5 11.3674 6.55268 11.2402 6.64645 11.1464C6.74021 11.0527 6.86739 11 7 11H9C9.13261 11 9.25979 11.0527 9.35355 11.1464C9.44732 11.2402 9.5 11.3674 9.5 11.5Z"/>
    </symbol>
    <symbol id="x" viewBox="0 0 24 24" xmlns="http://www.w3.org/2000/svg">
        <path fill-rule="evenodd" clip-rule="evenodd" d="M18.7071 5.29289C19.0976 5.68342 19.0976 6.31658 18.7071 6.70711L6.70711 18.7071C6.31658 19.0976 5.68342 19.0976 5.29289 18.7071C4.90237 18.3166 4.90237 17.6834 5.29289 17.2929L17.2929 5.29289C17.6834 4.90237 18.3166 4.90237 18.7071 5.29289Z"/>
        <path fill-rule="evenodd" clip-rule="evenodd" d="M5.29289 5.29289C5.68342 4.90237 6.31658 4.90237 6.70711 5.29289L18.7071 17.2929C19.0976 17.6834 19.0976 18.3166 18.7071 18.7071C18.3166 19.0976 17.6834 19.0976 17.2929 18.7071L5.29289 6.70711C4.90237 6.31658 4.90237 5.68342 5.29289 5.29289Z"/>
    </symbol>
    <symbol id="alert-circle" viewBox="0 0 24 24" xmlns="http://www.w3.org/2000/svg">
        <path fill-rule="evenodd" clip-rule="evenodd" d="M12 3C7.02944 3 3 7.02944 3 12C3 16.9706 7.02944 21 12 21C16.9706 21 21 16.9706 21 12C21 7.02944 16.9706 3 12 3ZM1 12C1 5.92487 5.92487 1 12 1C18.0751 1 23 5.92487 23 12C23 18.0751 18.0751 23 12 23C5.92487 23 1 18.0751 1 12Z"/>
        <path fill-rule="evenodd" clip-rule="evenodd" d="M12 7C12.5523 7 13 7.44772 13 8V12C13 12.5523 12.5523 13 12 13C11.4477 13 11 12.5523 11 12V8C11 7.44772 11.4477 7 12 7Z"/>
        <path fill-rule="evenodd" clip-rule="evenodd" d="M11 16C11 15.4477 11.4477 15 12 15H12.01C12.5623 15 13.01 15.4477 13.01 16C13.01 16.5523 12.5623 17 12.01 17H12C11.4477 17 11 16.5523 11 16Z"/>
    </symbol>
    <symbol id="alert-octagon" viewBox="0 0 24 24" xmlns="http://www.w3.org/2000/svg">
        <path fill-rule="evenodd" clip-rule="evenodd" d="M7.15289 1.29289C7.34043 1.10536 7.59478 1 7.86 1H16.14C16.4052 1 16.6596 1.10536 16.8471 1.29289L22.7071 7.15289C22.8946 7.34043 23 7.59478 23 7.86V16.14C23 16.4052 22.8946 16.6596 22.7071 16.8471L16.8471 22.7071C16.6596 22.8946 16.4052 23 16.14 23H7.86C7.59478 23 7.34043 22.8946 7.15289 22.7071L1.29289 16.8471C1.10536 16.6596 1 16.4052 1 16.14V7.86C1 7.59478 1.10536 7.34043 1.29289 7.15289L7.15289 1.29289ZM8.27421 3L3 8.27421V15.7258L8.27421 21H15.7258L21 15.7258V8.27421L15.7258 3H8.27421Z"/>
        <path fill-rule="evenodd" clip-rule="evenodd" d="M11 16C11 15.4477 11.4477 15 12 15H12.01C12.5623 15 13.01 15.4477 13.01 16C13.01 16.5523 12.5623 17 12.01 17H12C11.4477 17 11 16.5523 11 16Z"/>
        <path fill-rule="evenodd" clip-rule="evenodd" d="M12 7C12.5523 7 13 7.44772 13 8V12C13 12.5523 12.5523 13 12 13C11.4477 13 11 12.5523 11 12V8C11 7.44772 11.4477 7 12 7Z"/>
    </symbol>
    <symbol id="alert-triangle" viewBox="0 0 24 24" xmlns="http://www.w3.org/2000/svg">
        <path fill-rule="evenodd" clip-rule="evenodd" d="M10.5282 2.28306C10.9775 2.0301 11.4844 1.89722 12 1.89722C12.5156 1.89722 13.0225 2.0301 13.4718 2.28306C13.9211 2.53601 14.2976 2.90049 14.565 3.34133L14.5679 3.34608L23.0379 17.4861L23.046 17.4999C23.308 17.9535 23.4466 18.4678 23.448 18.9917C23.4495 19.5155 23.3138 20.0306 23.0544 20.4857C22.795 20.9408 22.4209 21.32 21.9694 21.5857C21.518 21.8513 21.0048 21.9941 20.481 21.9999L20.47 22L3.51903 22C2.99522 21.9942 2.48206 21.8513 2.03059 21.5857C1.57912 21.32 1.20507 20.9408 0.94567 20.4857C0.686267 20.0306 0.550547 19.5155 0.552014 18.9917C0.55348 18.4678 0.692083 17.9535 0.95403 17.4999L0.962153 17.4861L9.43501 3.34132C9.70241 2.90048 10.0789 2.53601 10.5282 2.28306ZM12 3.89722C11.8282 3.89722 11.6592 3.94151 11.5094 4.02583C11.3603 4.10977 11.2353 4.23054 11.1462 4.3766L2.68271 18.5058C2.59753 18.6556 2.55249 18.8249 2.55201 18.9973C2.55152 19.1719 2.59676 19.3436 2.68322 19.4953C2.76969 19.647 2.89438 19.7734 3.04487 19.8619C3.19404 19.9497 3.36342 19.9973 3.53642 20H20.4636C20.6366 19.9973 20.806 19.9497 20.9552 19.8619C21.1057 19.7734 21.2303 19.647 21.3168 19.4953C21.4033 19.3436 21.4485 19.1719 21.448 18.9973C21.4476 18.8249 21.4025 18.6556 21.3174 18.5058L12.855 4.37859C12.8546 4.37792 12.8542 4.37726 12.8538 4.3766C12.7648 4.23054 12.6397 4.10977 12.4906 4.02583C12.3409 3.94151 12.1719 3.89722 12 3.89722Z"/>
        <path fill-rule="evenodd" clip-rule="evenodd" d="M11 17C11 16.4477 11.4477 16 12 16H12.01C12.5623 16 13.01 16.4477 13.01 17C13.01 17.5523 12.5623 18 12.01 18H12C11.4477 18 11 17.5523 11 17Z"/>
        <path fill-rule="evenodd" clip-rule="evenodd" d="M12 8C12.5523 8 13 8.44772 13 9V13C13 13.5523 12.5523 14 12 14C11.4477 14 11 13.5523 11 13V9C11 8.44772 11.4477 8 12 8Z"/>
    </symbol>
    <symbol id="warning-circle" viewBox="0 0 32 32" xmlns="http://www.w3.org/2000/svg">
        <path d="M16 3C13.4288 3 10.9154 3.76244 8.77759 5.1909C6.63975 6.61935 4.97351 8.64968 3.98957 11.0251C3.00563 13.4006 2.74818 16.0144 3.24979 18.5362C3.7514 21.0579 4.98953 23.3743 6.80761 25.1924C8.62569 27.0105 10.9421 28.2486 13.4638 28.7502C15.9856 29.2518 18.5994 28.9944 20.9749 28.0104C23.3503 27.0265 25.3806 25.3603 26.8091 23.2224C28.2376 21.0846 29 18.5712 29 16C28.9964 12.5533 27.6256 9.24882 25.1884 6.81163C22.7512 4.37445 19.4467 3.00364 16 3ZM16 27C13.8244 27 11.6977 26.3549 9.88873 25.1462C8.07979 23.9375 6.66989 22.2195 5.83733 20.2095C5.00476 18.1995 4.78692 15.9878 5.21136 13.854C5.6358 11.7202 6.68345 9.7602 8.22183 8.22183C9.7602 6.68345 11.7202 5.6358 13.854 5.21136C15.9878 4.78692 18.1995 5.00476 20.2095 5.83733C22.2195 6.66989 23.9375 8.07979 25.1462 9.88873C26.3549 11.6977 27 13.8244 27 16C26.9967 18.9164 25.8367 21.7123 23.7745 23.7745C21.7123 25.8367 18.9164 26.9967 16 27ZM15 17V10C15 9.73478 15.1054 9.48043 15.2929 9.29289C15.4804 9.10536 15.7348 9 16 9C16.2652 9 16.5196 9.10536 16.7071 9.29289C16.8946 9.48043 17 9.73478 17 10V17C17 17.2652 16.8946 17.5196 16.7071 17.7071C16.5196 17.8946 16.2652 18 16 18C15.7348 18 15.4804 17.8946 15.2929 17.7071C15.1054 17.5196 15 17.2652 15 17ZM17.5 21.5C17.5 21.7967 17.412 22.0867 17.2472 22.3334C17.0824 22.58 16.8481 22.7723 16.574 22.8858C16.2999 22.9993 15.9983 23.0291 15.7074 22.9712C15.4164 22.9133 15.1491 22.7704 14.9393 22.5607C14.7296 22.3509 14.5867 22.0836 14.5288 21.7926C14.4709 21.5017 14.5006 21.2001 14.6142 20.926C14.7277 20.6519 14.92 20.4176 15.1666 20.2528C15.4133 20.088 15.7033 20 16 20C16.3978 20 16.7794 20.158 17.0607 20.4393C17.342 20.7206 17.5 21.1022 17.5 21.5Z"/>
    </symbol>
    <symbol id="warning-diamond" viewBox="0 0 32 32" xmlns="http://www.w3.org/2000/svg">
        <path d="M16 9C16.2652 9 16.5196 9.10536 16.7071 9.29289C16.8946 9.48043 17 9.73478 17 10V17C17 17.2652 16.8946 17.5196 16.7071 17.7071C16.5196 17.8946 16.2652 18 16 18C15.7348 18 15.4804 17.8946 15.2929 17.7071C15.1054 17.5196 15 17.2652 15 17V10C15 9.73478 15.1054 9.48043 15.2929 9.29289C15.4804 9.10536 15.7348 9 16 9ZM14.5 21.5C14.5 21.7967 14.588 22.0867 14.7528 22.3334C14.9176 22.58 15.1519 22.7723 15.426 22.8858C15.7001 22.9993 16.0017 23.0291 16.2926 22.9712C16.5836 22.9133 16.8509 22.7704 17.0607 22.5607C17.2704 22.3509 17.4133 22.0836 17.4712 21.7926C17.5291 21.5017 17.4993 21.2001 17.3858 20.926C17.2723 20.6519 17.08 20.4176 16.8334 20.2528C16.5867 20.088 16.2967 20 16 20C15.6022 20 15.2206 20.158 14.9393 20.4393C14.658 20.7206 14.5 21.1022 14.5 21.5ZM30 16C30.0007 16.2619 29.9495 16.5214 29.8493 16.7635C29.7491 17.0055 29.6019 17.2252 29.4162 17.41L17.41 29.4175C17.0353 29.79 16.5284 29.9991 16 29.9991C15.4716 29.9991 14.9647 29.79 14.59 29.4175L2.59 17.41C2.2175 17.0353 2.00841 16.5284 2.00841 16C2.00841 15.4716 2.2175 14.9647 2.59 14.59L14.5962 2.5825C14.971 2.21 15.4779 2.00092 16.0063 2.00092C16.5346 2.00092 17.0415 2.21 17.4163 2.5825L29.4225 14.59C29.6071 14.7753 29.7531 14.9953 29.8522 15.2373C29.9513 15.4793 30.0016 15.7385 30 16ZM28 16L16 4L4 16L16 28L28 16Z"/>
    </symbol>
    <symbol id="caret-down" viewBox="0 0 16 16" xmlns="http://www.w3.org/2000/svg">
        <path d="M13.3538 6.35375L8.35375 11.3538C8.30731 11.4002 8.25217 11.4371 8.19147 11.4623C8.13077 11.4874 8.06571 11.5004 8 11.5004C7.93429 11.5004 7.86923 11.4874 7.80853 11.4623C7.74783 11.4371 7.69269 11.4002 7.64625 11.3538L2.64625 6.35375C2.55243 6.25993 2.49972 6.13269 2.49972 6C2.49972 5.86732 2.55243 5.74007 2.64625 5.64625C2.74007 5.55243 2.86732 5.49973 3 5.49973C3.13268 5.49973 3.25993 5.55243 3.35375 5.64625L8 10.2931L12.6462 5.64625C12.6927 5.5998 12.7479 5.56295 12.8086 5.53781C12.8692 5.51267 12.9343 5.49973 13 5.49973C13.0657 5.49973 13.1308 5.51267 13.1914 5.53781C13.2521 5.56295 13.3073 5.5998 13.3538 5.64625C13.4002 5.69271 13.4371 5.74786 13.4622 5.80856C13.4873 5.86925 13.5003 5.93431 13.5003 6C13.5003 6.0657 13.4873 6.13076 13.4622 6.19145C13.4371 6.25215 13.4002 6.3073 13.3538 6.35375Z"/>
    </symbol>
    <symbol id="eye" viewBox="0 0 16 17" xmlns="http://www.w3.org/2000/svg">
        <path d="M15.4569 8.2975C15.435 8.24813 14.9056 7.07375 13.7287 5.89687C12.1606 4.32875 10.18 3.5 7.99999 3.5C5.81999 3.5 3.83937 4.32875 2.27124 5.89687C1.09437 7.07375 0.562494 8.25 0.543119 8.2975C0.51469 8.36144 0.5 8.43064 0.5 8.50062C0.5 8.5706 0.51469 8.6398 0.543119 8.70375C0.564994 8.75312 1.09437 9.92688 2.27124 11.1038C3.83937 12.6713 5.81999 13.5 7.99999 13.5C10.18 13.5 12.1606 12.6713 13.7287 11.1038C14.9056 9.92688 15.435 8.75312 15.4569 8.70375C15.4853 8.6398 15.5 8.5706 15.5 8.50062C15.5 8.43064 15.4853 8.36144 15.4569 8.2975ZM7.99999 12.5C6.07624 12.5 4.39562 11.8006 3.00437 10.4219C2.43352 9.85418 1.94786 9.20685 1.56249 8.5C1.94776 7.79309 2.43343 7.14574 3.00437 6.57812C4.39562 5.19938 6.07624 4.5 7.99999 4.5C9.92374 4.5 11.6044 5.19938 12.9956 6.57812C13.5676 7.1456 14.0543 7.79295 14.4406 8.5C13.99 9.34125 12.0269 12.5 7.99999 12.5ZM7.99999 5.5C7.40665 5.5 6.82663 5.67595 6.33328 6.00559C5.83994 6.33524 5.45542 6.80377 5.22836 7.35195C5.00129 7.90013 4.94188 8.50333 5.05764 9.08527C5.17339 9.66721 5.45912 10.2018 5.87867 10.6213C6.29823 11.0409 6.83278 11.3266 7.41472 11.4424C7.99667 11.5581 8.59987 11.4987 9.14804 11.2716C9.69622 11.0446 10.1648 10.6601 10.4944 10.1667C10.824 9.67336 11 9.09334 11 8.5C10.9992 7.7046 10.6828 6.94202 10.1204 6.37959C9.55797 5.81716 8.79539 5.50083 7.99999 5.5ZM7.99999 10.5C7.60443 10.5 7.21775 10.3827 6.88885 10.1629C6.55996 9.94318 6.30361 9.63082 6.15224 9.26537C6.00086 8.89991 5.96125 8.49778 6.03842 8.10982C6.11559 7.72186 6.30608 7.36549 6.58578 7.08579C6.86549 6.80608 7.22185 6.6156 7.60981 6.53843C7.99778 6.46126 8.39991 6.50087 8.76536 6.65224C9.13081 6.80362 9.44317 7.05996 9.66293 7.38886C9.8827 7.71776 9.99999 8.10444 9.99999 8.5C9.99999 9.03043 9.78928 9.53914 9.41421 9.91421C9.03913 10.2893 8.53043 10.5 7.99999 10.5Z"/>
    </symbol>
    <symbol id="check" viewBox="0 0 18 13" xmlns="http://www.w3.org/2000/svg">
        <path fill-rule="evenodd" clip-rule="evenodd" d="M17.7071 0.292893C18.0976 0.683417 18.0976 1.31658 17.7071 1.70711L6.70711 12.7071C6.31658 13.0976 5.68342 13.0976 5.29289 12.7071L0.292893 7.70711C-0.0976311 7.31658 -0.0976311 6.68342 0.292893 6.29289C0.683417 5.90237 1.31658 5.90237 1.70711 6.29289L6 10.5858L16.2929 0.292893C16.6834 -0.0976311 17.3166 -0.0976311 17.7071 0.292893Z" />
    </symbol>
    <symbol id="check" viewBox="0 0 18 13" xmlns="http://www.w3.org/2000/svg">
        <path fill-rule="evenodd" clip-rule="evenodd" d="M17.7071 0.292893C18.0976 0.683417 18.0976 1.31658 17.7071 1.70711L6.70711 12.7071C6.31658 13.0976 5.68342 13.0976 5.29289 12.7071L0.292893 7.70711C-0.0976311 7.31658 -0.0976311 6.68342 0.292893 6.29289C0.683417 5.90237 1.31658 5.90237 1.70711 6.29289L6 10.5858L16.2929 0.292893C16.6834 -0.0976311 17.3166 -0.0976311 17.7071 0.292893Z" />
    </symbol>
    <symbol id="dot" viewBox="0 0 32 32" xmlns="http://www.w3.org/2000/svg">
        <path d="M27.25 4.655c-6.254-6.226-16.37-6.201-22.594.051-6.227 6.254-6.204 16.37.049 22.594 6.256 6.226 16.374 6.203 22.597-.051 6.224-6.254 6.203-16.371-.052-22.594z"/>
        <path d="m13.288 23.896-1.768 5.207c2.567.829 5.331.886 7.926.17l-.665-5.416a8.382 8.382 0 0 1-5.493.039zM8.12 13.122l-5.645-.859a13.856 13.856 0 0 0 .225 8.143l5.491-1.375a8.391 8.391 0 0 1-.071-5.909zm20.643-1.789-4.965 1.675a8.39 8.39 0 0 1-.247 6.522l5.351.672a13.868 13.868 0 0 0-.139-8.869zm-17.369-8.45 1.018 5.528a8.395 8.395 0 0 1 6.442-.288l1.583-5.137a13.855 13.855 0 0 0-9.043-.103z"/>
        <circle cx="15.979" cy="15.977" r="6.117"/>
    </symbol>
    <symbol id="arrow-left" viewBox="0 0 8 14" xmlns="http://www.w3.org/2000/svg">
        <path fill-rule="evenodd" clip-rule="evenodd" d="M7.70711 0.292893C8.09763 0.683417 8.09763 1.31658 7.70711 1.70711L2.41421 7L7.70711 12.2929C8.09763 12.6834 8.09763 13.3166 7.70711 13.7071C7.31658 14.0976 6.68342 14.0976 6.29289 13.7071L0.292893 7.70711C-0.0976311 7.31658 -0.0976311 6.68342 0.292893 6.29289L6.29289 0.292893C6.68342 -0.0976311 7.31658 -0.0976311 7.70711 0.292893Z"/>
    </symbol>
    <symbol id="arrow-down" viewBox="0 0 14 8" xmlns="http://www.w3.org/2000/svg">
        <path fill-rule="evenodd" clip-rule="evenodd" d="M0.292893 0.292893C0.683417 -0.0976311 1.31658 -0.0976311 1.70711 0.292893L7 5.58579L12.2929 0.292893C12.6834 -0.0976311 13.3166 -0.0976311 13.7071 0.292893C14.0976 0.683417 14.0976 1.31658 13.7071 1.70711L7.70711 7.70711C7.31658 8.09763 6.68342 8.09763 6.29289 7.70711L0.292893 1.70711C-0.0976311 1.31658 -0.0976311 0.683417 0.292893 0.292893Z"/>
    </symbol>
    <symbol id="arrow-up" viewBox="0 0 14 8" xmlns="http://www.w3.org/2000/svg">
        <path fill-rule="evenodd" clip-rule="evenodd" d="M6.29289 0.292893C6.68342 -0.0976311 7.31658 -0.0976311 7.70711 0.292893L13.7071 6.29289C14.0976 6.68342 14.0976 7.31658 13.7071 7.70711C13.3166 8.09763 12.6834 8.09763 12.2929 7.70711L7 2.41421L1.70711 7.70711C1.31658 8.09763 0.683417 8.09763 0.292893 7.70711C-0.0976311 7.31658 -0.0976311 6.68342 0.292893 6.29289L6.29289 0.292893Z"/>
    <!--      <path d="M13.3537 6.35375L8.35372 11.3538C8.30729 11.4002 8.25214 11.4371 8.19144 11.4623C8.13074 11.4874 8.06568 11.5004 7.99997 11.5004C7.93427 11.5004 7.8692 11.4874 7.8085 11.4623C7.7478 11.4371 7.69266 11.4002 7.64622 11.3538L2.64622 6.35375C2.5524 6.25993 2.49969 6.13269 2.49969 6C2.49969 5.86732 2.5524 5.74007 2.64622 5.64625C2.74004 5.55243 2.86729 5.49973 2.99997 5.49973C3.13265 5.49973 3.2599 5.55243 3.35372 5.64625L7.99997 10.2931L12.6462 5.64625C12.6927 5.5998 12.7478 5.56295 12.8085 5.53781C12.8692 5.51267 12.9343 5.49973 13 5.49973C13.0657 5.49973 13.1307 5.51267 13.1914 5.53781C13.2521 5.56295 13.3073 5.5998 13.3537 5.64625C13.4002 5.69271 13.437 5.74786 13.4622 5.80856C13.4873 5.86925 13.5003 5.93431 13.5003 6C13.5003 6.0657 13.4873 6.13076 13.4622 6.19145C13.437 6.25215 13.4002 6.3073 13.3537 6.35375Z"/>-->
    </symbol>
    <symbol id="arrow-down" viewBox="0 0 14 8" xmlns="http://www.w3.org/2000/svg">
        <path fill-rule="evenodd" clip-rule="evenodd" d="M6.29289 0.292893C6.68342 -0.0976311 7.31658 -0.0976311 7.70711 0.292893L13.7071 6.29289C14.0976 6.68342 14.0976 7.31658 13.7071 7.70711C13.3166 8.09763 12.6834 8.09763 12.2929 7.70711L7 2.41421L1.70711 7.70711C1.31658 8.09763 0.683417 8.09763 0.292893 7.70711C-0.0976311 7.31658 -0.0976311 6.68342 0.292893 6.29289L6.29289 0.292893Z"/>
    </symbol>
    <symbol id="search" viewBox="0 0 24 24" xmlns="http://www.w3.org/2000/svg">
        <path fill-rule="evenodd" clip-rule="evenodd" d="M11 4C7.13401 4 4 7.13401 4 11C4 14.866 7.13401 18 11 18C14.866 18 18 14.866 18 11C18 7.13401 14.866 4 11 4ZM2 11C2 6.02944 6.02944 2 11 2C15.9706 2 20 6.02944 20 11C20 15.9706 15.9706 20 11 20C6.02944 20 2 15.9706 2 11Z"/>
        <path fill-rule="evenodd" clip-rule="evenodd" d="M15.9429 15.9429C16.3334 15.5524 16.9666 15.5524 17.3571 15.9429L21.7071 20.2929C22.0976 20.6834 22.0976 21.3166 21.7071 21.7071C21.3166 22.0977 20.6834 22.0977 20.2929 21.7071L15.9429 17.3571C15.5524 16.9666 15.5524 16.3334 15.9429 15.9429Z"/>
    </symbol>

    <symbol id="trash-empty" viewBox="0 0 24 24" xmlns="http://www.w3.org/2000/svg">
        <path fill-rule="evenodd" clip-rule="evenodd" d="M2 6C2 5.44772 2.44772 5 3 5H21C21.5523 5 22 5.44772 22 6C22 6.55228 21.5523 7 21 7H3C2.44772 7 2 6.55228 2 6Z"/>
        <path fill-rule="evenodd" clip-rule="evenodd" d="M10 3C9.73478 3 9.48043 3.10536 9.29289 3.29289C9.10536 3.48043 9 3.73478 9 4V5H15V4C15 3.73478 14.8946 3.48043 14.7071 3.29289C14.5196 3.10536 14.2652 3 14 3H10ZM17 5V4C17 3.20435 16.6839 2.44129 16.1213 1.87868C15.5587 1.31607 14.7956 1 14 1H10C9.20435 1 8.44129 1.31607 7.87868 1.87868C7.31607 2.44129 7 3.20435 7 4V5H5C4.44772 5 4 5.44772 4 6V20C4 20.7957 4.31607 21.5587 4.87868 22.1213C5.44129 22.6839 6.20435 23 7 23H17C17.7957 23 18.5587 22.6839 19.1213 22.1213C19.6839 21.5587 20 20.7957 20 20V6C20 5.44772 19.5523 5 19 5H17ZM6 7V20C6 20.2652 6.10536 20.5196 6.29289 20.7071C6.48043 20.8946 6.73478 21 7 21H17C17.2652 21 17.5196 20.8946 17.7071 20.7071C17.8946 20.5196 18 20.2652 18 20V7H6Z"/>
    </symbol>
    <symbol id="trash-full" viewBox="0 0 24 24" xmlns="http://www.w3.org/2000/svg">
        <path fill-rule="evenodd" clip-rule="evenodd" d="M2 6C2 5.44772 2.44772 5 3 5H21C21.5523 5 22 5.44772 22 6C22 6.55228 21.5523 7 21 7H3C2.44772 7 2 6.55228 2 6Z"/>
        <path fill-rule="evenodd" clip-rule="evenodd" d="M10 3C9.73478 3 9.48043 3.10536 9.29289 3.29289C9.10536 3.48043 9 3.73478 9 4V5H15V4C15 3.73478 14.8946 3.48043 14.7071 3.29289C14.5196 3.10536 14.2652 3 14 3H10ZM17 5V4C17 3.20435 16.6839 2.44129 16.1213 1.87868C15.5587 1.31607 14.7956 1 14 1H10C9.20435 1 8.44129 1.31607 7.87868 1.87868C7.31607 2.44129 7 3.20435 7 4V5H5C4.44772 5 4 5.44772 4 6V20C4 20.7957 4.31607 21.5587 4.87868 22.1213C5.44129 22.6839 6.20435 23 7 23H17C17.7957 23 18.5587 22.6839 19.1213 22.1213C19.6839 21.5587 20 20.7957 20 20V6C20 5.44772 19.5523 5 19 5H17ZM6 7V20C6 20.2652 6.10536 20.5196 6.29289 20.7071C6.48043 20.8946 6.73478 21 7 21H17C17.2652 21 17.5196 20.8946 17.7071 20.7071C17.8946 20.5196 18 20.2652 18 20V7H6Z"/>
        <path fill-rule="evenodd" clip-rule="evenodd" d="M10 10C10.5523 10 11 10.4477 11 11V17C11 17.5523 10.5523 18 10 18C9.44772 18 9 17.5523 9 17V11C9 10.4477 9.44772 10 10 10Z"/>
        <path fill-rule="evenodd" clip-rule="evenodd" d="M14 10C14.5523 10 15 10.4477 15 11V17C15 17.5523 14.5523 18 14 18C13.4477 18 13 17.5523 13 17V11C13 10.4477 13.4477 10 14 10Z"/>
    </symbol>
    <symbol id="x-circle" viewBox="0 0 26 26" xmlns="http://www.w3.org/2000/svg">
        <path d="M17.7075 9.7075L14.4138 13L17.7075 16.2925C17.8004 16.3854 17.8741 16.4957 17.9244 16.6171C17.9747 16.7385 18.0006 16.8686 18.0006 17C18.0006 17.1314 17.9747 17.2615 17.9244 17.3829C17.8741 17.5043 17.8004 17.6146 17.7075 17.7075C17.6146 17.8004 17.5043 17.8741 17.3829 17.9244C17.2615 17.9747 17.1314 18.0006 17 18.0006C16.8686 18.0006 16.7385 17.9747 16.6171 17.9244C16.4957 17.8741 16.3854 17.8004 16.2925 17.7075L13 14.4137L9.70751 17.7075C9.6146 17.8004 9.5043 17.8741 9.3829 17.9244C9.26151 17.9747 9.1314 18.0006 9.00001 18.0006C8.86861 18.0006 8.7385 17.9747 8.61711 17.9244C8.49572 17.8741 8.38542 17.8004 8.29251 17.7075C8.1996 17.6146 8.12589 17.5043 8.07561 17.3829C8.02533 17.2615 7.99945 17.1314 7.99945 17C7.99945 16.8686 8.02533 16.7385 8.07561 16.6171C8.12589 16.4957 8.1996 16.3854 8.29251 16.2925L11.5863 13L8.29251 9.7075C8.10486 9.51986 7.99945 9.26536 7.99945 9C7.99945 8.73464 8.10486 8.48014 8.29251 8.2925C8.48015 8.10486 8.73464 7.99944 9.00001 7.99944C9.26537 7.99944 9.51987 8.10486 9.70751 8.2925L13 11.5863L16.2925 8.2925C16.3854 8.19959 16.4957 8.12589 16.6171 8.07561C16.7385 8.02532 16.8686 7.99944 17 7.99944C17.1314 7.99944 17.2615 8.02532 17.3829 8.07561C17.5043 8.12589 17.6146 8.19959 17.7075 8.2925C17.8004 8.38541 17.8741 8.49571 17.9244 8.6171C17.9747 8.7385 18.0006 8.86861 18.0006 9C18.0006 9.13139 17.9747 9.2615 17.9244 9.3829C17.8741 9.50429 17.8004 9.61459 17.7075 9.7075ZM26 13C26 15.5712 25.2376 18.0846 23.8091 20.2224C22.3807 22.3603 20.3503 24.0265 17.9749 25.0104C15.5995 25.9944 12.9856 26.2518 10.4638 25.7502C7.94208 25.2486 5.6257 24.0105 3.80762 22.1924C1.98953 20.3743 0.751405 18.0579 0.249797 15.5362C-0.251811 13.0144 0.0056327 10.4006 0.989572 8.02512C1.97351 5.64968 3.63975 3.61935 5.77759 2.1909C7.91543 0.762437 10.4288 0 13 0C16.4467 0.00363977 19.7512 1.37445 22.1884 3.81163C24.6256 6.24882 25.9964 9.5533 26 13ZM24 13C24 10.8244 23.3549 8.69767 22.1462 6.88873C20.9375 5.07979 19.2195 3.66989 17.2095 2.83733C15.1995 2.00476 12.9878 1.78692 10.854 2.21136C8.72022 2.6358 6.76021 3.68345 5.22183 5.22183C3.68345 6.7602 2.63581 8.72022 2.21137 10.854C1.78693 12.9878 2.00477 15.1995 2.83733 17.2095C3.66989 19.2195 5.07979 20.9375 6.88873 22.1462C8.69767 23.3549 10.8244 24 13 24C15.9164 23.9967 18.7123 22.8367 20.7745 20.7745C22.8367 18.7123 23.9967 15.9164 24 13Z" />
    </symbol>
    <symbol id="delete" viewBox="0 0 24 24" xmlns="http://www.w3.org/2000/svg">
        <path fill-rule="evenodd" clip-rule="evenodd" d="M7.24742 3.3415C7.43731 3.12448 7.71164 3 8 3H21C21.7957 3 22.5587 3.31607 23.1213 3.87868C23.6839 4.44129 24 5.20435 24 6V18C24 18.7957 23.6839 19.5587 23.1213 20.1213C22.5587 20.6839 21.7957 21 21 21H8C7.71164 21 7.43731 20.8755 7.24742 20.6585L0.247423 12.6585C-0.0824744 12.2815 -0.0824744 11.7185 0.247423 11.3415L7.24742 3.3415ZM8.45377 5L2.32877 12L8.45377 19H21C21.2652 19 21.5196 18.8946 21.7071 18.7071C21.8946 18.5196 22 18.2652 22 18V6C22 5.73478 21.8946 5.48043 21.7071 5.29289C21.5196 5.10536 21.2652 5 21 5H8.45377Z" />
        <path fill-rule="evenodd" clip-rule="evenodd" d="M18.7071 8.29289C19.0976 8.68342 19.0976 9.31658 18.7071 9.70711L12.7071 15.7071C12.3166 16.0976 11.6834 16.0976 11.2929 15.7071C10.9024 15.3166 10.9024 14.6834 11.2929 14.2929L17.2929 8.29289C17.6834 7.90237 18.3166 7.90237 18.7071 8.29289Z" />
        <path fill-rule="evenodd" clip-rule="evenodd" d="M11.2929 8.29289C11.6834 7.90237 12.3166 7.90237 12.7071 8.29289L18.7071 14.2929C19.0976 14.6834 19.0976 15.3166 18.7071 15.7071C18.3166 16.0976 17.6834 16.0976 17.2929 15.7071L11.2929 9.70711C10.9024 9.31658 10.9024 8.68342 11.2929 8.29289Z" />
    </symbol>
    <symbol id="qr-code" viewBox="0 0 22 22" xmlns="http://www.w3.org/2000/svg">
        <path d="M8 0H2C1.46957 0 0.960859 0.210714 0.585786 0.585786C0.210714 0.960859 0 1.46957 0 2V8C0 8.53043 0.210714 9.03914 0.585786 9.41421C0.960859 9.78929 1.46957 10 2 10H8C8.53043 10 9.03914 9.78929 9.41421 9.41421C9.78929 9.03914 10 8.53043 10 8V2C10 1.46957 9.78929 0.960859 9.41421 0.585786C9.03914 0.210714 8.53043 0 8 0ZM8 8H2V2H8V8ZM8 12H2C1.46957 12 0.960859 12.2107 0.585786 12.5858C0.210714 12.9609 0 13.4696 0 14V20C0 20.5304 0.210714 21.0391 0.585786 21.4142C0.960859 21.7893 1.46957 22 2 22H8C8.53043 22 9.03914 21.7893 9.41421 21.4142C9.78929 21.0391 10 20.5304 10 20V14C10 13.4696 9.78929 12.9609 9.41421 12.5858C9.03914 12.2107 8.53043 12 8 12ZM8 20H2V14H8V20ZM20 0H14C13.4696 0 12.9609 0.210714 12.5858 0.585786C12.2107 0.960859 12 1.46957 12 2V8C12 8.53043 12.2107 9.03914 12.5858 9.41421C12.9609 9.78929 13.4696 10 14 10H20C20.5304 10 21.0391 9.78929 21.4142 9.41421C21.7893 9.03914 22 8.53043 22 8V2C22 1.46957 21.7893 0.960859 21.4142 0.585786C21.0391 0.210714 20.5304 0 20 0ZM20 8H14V2H20V8ZM12 17V13C12 12.7348 12.1054 12.4804 12.2929 12.2929C12.4804 12.1054 12.7348 12 13 12C13.2652 12 13.5196 12.1054 13.7071 12.2929C13.8946 12.4804 14 12.7348 14 13V17C14 17.2652 13.8946 17.5196 13.7071 17.7071C13.5196 17.8946 13.2652 18 13 18C12.7348 18 12.4804 17.8946 12.2929 17.7071C12.1054 17.5196 12 17.2652 12 17ZM22 15C22 15.2652 21.8946 15.5196 21.7071 15.7071C21.5196 15.8946 21.2652 16 21 16H18V21C18 21.2652 17.8946 21.5196 17.7071 21.7071C17.5196 21.8946 17.2652 22 17 22H13C12.7348 22 12.4804 21.8946 12.2929 21.7071C12.1054 21.5196 12 21.2652 12 21C12 20.7348 12.1054 20.4804 12.2929 20.2929C12.4804 20.1054 12.7348 20 13 20H16V13C16 12.7348 16.1054 12.4804 16.2929 12.2929C16.4804 12.1054 16.7348 12 17 12C17.2652 12 17.5196 12.1054 17.7071 12.2929C17.8946 12.4804 18 12.7348 18 13V14H21C21.2652 14 21.5196 14.1054 21.7071 14.2929C21.8946 14.4804 22 14.7348 22 15ZM22 19V21C22 21.2652 21.8946 21.5196 21.7071 21.7071C21.5196 21.8946 21.2652 22 21 22C20.7348 22 20.4804 21.8946 20.2929 21.7071C20.1054 21.5196 20 21.2652 20 21V19C20 18.7348 20.1054 18.4804 20.2929 18.2929C20.4804 18.1054 20.7348 18 21 18C21.2652 18 21.5196 18.1054 21.7071 18.2929C21.8946 18.4804 22 18.7348 22 19Z" />
    </symbol>
    <symbol id="copy" viewBox="0 0 26 26" xmlns="http://www.w3.org/2000/svg">
        <path fill-rule="evenodd" clip-rule="evenodd" d="M14.0833 10.8333C14.6816 10.8333 15.1667 11.3183 15.1667 11.9167V21.6667C15.1667 22.265 14.6816 22.75 14.0833 22.75H4.33333C3.73502 22.75 3.25 22.265 3.25 21.6667V11.9167C3.25 11.3183 3.73502 10.8333 4.33333 10.8333H14.0833ZM17.3333 11.9167C17.3333 10.1217 15.8783 8.66666 14.0833 8.66666H4.33333C2.53841 8.66666 1.08333 10.1217 1.08333 11.9167V21.6667C1.08333 23.4616 2.53841 24.9167 4.33333 24.9167H14.0833C15.8783 24.9167 17.3333 23.4616 17.3333 21.6667V11.9167Z" />
        <path fill-rule="evenodd" clip-rule="evenodd" d="M21.6667 3.25001C21.954 3.25001 22.2295 3.36415 22.4327 3.56731C22.6359 3.77048 22.75 4.04603 22.75 4.33334V14.0833C22.75 14.3707 22.6359 14.6462 22.4327 14.8494C22.2295 15.0525 21.954 15.1667 21.6667 15.1667H20.5833C19.985 15.1667 19.5 15.6517 19.5 16.25C19.5 16.8483 19.985 17.3333 20.5833 17.3333H21.6667C22.5286 17.3333 23.3553 16.9909 23.9648 16.3814C24.5743 15.7719 24.9167 14.9453 24.9167 14.0833V4.33334C24.9167 3.47139 24.5743 2.64474 23.9648 2.03525C23.3553 1.42575 22.5286 1.08334 21.6667 1.08334H11.9167C11.0547 1.08334 10.2281 1.42575 9.61857 2.03525C9.00908 2.64474 8.66667 3.47139 8.66667 4.33334V5.41668C8.66667 6.01499 9.15169 6.50001 9.75 6.50001C10.3483 6.50001 10.8333 6.01499 10.8333 5.41668V4.33334C10.8333 4.04603 10.9475 3.77048 11.1506 3.56731C11.3538 3.36415 11.6293 3.25001 11.9167 3.25001H21.6667Z" />
    </symbol>
    <symbol id="edit" viewBox="0 0 26 26" xmlns="http://www.w3.org/2000/svg">
        <path fill-rule="evenodd" clip-rule="evenodd" d="M4.33334 5.41667C4.04602 5.41667 3.77047 5.5308 3.5673 5.73397C3.36414 5.93713 3.25 6.21268 3.25 6.5V21.6667C3.25 21.954 3.36414 22.2295 3.5673 22.4327C3.77047 22.6359 4.04602 22.75 4.33334 22.75H19.5C19.7873 22.75 20.0629 22.6359 20.266 22.4327C20.4692 22.2295 20.5833 21.954 20.5833 21.6667V15.8817C20.5833 15.2834 21.0684 14.7983 21.6667 14.7983C22.265 14.7983 22.75 15.2834 22.75 15.8817V21.6667C22.75 22.5286 22.4076 23.3553 21.7981 23.9648C21.1886 24.5743 20.362 24.9167 19.5 24.9167H4.33334C3.47138 24.9167 2.64473 24.5743 2.03524 23.9648C1.42575 23.3553 1.08334 22.5286 1.08334 21.6667V6.5C1.08334 5.63805 1.42575 4.8114 2.03524 4.2019C2.64473 3.59241 3.47138 3.25 4.33334 3.25H10.1183C10.7166 3.25 11.2017 3.73502 11.2017 4.33333C11.2017 4.93164 10.7166 5.41667 10.1183 5.41667H4.33334Z" />
        <path fill-rule="evenodd" clip-rule="evenodd" d="M18.734 1.40064C19.157 0.977576 19.843 0.977576 20.266 1.40064L24.5994 5.73398C25.0224 6.15705 25.0224 6.84297 24.5994 7.26604L13.766 18.0994C13.5629 18.3025 13.2873 18.4167 13 18.4167H8.66667C8.06836 18.4167 7.58334 17.9317 7.58334 17.3333V13C7.58334 12.7127 7.69747 12.4371 7.90064 12.234L18.734 1.40064ZM9.75 13.4487V16.25H12.5513L22.3013 6.50001L19.5 3.69874L9.75 13.4487Z" />
    </symbol>
    <symbol id="crosshair" viewBox="0 0 32 32" xmlns="http://www.w3.org/2000/svg">
        <path d="M29 15H27.9575C27.7175 12.1743 26.486 9.5245 24.4808 7.51924C22.4755 5.51398 19.8257 4.28247 17 4.0425V3C17 2.73478 16.8946 2.48043 16.7071 2.29289C16.5196 2.10536 16.2652 2 16 2C15.7348 2 15.4804 2.10536 15.2929 2.29289C15.1054 2.48043 15 2.73478 15 3V4.0425C12.1743 4.28247 9.5245 5.51398 7.51924 7.51924C5.51398 9.5245 4.28247 12.1743 4.0425 15H3C2.73478 15 2.48043 15.1054 2.29289 15.2929C2.10536 15.4804 2 15.7348 2 16C2 16.2652 2.10536 16.5196 2.29289 16.7071C2.48043 16.8946 2.73478 17 3 17H4.0425C4.28247 19.8257 5.51398 22.4755 7.51924 24.4808C9.5245 26.486 12.1743 27.7175 15 27.9575V29C15 29.2652 15.1054 29.5196 15.2929 29.7071C15.4804 29.8946 15.7348 30 16 30C16.2652 30 16.5196 29.8946 16.7071 29.7071C16.8946 29.5196 17 29.2652 17 29V27.9575C19.8257 27.7175 22.4755 26.486 24.4808 24.4808C26.486 22.4755 27.7175 19.8257 27.9575 17H29C29.2652 17 29.5196 16.8946 29.7071 16.7071C29.8946 16.5196 30 16.2652 30 16C30 15.7348 29.8946 15.4804 29.7071 15.2929C29.5196 15.1054 29.2652 15 29 15ZM17 25.95V25C17 24.7348 16.8946 24.4804 16.7071 24.2929C16.5196 24.1054 16.2652 24 16 24C15.7348 24 15.4804 24.1054 15.2929 24.2929C15.1054 24.4804 15 24.7348 15 25V25.95C12.7061 25.7159 10.5631 24.6978 8.93267 23.0673C7.30221 21.4369 6.28406 19.2939 6.05 17H7C7.26522 17 7.51957 16.8946 7.70711 16.7071C7.89464 16.5196 8 16.2652 8 16C8 15.7348 7.89464 15.4804 7.70711 15.2929C7.51957 15.1054 7.26522 15 7 15H6.05C6.28406 12.7061 7.30221 10.5631 8.93267 8.93267C10.5631 7.30221 12.7061 6.28406 15 6.05V7C15 7.26522 15.1054 7.51957 15.2929 7.70711C15.4804 7.89464 15.7348 8 16 8C16.2652 8 16.5196 7.89464 16.7071 7.70711C16.8946 7.51957 17 7.26522 17 7V6.05C19.2939 6.28406 21.4369 7.30221 23.0673 8.93267C24.6978 10.5631 25.7159 12.7061 25.95 15H25C24.7348 15 24.4804 15.1054 24.2929 15.2929C24.1054 15.4804 24 15.7348 24 16C24 16.2652 24.1054 16.5196 24.2929 16.7071C24.4804 16.8946 24.7348 17 25 17H25.95C25.7159 19.2939 24.6978 21.4369 23.0673 23.0673C21.4369 24.6978 19.2939 25.7159 17 25.95ZM16 11C15.0111 11 14.0444 11.2932 13.2221 11.8427C12.3999 12.3921 11.759 13.173 11.3806 14.0866C11.0022 15.0002 10.9031 16.0055 11.0961 16.9755C11.289 17.9454 11.7652 18.8363 12.4645 19.5355C13.1637 20.2348 14.0546 20.711 15.0245 20.9039C15.9945 21.0969 16.9998 20.9978 17.9134 20.6194C18.827 20.241 19.6079 19.6001 20.1573 18.7779C20.7068 17.9556 21 16.9889 21 16C21 14.6739 20.4732 13.4021 19.5355 12.4645C18.5979 11.5268 17.3261 11 16 11ZM16 19C15.4067 19 14.8266 18.8241 14.3333 18.4944C13.8399 18.1648 13.4554 17.6962 13.2284 17.1481C13.0013 16.5999 12.9419 15.9967 13.0576 15.4147C13.1734 14.8328 13.4591 14.2982 13.8787 13.8787C14.2982 13.4591 14.8328 13.1734 15.4147 13.0576C15.9967 12.9419 16.5999 13.0013 17.1481 13.2284C17.6962 13.4554 18.1648 13.8399 18.4944 14.3333C18.8241 14.8266 19 15.4067 19 16C19 16.7956 18.6839 17.5587 18.1213 18.1213C17.5587 18.6839 16.7956 19 16 19Z"/>
    </symbol>
    <symbol id="pencil" viewBox="0 0 32 32" xmlns="http://www.w3.org/2000/svg">
        <path d="M28.415 9.17119L22.8288 3.58619C22.643 3.40043 22.4225 3.25307 22.1799 3.15253C21.9372 3.05199 21.6771 3.00024 21.4144 3.00024C21.1517 3.00024 20.8916 3.05199 20.6489 3.15253C20.4062 3.25307 20.1857 3.40043 20 3.58619L4.58626 18.9999C4.39973 19.185 4.25185 19.4053 4.15121 19.648C4.05057 19.8907 3.99917 20.151 4.00001 20.4137V25.9999C4.00001 26.5304 4.21072 27.0391 4.5858 27.4142C4.96087 27.7892 5.46958 27.9999 6.00001 27.9999H27C27.2652 27.9999 27.5196 27.8946 27.7071 27.7071C27.8947 27.5195 28 27.2652 28 26.9999C28 26.7347 27.8947 26.4804 27.7071 26.2928C27.5196 26.1053 27.2652 25.9999 27 25.9999H14.415L28.415 11.9999C28.6008 11.8142 28.7481 11.5937 28.8487 11.351C28.9492 11.1084 29.001 10.8482 29.001 10.5856C29.001 10.3229 28.9492 10.0628 28.8487 9.82009C28.7481 9.57741 28.6008 9.35692 28.415 9.17119ZM11.5863 25.9999H6.00001V20.4137L17 9.41369L22.5863 14.9999L11.5863 25.9999ZM24 13.5862L18.415 7.99994L21.415 4.99994L27 10.5862L24 13.5862Z" />
    </symbol>
    <symbol id="check" viewBox="0 0 20 20" xmlns="http://www.w3.org/2000/svg">
        <path fill-rule="evenodd" clip-rule="evenodd" d="M17.2559 4.41073C17.5814 4.73617 17.5814 5.26381 17.2559 5.58925L8.08926 14.7559C7.76382 15.0813 7.23618 15.0813 6.91074 14.7559L2.74408 10.5892C2.41864 10.2638 2.41864 9.73617 2.74408 9.41073C3.06951 9.0853 3.59715 9.0853 3.92259 9.41073L7.5 12.9881L16.0774 4.41073C16.4028 4.0853 16.9305 4.0853 17.2559 4.41073Z" />
    </symbol>
    <symbol id="cancel" viewBox="0 0 20 20" xmlns="http://www.w3.org/2000/svg">
        <path fill-rule="evenodd" clip-rule="evenodd" d="M18.7071 5.29289C19.0976 5.68342 19.0976 6.31658 18.7071 6.70711L6.70711 18.7071C6.31658 19.0976 5.68342 19.0976 5.29289 18.7071C4.90237 18.3166 4.90237 17.6834 5.29289 17.2929L17.2929 5.29289C17.6834 4.90237 18.3166 4.90237 18.7071 5.29289Z"/>
        <path fill-rule="evenodd" clip-rule="evenodd" d="M5.29289 5.29289C5.68342 4.90237 6.31658 4.90237 6.70711 5.29289L18.7071 17.2929C19.0976 17.6834 19.0976 18.3166 18.7071 18.7071C18.3166 19.0976 17.6834 19.0976 17.2929 18.7071L5.29289 6.70711C4.90237 6.31658 4.90237 5.68342 5.29289 5.29289Z"/>
    </symbol>
    <symbol id="collapse-arrow-up" viewBox="0 0 26 20" xmlns="http://www.w3.org/2000/svg">
        <path d="M25.7075 7.70755C25.6146 7.80053 25.5043 7.87429 25.3829 7.92461C25.2615 7.97494 25.1314 8.00084 25 8.00084C24.8686 8.00084 24.7385 7.97494 24.6171 7.92461C24.4957 7.87429 24.3854 7.80053 24.2925 7.70755L20 3.4138V19.0001C20 19.2653 19.8946 19.5196 19.7071 19.7072C19.5196 19.8947 19.2652 20.0001 19 20.0001H1C0.734784 20.0001 0.48043 19.8947 0.292893 19.7072C0.105357 19.5196 0 19.2653 0 19.0001C0 18.7348 0.105357 18.4805 0.292893 18.2929C0.48043 18.1054 0.734784 18.0001 1 18.0001H18V3.4138L13.7075 7.70755C13.5199 7.8952 13.2654 8.00061 13 8.00061C12.7346 8.00061 12.4801 7.8952 12.2925 7.70755C12.1049 7.51991 11.9994 7.26542 11.9994 7.00005C11.9994 6.73469 12.1049 6.48019 12.2925 6.29255L18.2925 0.292554C18.3854 0.199578 18.4957 0.125819 18.6171 0.0754948C18.7385 0.0251705 18.8686 -0.000732422 19 -0.000732422C19.1314 -0.000732422 19.2615 0.0251705 19.3829 0.0754948C19.5043 0.125819 19.6146 0.199578 19.7075 0.292554L25.7075 6.29255C25.8005 6.38543 25.8742 6.49572 25.9246 6.61711C25.9749 6.73851 26.0008 6.86864 26.0008 7.00005C26.0008 7.13147 25.9749 7.2616 25.9246 7.38299C25.8742 7.50439 25.8005 7.61468 25.7075 7.70755Z" />
    </symbol>
    <symbol id="collapse-arrow-down" viewBox="0 0 26 20" xmlns="http://www.w3.org/2000/svg">
        <path d="M25.7075 13.7075L19.7075 19.7075C19.6146 19.8005 19.5043 19.8742 19.3829 19.9246C19.2615 19.9749 19.1314 20.0008 19 20.0008C18.8686 20.0008 18.7385 19.9749 18.6171 19.9246C18.4957 19.8742 18.3854 19.8005 18.2925 19.7075L12.2925 13.7075C12.1049 13.5199 11.9994 13.2654 11.9994 13C11.9994 12.7346 12.1049 12.4801 12.2925 12.2925C12.4801 12.1049 12.7346 11.9994 13 11.9994C13.2654 11.9994 13.5199 12.1049 13.7075 12.2925L18 16.5863V2H1C0.734784 2 0.48043 1.89464 0.292893 1.70711C0.105357 1.51957 0 1.26522 0 1C0 0.734784 0.105357 0.48043 0.292893 0.292893C0.48043 0.105357 0.734784 0 1 0H19C19.2652 0 19.5196 0.105357 19.7071 0.292893C19.8946 0.48043 20 0.734784 20 1V16.5863L24.2925 12.2925C24.4801 12.1049 24.7346 11.9994 25 11.9994C25.2654 11.9994 25.5199 12.1049 25.7075 12.2925C25.8951 12.4801 26.0006 12.7346 26.0006 13C26.0006 13.2654 25.8951 13.5199 25.7075 13.7075Z" />
    </symbol>

  <symbol id="phone" viewBox="0 0 20 20" xmlns="http://www.w3.org/2000/svg">
    <path d="M17.3727 12.3797L13.6922 10.7305L13.682 10.7258C13.491 10.6441 13.2825 10.6113 13.0756 10.6304C12.8687 10.6495 12.6698 10.7198 12.4969 10.8352C12.4765 10.8486 12.457 10.8632 12.4383 10.8789L10.5367 12.5C9.33204 11.9148 8.08829 10.6805 7.50313 9.4914L9.12657 7.56093C9.14219 7.5414 9.15704 7.52187 9.1711 7.50078C9.28394 7.32836 9.35239 7.13071 9.37039 6.92544C9.38838 6.72017 9.35534 6.51363 9.27423 6.32421V6.31484L7.62032 2.62812C7.51309 2.38067 7.3287 2.17454 7.09468 2.04049C6.86067 1.90645 6.58958 1.85168 6.32188 1.88437C5.26326 2.02367 4.29155 2.54356 3.58824 3.34694C2.88492 4.15032 2.49809 5.18225 2.50001 6.24999C2.50001 12.4531 7.54688 17.5 13.75 17.5C14.8177 17.5019 15.8497 17.1151 16.6531 16.4118C17.4564 15.7084 17.9763 14.7367 18.1156 13.6781C18.1484 13.4105 18.0937 13.1395 17.9598 12.9055C17.8259 12.6715 17.62 12.487 17.3727 12.3797ZM13.75 16.25C11.0987 16.2471 8.55687 15.1926 6.68214 13.3179C4.8074 11.4431 3.7529 8.90127 3.75001 6.24999C3.74707 5.4871 4.02192 4.74921 4.52324 4.17414C5.02456 3.59907 5.71806 3.22614 6.47423 3.12499C6.47392 3.12811 6.47392 3.13125 6.47423 3.13437L8.11485 6.80624L6.50001 8.73906C6.48362 8.75792 6.46873 8.77803 6.45548 8.79921C6.33791 8.97962 6.26894 9.18733 6.25525 9.40223C6.24157 9.61713 6.28362 9.83191 6.37735 10.0258C7.08516 11.4734 8.54376 12.9211 10.007 13.6281C10.2023 13.721 10.4184 13.7616 10.634 13.746C10.8497 13.7304 11.0576 13.6591 11.2375 13.5391C11.2576 13.5255 11.2769 13.5109 11.2953 13.4953L13.1945 11.875L16.8664 13.5195C16.8664 13.5195 16.8727 13.5195 16.875 13.5195C16.7751 14.2768 16.4027 14.9717 15.8275 15.4742C15.2524 15.9768 14.5138 16.2526 13.75 16.25Z" />
  </symbol>
  <symbol id="messenger" viewBox="0 0 20 20" xmlns="http://www.w3.org/2000/svg">
    <path d="M13.125 8.75C13.125 8.91576 13.0592 9.07473 12.9419 9.19194C12.8247 9.30915 12.6658 9.375 12.5 9.375H7.5C7.33424 9.375 7.17527 9.30915 7.05806 9.19194C6.94085 9.07473 6.875 8.91576 6.875 8.75C6.875 8.58424 6.94085 8.42527 7.05806 8.30806C7.17527 8.19085 7.33424 8.125 7.5 8.125H12.5C12.6658 8.125 12.8247 8.19085 12.9419 8.30806C13.0592 8.42527 13.125 8.58424 13.125 8.75ZM12.5 10.625H7.5C7.33424 10.625 7.17527 10.6908 7.05806 10.8081C6.94085 10.9253 6.875 11.0842 6.875 11.25C6.875 11.4158 6.94085 11.5747 7.05806 11.6919C7.17527 11.8092 7.33424 11.875 7.5 11.875H12.5C12.6658 11.875 12.8247 11.8092 12.9419 11.6919C13.0592 11.5747 13.125 11.4158 13.125 11.25C13.125 11.0842 13.0592 10.9253 12.9419 10.8081C12.8247 10.6908 12.6658 10.625 12.5 10.625ZM18.125 9.6875C18.1227 11.7588 17.2989 13.7446 15.8343 15.2093C14.3696 16.6739 12.3838 17.4977 10.3125 17.5H3.72422C3.39966 17.4996 3.08852 17.3705 2.85902 17.141C2.62953 16.9115 2.50041 16.6003 2.5 16.2758V9.6875C2.5 7.6155 3.3231 5.62836 4.78823 4.16323C6.25336 2.6981 8.2405 1.875 10.3125 1.875C12.3845 1.875 14.3716 2.6981 15.8368 4.16323C17.3019 5.62836 18.125 7.6155 18.125 9.6875ZM16.875 9.6875C16.875 7.94702 16.1836 6.27782 14.9529 5.04711C13.7222 3.8164 12.053 3.125 10.3125 3.125C8.57202 3.125 6.90282 3.8164 5.67211 5.04711C4.4414 6.27782 3.75 7.94702 3.75 9.6875V16.25H10.3125C12.0524 16.2481 13.7205 15.5561 14.9508 14.3258C16.1811 13.0955 16.8731 11.4274 16.875 9.6875Z" />
  </symbol>

  <symbol id="city" viewBox="0 0 512 512" xmlns="http://www.w3.org/2000/svg">
        <rect x="222.563" y="210.892" style="fill:#0F8EE3;" width="134.792" height="268.194"/>
        <rect x="357.355" y="126.955" style="fill:#FFAE18;" width="125.388" height="352.131"/>
        <rect x="32.392" y="32.914" style="fill:#DEDDE1;" width="190.171" height="446.171"/>
        <g>
            <rect x="72.62" y="69.486" style="fill:#918FA9;" width="36.571" height="57.469"/>
            <rect x="145.763" y="69.486" style="fill:#918FA9;" width="36.571" height="57.469"/>
            <rect x="72.62" y="171.886" style="fill:#918FA9;" width="36.571" height="57.469"/>
            <rect x="145.763" y="171.886" style="fill:#918FA9;" width="36.571" height="57.469"/>
            <rect x="72.62" y="274.286" style="fill:#918FA9;" width="36.571" height="57.469"/>
            <rect x="145.763" y="274.286" style="fill:#918FA9;" width="36.571" height="57.469"/>
            <rect x="72.62" y="376.686" style="fill:#918FA9;" width="36.571" height="57.469"/>
            <rect x="145.763" y="376.686" style="fill:#918FA9;" width="36.571" height="57.469"/>
        </g>
        <path d="M109.192,59.037H72.62c-5.771,0-10.449,4.678-10.449,10.449v57.469c0,5.771,4.678,10.449,10.449,10.449h36.571
	c5.771,0,10.449-4.678,10.449-10.449V69.486C119.641,63.715,114.963,59.037,109.192,59.037z M98.743,116.506H83.069V79.935h15.673
	V116.506z"/>
        <path d="M182.335,59.037h-36.571c-5.771,0-10.449,4.678-10.449,10.449v57.469c0,5.771,4.678,10.449,10.449,10.449h36.571
	c5.771,0,10.449-4.678,10.449-10.449V69.486C192.784,63.715,188.106,59.037,182.335,59.037z M171.886,116.506h-15.673V79.935h15.673
	V116.506z"/>
        <path d="M109.192,161.437H72.62c-5.771,0-10.449,4.678-10.449,10.449v57.469c0,5.771,4.678,10.449,10.449,10.449h36.571
	c5.771,0,10.449-4.678,10.449-10.449v-57.469C119.641,166.115,114.963,161.437,109.192,161.437z M98.743,218.906H83.069v-36.571
	h15.673V218.906z"/>
        <path d="M182.335,161.437h-36.571c-5.771,0-10.449,4.678-10.449,10.449v57.469c0,5.771,4.678,10.449,10.449,10.449h36.571
	c5.771,0,10.449-4.678,10.449-10.449v-57.469C192.784,166.115,188.106,161.437,182.335,161.437z M171.886,218.906h-15.673v-36.571
	h15.673V218.906z"/>
        <path d="M109.192,263.837H72.62c-5.771,0-10.449,4.678-10.449,10.449v57.469c0,5.771,4.678,10.449,10.449,10.449h36.571
	c5.771,0,10.449-4.678,10.449-10.449v-57.469C119.641,268.515,114.963,263.837,109.192,263.837z M98.743,321.306H83.069v-36.571
	h15.673V321.306z"/>
        <path d="M182.335,263.837h-36.571c-5.771,0-10.449,4.678-10.449,10.449v57.469c0,5.771,4.678,10.449,10.449,10.449h36.571
	c5.771,0,10.449-4.678,10.449-10.449v-57.469C192.784,268.515,188.106,263.837,182.335,263.837z M171.886,321.306h-15.673v-36.571
	h15.673V321.306z"/>
        <path d="M109.192,366.237H72.62c-5.771,0-10.449,4.678-10.449,10.449v57.469c0,5.771,4.678,10.449,10.449,10.449h36.571
	c5.771,0,10.449-4.678,10.449-10.449v-57.469C119.641,370.915,114.963,366.237,109.192,366.237z M98.743,423.706H83.069v-36.571
	h15.673V423.706z"/>
        <path d="M182.335,366.237h-36.571c-5.771,0-10.449,4.678-10.449,10.449v57.469c0,5.771,4.678,10.449,10.449,10.449h36.571
	c5.771,0,10.449-4.678,10.449-10.449v-57.469C192.784,370.915,188.106,366.237,182.335,366.237z M171.886,423.706h-15.673v-36.571
	h15.673V423.706z"/>
        <path d="M328.719,417.785h-0.137c-5.771,0-10.449,4.678-10.449,10.449c0,5.771,4.678,10.449,10.449,10.449h0.137
	c5.771,0,10.449-4.678,10.449-10.449C339.168,422.463,334.49,417.785,328.719,417.785z"/>
        <path d="M328.719,236.669h-0.137c-5.771,0-10.449,4.678-10.449,10.449s4.678,10.449,10.449,10.449h0.137
	c5.771,0,10.449-4.678,10.449-10.449S334.49,236.669,328.719,236.669z"/>
        <path d="M328.719,272.893h-0.137c-5.771,0-10.449,4.678-10.449,10.449c0,5.771,4.678,10.449,10.449,10.449h0.137
	c5.771,0,10.449-4.678,10.449-10.449C339.168,277.571,334.49,272.893,328.719,272.893z"/>
        <path d="M328.719,309.115h-0.137c-5.771,0-10.449,4.678-10.449,10.449c0,5.771,4.678,10.449,10.449,10.449h0.137
	c5.771,0,10.449-4.678,10.449-10.449C339.168,313.793,334.49,309.115,328.719,309.115z"/>
        <path d="M328.719,345.339h-0.137c-5.771,0-10.449,4.678-10.449,10.449c0,5.771,4.678,10.449,10.449,10.449h0.137
	c5.771,0,10.449-4.678,10.449-10.449C339.168,350.017,334.49,345.339,328.719,345.339z"/>
        <path d="M328.719,381.562h-0.137c-5.771,0-10.449,4.678-10.449,10.449c0,5.771,4.678,10.449,10.449,10.449h0.137
	c5.771,0,10.449-4.678,10.449-10.449C339.168,386.24,334.49,381.562,328.719,381.562z"/>
        <path d="M501.551,468.637h-8.359V126.955c0-5.771-4.678-10.449-10.449-10.449H357.355c-5.771,0-10.449,4.678-10.449,10.449v73.491
	H233.012V32.914c0-5.771-4.678-10.449-10.449-10.449H32.392c-5.771,0-10.449,4.678-10.449,10.449v435.722H10.449
	C4.678,468.637,0,473.315,0,479.086s4.678,10.449,10.449,10.449h472.294h18.808c5.771,0,10.449-4.678,10.449-10.449
	S507.322,468.637,501.551,468.637z M430.498,137.404h10.449v331.233h-10.449V137.404z M409.6,468.637h-10.449V137.404H409.6V468.637
	z M42.841,43.363h169.273v167.532v257.742H42.841V43.363z M233.012,438.683h61.765c5.771,0,10.449-4.678,10.449-10.449
	c0-5.771-4.678-10.449-10.449-10.449h-61.765v-15.326h61.765c5.771,0,10.449-4.678,10.449-10.449
	c0-5.771-4.678-10.449-10.449-10.449h-61.765v-15.324h61.765c5.771,0,10.449-4.678,10.449-10.449
	c0-5.771-4.678-10.449-10.449-10.449h-61.765v-15.326h61.765c5.771,0,10.449-4.678,10.449-10.449
	c0-5.771-4.678-10.449-10.449-10.449h-61.765V293.79h61.765c5.771,0,10.449-4.678,10.449-10.449c0-5.771-4.678-10.449-10.449-10.449
	h-61.765v-15.324h61.765c5.771,0,10.449-4.678,10.449-10.449s-4.678-10.449-10.449-10.449h-61.765v-15.326h113.894v247.293H233.012
	V438.683z M367.804,210.895v-73.491h10.449v331.233h-10.449V210.895z M461.845,468.637V137.404h10.449v331.233H461.845z"/>
    </symbol>

    <symbol id="town" viewBox="0 0 512 512" xmlns="http://www.w3.org/2000/svg">
        <rect x="10.449" y="89.903" style="fill:#0F8EE3;" width="148.376" height="411.648"/>
        <polygon style="fill:#003A7F;" points="438.849,313.469 438.849,48.065 286.313,48.065 286.313,179.722 338.547,179.722
	338.547,313.469 "/>
        <polygon style="fill:#C2EDFF;" points="338.547,309.381 338.547,179.722 158.824,179.722 158.824,501.551 338.547,501.551 "/>
        <g>
            <rect x="190.182" y="207.956" style="fill:#0F8EE3;" width="117.008" height="29.235"/>
            <rect x="190.182" y="272.98" style="fill:#0F8EE3;" width="117.008" height="29.235"/>
            <rect x="190.182" y="338.004" style="fill:#0F8EE3;" width="117.008" height="29.235"/>
            <rect x="190.182" y="403.028" style="fill:#0F8EE3;" width="117.008" height="29.235"/>
        </g>
        <rect x="288.392" y="313.469" style="fill:#FFFFFF;" width="213.159" height="188.082"/>
        <g>
            <rect x="322.842" y="352.193" style="fill:#0F8EE3;" width="55.227" height="59.494"/>
            <rect x="421.648" y="352.193" style="fill:#0F8EE3;" width="55.227" height="59.494"/>
            <rect x="322.842" y="448.324" style="fill:#0F8EE3;" width="55.227" height="53.225"/>
            <rect x="421.648" y="448.324" style="fill:#0F8EE3;" width="55.227" height="53.225"/>
        </g>
        <path d="M501.551,303.02h-52.253V48.065c0-5.771-4.679-10.449-10.449-10.449H373.03V10.449C373.03,4.678,368.351,0,362.581,0
	s-10.449,4.678-10.449,10.449v27.167h-65.818c-5.77,0-10.449,4.678-10.449,10.449v121.208H169.273V89.905
	c0-5.771-4.679-10.449-10.449-10.449H10.449C4.679,79.456,0,84.134,0,89.905v411.646C0,507.322,4.679,512,10.449,512h491.102
	c5.77,0,10.449-4.678,10.449-10.449V313.469C512,307.698,507.321,303.02,501.551,303.02z M296.762,58.514H428.4V303.02h-79.404
	V179.722c0-5.771-4.679-10.449-10.449-10.449h-41.784V58.514z M20.898,477.518h57.321c5.77,0,10.449-4.678,10.449-10.449
	c0-5.771-4.679-10.449-10.449-10.449H20.898v-25.962h57.321c5.77,0,10.449-4.678,10.449-10.449c0-5.771-4.679-10.449-10.449-10.449
	H20.898v-25.962h57.321c5.77,0,10.449-4.678,10.449-10.449c0-5.771-4.679-10.449-10.449-10.449H20.898V336.94h57.321
	c5.77,0,10.449-4.678,10.449-10.449c0-5.771-4.679-10.449-10.449-10.449H20.898V290.08h57.321c5.77,0,10.449-4.678,10.449-10.449
	c0-5.771-4.679-10.449-10.449-10.449H20.898v-25.961h57.321c5.77,0,10.449-4.678,10.449-10.449s-4.679-10.449-10.449-10.449H20.898
	v-25.962h57.321c5.77,0,10.449-4.678,10.449-10.449s-4.679-10.449-10.449-10.449H20.898v-25.962h57.321
	c5.77,0,10.449-4.678,10.449-10.449s-4.679-10.449-10.449-10.449H20.898v-28.25h127.478v79.368v311.38H20.898V477.518z
	 M169.273,190.171h158.824V303.02h-39.706c-5.77,0-10.449,4.678-10.449,10.449v14.661h-87.76c-5.77,0-10.449,4.678-10.449,10.449
	v29.235c0,5.771,4.679,10.449,10.449,10.449h87.76v14.53h-87.544c-5.77,0-10.449,4.678-10.449,10.449v29.235
	c0,5.771,4.679,10.449,10.449,10.449h87.544v48.175H169.273V190.171z M277.943,357.366h-77.311v-8.337h77.311V357.366z
	 M277.943,422.03h-77.095v-8.337h77.095V422.03z M333.29,491.102v-35.437h35.57v35.437h-30.314H333.29z M467.047,491.102h-35.57
	v-35.437h35.57V491.102z M491.102,491.102h-3.157v-45.886c0-5.771-4.679-10.449-10.449-10.449h-56.468
	c-5.77,0-10.449,4.678-10.449,10.449v45.886h-20.822v-45.886c0-5.771-4.679-10.449-10.449-10.449H322.84
	c-5.77,0-10.449,4.678-10.449,10.449v45.886h-13.55V323.918h192.261V491.102z"/>
        <path d="M379.309,341.747h-56.468c-5.77,0-10.449,4.678-10.449,10.449v56.511c0,5.771,4.679,10.449,10.449,10.449
	s10.449-4.678,10.449-10.449v-46.062h35.57v11.609c0,5.771,4.679,10.449,10.449,10.449s10.449-4.678,10.449-10.449v-22.058
	C389.758,346.425,385.079,341.747,379.309,341.747z"/>
        <path d="M378.068,397.967c-5.77,0-10.449,4.678-10.449,10.449v0.292c0,5.771,4.679,10.449,10.449,10.449s10.449-4.678,10.449-10.449
	v-0.292C388.517,402.645,383.839,397.967,378.068,397.967z"/>
        <path d="M410.58,352.196v56.511c0,5.771,4.679,10.449,10.449,10.449s10.449-4.678,10.449-10.449v-46.062h35.57v11.609
	c0,5.771,4.679,10.449,10.449,10.449s10.449-4.678,10.449-10.449v-22.058c0-5.771-4.679-10.449-10.449-10.449h-56.468
	C415.258,341.747,410.58,346.425,410.58,352.196z"/>
        <path d="M476.256,397.967c-5.77,0-10.449,4.678-10.449,10.449v0.292c0,5.771,4.679,10.449,10.449,10.449s10.449-4.678,10.449-10.449
	v-0.292C486.705,402.645,482.026,397.967,476.256,397.967z"/>
        <path d="M326.009,88.303c-5.77,0-10.449,4.678-10.449,10.449v16.718c0,5.771,4.679,10.449,10.449,10.449
	c5.77,0,10.449-4.678,10.449-10.449V98.752C336.458,92.981,331.779,88.303,326.009,88.303z"/>
        <path d="M362.581,125.92c5.77,0,10.449-4.678,10.449-10.449V98.752c0-5.771-4.679-10.449-10.449-10.449s-10.449,4.678-10.449,10.449
	v16.718C352.132,121.242,356.811,125.92,362.581,125.92z"/>
        <path d="M399.152,125.92c5.77,0,10.449-4.678,10.449-10.449V98.752c0-5.771-4.679-10.449-10.449-10.449
	c-5.77,0-10.449,4.678-10.449,10.449v16.718C388.703,121.242,393.382,125.92,399.152,125.92z"/>
        <path d="M399.152,190.171c5.77,0,10.449-4.678,10.449-10.449v-16.718c0-5.771-4.679-10.449-10.449-10.449
	c-5.77,0-10.449,4.678-10.449,10.449v16.718C388.703,185.493,393.382,190.171,399.152,190.171z"/>
        <path d="M399.152,256c5.77,0,10.449-4.678,10.449-10.449v-16.718c0-5.771-4.679-10.449-10.449-10.449
	c-5.77,0-10.449,4.678-10.449,10.449v16.718C388.703,251.322,393.382,256,399.152,256z"/>
        <path d="M190.183,247.641H307.19c5.77,0,10.449-4.678,10.449-10.449v-29.235c0-5.771-4.679-10.449-10.449-10.449H190.183
	c-5.77,0-10.449,4.678-10.449,10.449v29.235C179.734,242.963,184.412,247.641,190.183,247.641z M200.632,218.406h96.109v8.337
	h-96.109L200.632,218.406L200.632,218.406z"/>
        <path d="M190.183,312.664h61.985c5.77,0,10.449-4.678,10.449-10.449s-4.679-10.449-10.449-10.449h-51.536v-8.337h96.109v0.958
	c0,5.771,4.679,10.449,10.449,10.449c5.77,0,10.449-4.678,10.449-10.449V272.98c0-5.771-4.679-10.449-10.449-10.449H190.183
	c-5.77,0-10.449,4.678-10.449,10.449v29.235C179.734,307.986,184.412,312.664,190.183,312.664z"/>
    </symbol>

    <symbol id="village" viewBox="0 0 512 512" xmlns="http://www.w3.org/2000/svg">
        <path style="fill:#63ABA1;" d="M149.842,210.617l-18.704-32.724c-8.911-15.611-30.916-28.378-48.891-28.378H49.566v136.17
	l130.723-21.787L149.842,210.617z"/>
        <path style="fill:#83C49A;" d="M98.457,177.893l49.152,86.005l-98.043,21.787L8.715,263.898V149.515h40.851
	C67.54,149.515,89.546,162.282,98.457,177.893z"/>
        <polygon style="fill:#FFE0A2;" points="421.028,152.783 370.918,190.366 370.918,223.047 471.139,223.047 471.139,190.366 "/>
        <polygon style="fill:#FFFFFF;" points="421.028,185.464 370.918,223.047 370.918,285.685 471.139,285.685 471.139,223.047 "/>
        <path style="fill:#D3552B;" d="M421.028,272.068c-4.512,0-8.17-3.657-8.17-8.17v-32.681c0-4.513,3.658-8.17,8.17-8.17
	c4.512,0,8.17,3.657,8.17,8.17v32.681C429.199,268.411,425.541,272.068,421.028,272.068z"/>
        <polygon style="fill:#A3DC93;" points="472.238,263.898 450.451,385.906 472.238,507.915 504.919,507.915 504.919,263.898 "/>
        <rect x="9.26" y="263.898" style="fill:#CAED73;" width="462.979" height="244.017"/>
        <polygon style="fill:#FFE0A2;" points="92.061,296.579 41.95,334.162 41.95,366.843 142.172,366.843 142.172,334.162 "/>
        <polygon style="fill:#FFFFFF;" points="92.061,329.26 41.95,366.843 41.95,407.694 142.172,407.694 142.172,366.843 "/>
        <path style="fill:#D3552B;" d="M92.061,415.864c-4.512,0-8.17-3.657-8.17-8.17v-32.681c0-4.513,3.658-8.17,8.17-8.17
	c4.512,0,8.17,3.657,8.17,8.17v32.681C100.231,412.207,96.573,415.864,92.061,415.864z"/>
        <polygon style="fill:#FFE0A2;" points="142.172,375.013 92.061,412.596 92.061,445.277 192.282,445.277 192.282,412.596 "/>
        <polygon style="fill:#FFFFFF;" points="142.172,407.694 92.061,445.277 92.061,486.128 192.282,486.128 192.282,445.277 "/>
        <path style="fill:#D3552B;" d="M142.172,494.298c-4.512,0-8.17-3.657-8.17-8.17v-32.681c0-4.513,3.658-8.17,8.17-8.17
	s8.17,3.657,8.17,8.17v32.681C150.342,490.641,146.684,494.298,142.172,494.298z"/>
        <polygon style="fill:#FFE0A2;" points="294.663,377.191 294.663,420.766 414.492,475.234 447.173,475.234 447.173,377.191 "/>
        <polygon style="fill:#FFFFFF;" points="305.556,420.766 316.45,475.234 414.492,475.234 414.492,420.766 "/>
        <polygon style="fill:#D3552B;" points="436.28,342.332 316.45,342.332 316.45,388.085 458.067,388.085 "/>
        <polygon style="fill:#FFE0A2;" points="251.088,244.289 316.45,244.289 316.45,190.366 283.769,165.855 251.088,190.366 "/>
        <polygon style="fill:#FFFFFF;" points="251.088,475.234 316.45,475.234 316.45,223.047 283.769,198.536 251.088,223.047 "/>
        <path style="fill:#D3552B;" d="M283.769,483.404c-4.512,0-8.17-3.657-8.17-8.17v-32.681c0-4.513,3.658-8.17,8.17-8.17
	c4.512,0,8.17,3.657,8.17,8.17v32.681C291.939,479.747,288.281,483.404,283.769,483.404z"/>
        <rect x="251.087" y="296.579" style="fill:#FFE0A2;" width="65.362" height="32.681"/>
        <g>
            <path style="fill:#B3EFFF;" d="M436.289,66.723h-32.681V12.255h32.681c15.044,0,27.234,12.19,27.234,27.234
		S451.333,66.723,436.289,66.723z"/>
            <path style="fill:#B3EFFF;" d="M297.396,66.723l-59.915-21.787v49.021h32.681C285.206,93.957,297.396,81.767,297.396,66.723z"/>
        </g>
        <path style="fill:#D9F7FF;" d="M403.608,66.723c15.044,0,27.234-12.19,27.234-27.234s-12.19-27.234-27.234-27.234H212.97
	c-15.044,0-27.234,12.19-27.234,27.234H76.8c-15.044,0-27.234,12.19-27.234,27.234S61.756,93.957,76.8,93.957h160.681
	c15.044,0,27.234-12.19,27.234-27.234h32.681H403.608z"/>
        <path d="M503.83,255.728h-24.52v-49.501c0.883,0.313,1.801,0.479,2.717,0.479c2.484,0,4.938-1.127,6.543-3.268
	c2.707-3.609,1.975-8.731-1.634-11.438l-61.004-45.753c-2.905-2.179-6.899-2.179-9.804,0L355.122,192
	c-3.609,2.707-4.341,7.829-1.634,11.438c2.196,2.929,5.982,3.962,9.26,2.803v49.486H324.62v-49.501
	c0.883,0.313,1.801,0.479,2.717,0.479c2.484,0,4.938-1.127,6.543-3.268c2.707-3.609,1.976-8.731-1.634-11.438l-40.306-30.23v-39.489
	c0-4.513-3.658-8.17-8.17-8.17c-4.512,0-8.17,3.657-8.17,8.17v39.489L235.292,192c-3.61,2.707-4.341,7.829-1.634,11.438
	c2.197,2.929,5.982,3.962,9.26,2.803v49.486H185.03l-46.795-81.893c-10.412-18.22-35.006-32.49-55.989-32.49H8.715
	c-4.512,0-8.17,3.657-8.17,8.17s3.658,8.17,8.17,8.17h73.532c15.144,0,34.288,11.108,41.802,24.258l42.163,73.785H8.17
	c-4.512,0-8.17,3.657-8.17,8.17c0,4.513,3.658,8.17,8.17,8.17h172.11c0.033,0,62.637,0,62.637,0v16.34h-2.723
	c-4.512,0-8.17,3.657-8.17,8.17c0,4.513,3.658,8.17,8.17,8.17h2.723v170.485c0,4.513,3.658,8.17,8.17,8.17h196.085
	c4.512,0,8.17-3.657,8.17-8.17v-78.979h2.723c2.804,0,5.412-1.437,6.909-3.808c1.497-2.37,1.673-5.342,0.468-7.875l-21.787-45.753
	c-1.355-2.844-4.226-4.657-7.376-4.657h-111.66v-29.413h2.723c4.512,0,8.17-3.657,8.17-8.17c0-4.513-3.658-8.17-8.17-8.17h-2.723
	v-16.34H503.83c4.512,0,8.17-3.657,8.17-8.17C512,259.385,508.342,255.728,503.83,255.728z M439.003,467.064H324.62v-70.809h114.383
	V467.064z M431.12,350.502l14.006,29.413H324.62v-29.413H431.12z M308.28,467.064h-49.021V304.749h49.021V467.064z M259.258,288.409
	v-93.957l24.511-18.383l24.511,18.383v93.957H259.258z M379.088,194.451l41.94-31.455l41.94,31.455v61.277h-33.77v-24.511
	c0-4.513-3.658-8.17-8.17-8.17c-4.512,0-8.17,3.657-8.17,8.17v24.511h-33.77V194.451z"/>
        <path d="M208.078,414.23l-57.736-43.302v-20.905c0.883,0.313,1.801,0.479,2.717,0.479c2.484,0,4.938-1.127,6.543-3.268
	c2.707-3.609,1.975-8.731-1.634-11.438l-61.004-45.753c-2.905-2.179-6.899-2.179-9.804,0l-61.004,45.753
	c-3.609,2.707-4.341,7.829-1.634,11.438c2.197,2.929,5.982,3.963,9.26,2.803v57.657c0,4.513,3.658,8.17,8.17,8.17h10.894
	c4.512,0,8.17-3.657,8.17-8.17s-3.658-8.17-8.17-8.17H50.12v-61.277l41.94-31.455l41.94,31.455v32.681l-33.77,25.328v-21.243
	c0-4.513-3.658-8.17-8.17-8.17c-4.512,0-8.17,3.657-8.17,8.17v32.681c0,0.266,0.015,0.528,0.039,0.788l-7.665,5.749
	c-3.609,2.707-4.341,7.829-1.634,11.438c2.196,2.929,5.982,3.962,9.26,2.802v57.658c0,4.513,3.658,8.17,8.17,8.17h100.221
	c4.512,0,8.17-3.657,8.17-8.17v-57.671c0.883,0.313,1.801,0.479,2.717,0.479c2.484,0,4.938-1.128,6.543-3.268
	C212.42,422.059,211.688,416.937,208.078,414.23z M150.342,477.957v-24.511c0-4.513-3.658-8.17-8.17-8.17s-8.17,3.657-8.17,8.17
	v24.511h-33.77v-61.277l41.94-31.455l41.94,31.455v61.277H150.342z"/>
        <path d="M76.8,102.128h193.362c16.711,0,30.755-11.638,34.452-27.234h131.675c19.521,0,35.404-15.882,35.404-35.404
	S455.811,4.085,436.289,4.085h-32.681c-4.512,0-8.17,3.657-8.17,8.17s3.658,8.17,8.17,8.17h32.681
	c10.511,0,19.064,8.553,19.064,19.064s-8.553,19.064-19.064,19.064H297.396c-4.512,0-8.17,3.657-8.17,8.17
	c0,10.511-8.553,19.064-19.064,19.064H76.8c-10.511,0-19.064-8.553-19.064-19.064S66.289,47.66,76.8,47.66h108.936
	c4.512,0,8.17-3.657,8.17-8.17c0-10.511,8.553-19.064,19.064-19.064h157.957c4.512,0,8.17-3.657,8.17-8.17s-3.658-8.17-8.17-8.17
	H212.97c-16.711,0-30.755,11.638-34.452,27.234H76.8c-19.521,0-35.404,15.882-35.404,35.404S57.279,102.128,76.8,102.128z"/>
        <path d="M41.94,456.17c-4.512,0-8.17,3.657-8.17,8.17v10.894c0,4.513,3.658,8.17,8.17,8.17s8.17-3.657,8.17-8.17V464.34
	C50.111,459.827,46.453,456.17,41.94,456.17z"/>
        <path d="M205.345,336.34c-4.512,0-8.17,3.657-8.17,8.17v10.894c0,4.513,3.658,8.17,8.17,8.17c4.512,0,8.17-3.657,8.17-8.17v-10.894
	C213.515,339.997,209.857,336.34,205.345,336.34z"/>
        <path d="M472.238,288.409c-4.512,0-8.17,3.657-8.17,8.17v10.894c0,4.513,3.658,8.17,8.17,8.17s8.17-3.657,8.17-8.17v-10.894
	C480.409,292.065,476.75,288.409,472.238,288.409z"/>
        <circle cx="283.768" cy="217.6" r="8.17"/>
    </symbol>

    <symbol id="county" viewBox="0 0 479.302 479.302" xmlns="http://www.w3.org/2000/svg">
        <g id="SVGRepo_iconCarrier">
            <g>
                <path d="M9.948,159.572c-0.2,2.6,1,4.5,2.4,6.5c1,1.5,2.2,3.2,2.4,4.9c0.3,2.8,1.8,3.5,4.1,4c2.6,0.6,4.7,2,5.4,4.8 c0.7,2.6,2.1,3.3,4.7,2.3c5.1-1.9,10.2-4,15.3-6c-0.1,0.6-0.3,1.5-0.4,2.4c-0.4,3.6-1,7.2-0.9,10.7c0.1,3.7,2.4,6,5.8,6 c6.6,0,13.1-0.1,19.7-0.3c3.2-0.1,6-1.3,8.2-3.8c0.3-0.3,0.7-0.8,1-0.7c3.9,0.7,6-2,8.4-4.3c2.7-2.6,5.8-4.4,9.8-4.3 c2.5,0.1,5.1-0.7,8-1.1c0,0,0.4,0.5,0.7,1.1c1.4,2.2,2,4.2,0.3,6.7c-0.8,1.3-0.4,3.4-0.5,5.2c-0.1,1.3,0.2,2.8-0.2,4 c-0.6,1.9-0.7,3.6,0.1,5.5c2.2,4.8,5.6,8.6,9.6,11.9c2.2,1.8,4.6,2.4,7.4,1.9c0.9-0.1,2,0.4,2.9,0.9c1.2,0.7,2.1,2.1,3.3,2.4 c1.8,0.5,3,1.3,4.1,2.6c1.5,1.8,3.4,3,5.8,2.6c1.8-0.3,2.6,0.2,3.1,2c1.1,3.8,3.4,4.9,7.3,4c1.1-0.3,2.6,0,3.7,0.5 c2.5,1.1,4.8,2.6,7.2,3.7c1.6,0.7,2.4,1.7,2.6,3.3c0.3,2.3,0.5,4.5,0.5,6.8c-0.1,3.1,0.3,6.3-2.4,8.8c-0.4,0.3-0.6,1.101-0.6,1.601 c0.3,2.6,0.8,5.1,2.9,6.899c3.5,3,7.6,4.8,12.2,5.2c2,0.2,4.1,0,6.2,0.1c2.7,0.101,3.6,1.4,2.9,3.9c-0.2,0.6-0.4,1.3-0.7,1.9 c-2.6,5.3-1,8.8,4.5,10.5c1.1,0.399,2.7,1.6,2.7,2.399c0.2,4.2,2,8.7-1.3,12.601c-0.4,0.399-0.8,0.899-0.9,1.5 c-0.2,1.1-0.6,2.5-0.2,3.399c0.5,1.101,0.5,1.7-0.2,2.601c-1.5,2-2.5,4-2.7,6.6c-0.3,5.3-1,10.6-1.4,15.9 c-0.2,2.6-0.3,5.3-0.2,7.899c0.1,2.2,1.3,4.101,3.5,4.601c3,0.6,6.1,1,9.1,1c8.1,0,14.1,7.199,12.7,15.199 c-0.4,2.101-0.3,4.4-0.2,6.601c0.1,2.8,1,3.399,3.8,2.899c1.3-0.199,2.6-0.6,3.9-0.699c3.2-0.2,5.5,1.8,5.1,5 c-0.4,3.6-1.1,7.3-2.3,10.699c-1.3,3.801-1.6,3.7,1.7,6.001c3.3,2.3,4.6,5.5,4.1,9.399c-0.3,2.601-1,5.101-1.1,7.7 c-0.1,4-2.8,6.1-5.8,7.1c-8.1,2.5-14.3,7.601-20.3,13.101c-3.7,3.399-6.9,7.2-10.3,10.899c-1.9,2-2,3.301-0.5,5.7 c0.4,0.7,0.8,1.4,1.3,2c2.4,3.101,5.5,5.7,4.5,10.4c-0.4,1.899,1,2.8,2.9,2.2c0.8-0.2,1.5-0.601,2.2-1.101c1.6-1.1,2.9-0.5,3.9,0.7 c3.9,4.9,8.3,9.1,13.2,12.8c2.2,1.601,3.9,3.7,4.3,6.4c0.3,2.3,1.7,2.5,3.5,2.3c1.7-0.2,3.3-0.7,5.1-1.1c1.1,2.3,2.8,2.6,4.4,0.6 c0.7-0.9,1.5-1.9,1.7-3c1.1-4.5,3.2-8.2,6.6-11.4c3.299-3.1,6.2-6.6,9.4-10.1c0.2,0.2,0.6,0.4,0.899,0.7 c2.5,2.6,5.4,2.399,7.301-0.601c1.1-1.8,2.199-3.6,3.1-5.6c1.6-3.4,3.9-5.9,6.9-8.1c2.1-1.601,3.899-3.601,5.399-5.7 c2.4-3.5,3.2-7.8,3.7-11.9c0.5-3.6,0.7-7.3,1.1-10.899c0.101-1.4,0.4-2.801,0.601-4.101c0.7-4.5,4.5-8,3.899-13 c1,0.5,1.7,1,2.5,1.4c1.4,0.6,2.5,0.399,3.2-1.2c1.5-3.6,4.7-5.3,8.101-6.3c2.7-0.9,5-2.101,7.2-3.9c2.5-2.1,5.1-4.1,8.8-3.9 c5.399,0.2,10.399-1.1,14.2-5.3c3.3-3.6,6.8-4.2,11-1.8c2.699,1.5,5.699,1.7,8.8,1.3c6-0.899,11.2-3.5,16.1-6.899 c3.8-2.7,7.2-5.801,9.2-10.2c1.3-2.9,3.3-5.2,6.4-6.4c1-0.399,2-0.8,2.699-1.5c3.9-4.7,7.801-9.5,11.601-14.399 c1.899-2.5,1-5.5,1.2-8.301c0.1-2.6,0.399-5.399,2.699-6.899c4-2.7,6-6.601,7.601-10.8c0.7-1.7,0.7-3.7,1-5.5 c-0.101-0.301,0.6-0.5,0.7-0.801c0.399-1.199,0.699-2.5,0.899-3.8c0.7-3.6,1.4-7.1,2-10.7c0.7-4.3,1.3-8.6,1.9-12.899 c0.6-4,0.8-8,1.6-12c0.5-2.8,2.101-5.3,5-6.2c9.4-3.2,15.9-9.3,18.7-18.8c1.4-4.6,4.1-6.8,8.6-7.6c5.101-0.9,9.801-2.7,12.801-7.3 c0.8-1.3,1.3-2.8,2.3-3.9c2.6-2.8,5.399-5.4,8.1-8.1c6.4-6.3,8.8-13.7,6.601-22.5c-0.801-3-1.2-6-1.7-9.1c-0.4-2.5-0.2-5.2-0.9-7.6 c-1.6-5.3-4.6-9.5-10.7-10.5c-1.699-0.3-3.3-0.8-5-1c-3.699-0.6-6.8-2.2-9.1-5c-4-5.1-7.9-10.4-11.6-15.7 c-2.4-3.4-4.2-7.1-9.101-7.5c-0.6,0-1.3-0.9-1.7-1.6c-2-3.5-5-5.3-8.899-5.7c-2.101-0.2-4.4-0.4-6.3,0.2 c-5.5,1.8-10.5,0.2-15.4-1.7c-2-0.7-4-2-5.4-3.5c-1.8-1.9-4-2.8-6.399-3.1c-4.601-0.7-8.9,0.6-13.101,2.2 c-2.1,0.8-4.3,1.6-6.699,2.4c1.1-4.3,2.1-8.2,3.199-12.1c0.5-1.9,0.301-2.9-1.699-3.7c-3-1.3-5.801-3-8.601-4.7 c-1.399-0.9-2.5-2.2-4-3.1c-5.3-3.2-11.1-5-17.2-6.2c-6.8-1.3-13.199-0.3-18.8,4.1c-2.8,2.2-5.6,4.3-8.3,6.3 c-0.9-2.1-2.2-3.9-3.8-5.3c1-0.1,2.1-0.4,3.1-0.8c2-0.8,4-1.7,5.7-2.9c3-2.3,6-4.7,8.7-7.4c1.6-1.6,1.2-2.9-0.9-3.9 c-5.8-2.8-12-3.9-18.399-3.9c-3,0-5.501,1.2-7.801,2.6c-2.399,1.5-4.5,3.3-7,4.7c-2,1.1-4.1,2.2-7.1,1.5 c0.899-1.9,1.399-3.8,2.5-5.3c4.5-6.2,10.1-11.1,16.8-14.8c1.9-1,3.5-2.3,3.101-4.8c-0.3-1.8,0.399-3,1.8-4 c1.1-0.8,2.1-1.7,3.5-2.9c-1.3-0.7-2.101-1.3-3.101-1.6c-1.899-0.7-4.1-1-5.899-1.9c-1.2-0.6-2.4-1.8-2.7-3 c-0.601-2.3-0.4-4.8-1-7.2c-1.2-5.5-2.7-11-4-16c-2.5-1.7-4.101-0.7-5.5,0.9c-1.4,1.5-3,2.8-4.3,4.4c-0.601,0.8-1.101,2-0.9,3 c0.4,3,0.4,3.5-2.4,4.2c-2.5,0.7-4,2.2-4.8,4.4c-0.6,1.6-1.8,2.4-3.399,2.8c-4.5,1.1-8.9,0.8-13.4,0.2c-3.399-0.5-6.5-1.3-8.5-4.4 c-0.399-0.7-1.399-1.2-2.1-1.3c-2.9-0.5-5.8-0.8-8.7-1.3c-2.1-0.4-3.3,0.3-4.5,2.1c-2.1,3.4-7.1,7.2-12.6,5 c-3.5-1.4-7.2-0.9-10.8,0.3c-3.4,1.1-6.9,1.9-10.4,2.5c-2.5,0.5-5,0.1-7-1.8c-4.3-4-6.8-9-7.5-14.9c-0.6-4.9,1.3-9.1,3.8-13 c2.7-4.1,2.6-4.6-1.1-7.5c-1.8-1.4-2.5-3-2-5.2c0.2-0.9,0.8-1.8,0.6-2.5c-0.2-1.1-0.7-2.5-1.5-2.9c-2.3-1.2-4.1-0.5-5.9,2 c-2.5,3.3-4.7,7-9.2,7.7c-3.2,0.5-6.5,0.8-9.8,1.1c-0.8,0.1-1.6-0.2-2.4-0.1c-2.5,0.1-3.8,1.8-5,3.7c-2.1,3.5-3,3.6-6,0.8 c-0.3-0.2-0.5-0.6-0.8-0.7c-2.7-1.4-5.3-2.8-8-3.9c-0.7-0.3-2.2,0.4-2.7,1.1c-1.8,2.5-1.8,5.4-1.1,8.3c1,3.8,2.8,6.7,6.7,8.5 c3.4,1.6,3.2,5.7,0,7.5c-1,0.6-2.2,0.9-3.2,1.5c-6.8,3.9-13.6,7.8-20.4,11.8c-1.4,0.9-2.7,0.9-4.1,0.3c-2.6-1.2-5.1-1.3-7.5,0.5 c-0.3,0.3-1.2,0.3-1.6,0c-3.1-2.1-5.6-4.6-6.3-8.6c-0.6-3.5-2.3-6.1-6.1-7c-2.6-0.6-4.9,0-7.3,0.8c-3.4,1.1-6.7,1.2-10.3,0.7 c-2.5-0.4-5.1-0.3-7.6,0c-1.7,0.2-2.8,1.6-3,3.4c-0.2,1.9,1,3,2.6,3.7c1.1,0.5,2.3,0.8,3.1,1.6c0.8,0.7,1.5,1.9,1.5,2.8 c0,0.7-1.1,1.7-1.9,2c-1.2,0.4-2.6,0.5-3.9,0.5c-4.7,0.2-6.9,3.1-5,7.4c1.2,2.7,2.9,5.3,4.8,7.6c3.5,4.5,3.9,8.7,0.7,13.3 c-1.8,2.6-3.5,5.3-2.5,8.8c0.2,0.7-0.1,1.6-0.5,2.3c-1.4,3-2.4,6.1-2.3,9.6c0,0.8-0.3,1.7-0.6,2.5c-0.5,1.8-1.4,3.6-1.5,5.4 c-0.3,4.4-2.2,6-6.3,4.7c-3.9-1.3-7.3-0.7-10.8,1.2c-1.2,0.6-2.7,0.7-4.1,0.8c-1.6,0-3.2-0.3-4.9-0.5c-0.4,2.2-1.9,3.1-3.9,3.4 c-0.5,0.1-0.9,0.4-1.3,0.7c-6.4,4.4-8.7,11.2-10.4,18.3c-0.5,1.9-0.6,3.7-2.9,4.8c-1.5,0.7-2.8,2.3-3.8,3.8 c-2.5,3.7-2.4,6.4,0.4,9.9C9.148,155.472,10.148,157.271,9.948,159.572z" fill="#f4b453">
                </path>
            </g>
        </g>
    </symbol>

    <symbol id="hamlet" viewBox="0 0 439 439" xmlns="http://www.w3.org/2000/svg">
        <g>
            <rect x="274.727" y="182.726" style="fill:#FFD039;" width="22.26" height="35.283"/>
            <rect x="288.227" y="182.726" style="fill:#EAB932;" width="8.76" height="35.283"/>
            <polygon style="fill:#FFD039;" points="338.41,263.382 338.41,311.41 280.776,311.41 223.743,311.41 223.743,263.382    247.757,263.382 314.396,263.382  "/>
            <polygon style="fill:#CCCCCC;" points="292.827,308.396 292.827,363.066 226.66,363.066 226.66,307.396 292.827,307.396  "/>
            <polygon style="fill:#999999;" points="338.827,307.396 338.827,363.066 280.827,363.066 280.827,308.396 280.827,307.396  "/>
            <polygon style="fill:#EAB932;" points="328.827,260.062 328.827,262.826 222.736,262.826 222.736,274.896 328.827,274.896    328.827,303.128 328.827,363.066 407.827,363.066 407.827,260.062  "/>
            <polygon style="fill:#3B9DFF;" points="368.327,209.396 296.986,209.396 274.727,209.396 264.327,209.396 229.077,243.756    223.077,267.396 308.827,267.396 328.827,267.396 407.827,267.396 427.827,267.396  "/>
            <polygon style="fill:#1E79C4;" points="427.827,267.396 407.827,267.396 328.827,267.396 308.827,267.396 368.327,209.396  "/>
            <circle style="fill:#666666;" cx="368.427" cy="246.546" r="7.5"/>
            <rect x="49.236" y="262.826" style="fill:#FFD039;" width="117.09" height="51.24"/>
            <polygon style="fill:#CCCCCC;" points="176.74,308.396 176.74,363.066 64.439,363.066 33.517,363.066 33.517,307.396    64.439,307.396 176.74,307.396  "/>
            <rect x="107.397" y="182.726" style="fill:#FFD039;" width="22.26" height="35.283"/>
            <rect x="120.897" y="182.726" style="fill:#EAB932;" width="8.76" height="35.283"/>
            <polygon style="fill:#EAB932;" points="154.327,260.066 154.327,262.826 49.236,262.826 49.236,274.896 154.327,274.896    154.327,363.066 233.327,363.066 233.327,260.066  "/>
            <polygon style="fill:#ED2E2E;" points="253.327,267.396 229.077,243.756 193.827,209.396 129.657,209.396 107.397,209.396    89.827,209.396 30.327,267.396 233.327,267.396  "/>
            <rect x="106.327" y="307.396" style="fill:#999999;" width="48" height="55.67"/>
            <path style="fill:#666666;" d="M178.823,277.397c-4.142,0-7.5,3.358-7.5,7.5v13c0,4.142,3.358,7.5,7.5,7.5s7.5-3.358,7.5-7.5v-13   C186.323,280.755,182.965,277.397,178.823,277.397z"/>
            <path style="fill:#666666;" d="M78.823,277.397c-4.142,0-7.5,3.358-7.5,7.5v13c0,4.142,3.358,7.5,7.5,7.5s7.5-3.358,7.5-7.5v-13   C86.323,280.755,82.965,277.397,78.823,277.397z"/>
            <path style="fill:#666666;" d="M118.823,277.397c-4.142,0-7.5,3.358-7.5,7.5v13c0,4.142,3.358,7.5,7.5,7.5s7.5-3.358,7.5-7.5v-13   C126.323,280.755,122.965,277.397,118.823,277.397z"/>
            <path style="fill:#666666;" d="M258.323,277.397c-4.142,0-7.5,3.358-7.5,7.5v13c0,4.142,3.358,7.5,7.5,7.5s7.5-3.358,7.5-7.5v-13   C265.823,280.755,262.465,277.397,258.323,277.397z"/>
            <path style="fill:#666666;" d="M298.323,277.397c-4.142,0-7.5,3.358-7.5,7.5v13c0,4.142,3.358,7.5,7.5,7.5s7.5-3.358,7.5-7.5v-13   C305.823,280.755,302.465,277.397,298.323,277.397z"/>
            <path style="fill:#666666;" d="M208.823,305.397c4.142,0,7.5-3.358,7.5-7.5v-13c0-4.142-3.358-7.5-7.5-7.5s-7.5,3.358-7.5,7.5v13   C201.323,302.039,204.681,305.397,208.823,305.397z"/>
            <path style="fill:#666666;" d="M178.823,315.897c-4.142,0-7.5,3.358-7.5,7.5v13c0,4.142,3.358,7.5,7.5,7.5s7.5-3.358,7.5-7.5v-13   C186.323,319.255,182.965,315.897,178.823,315.897z"/>
            <path style="fill:#666666;" d="M216.323,336.397v-13c0-4.142-3.358-7.5-7.5-7.5s-7.5,3.358-7.5,7.5v13c0,4.142,3.358,7.5,7.5,7.5   S216.323,340.539,216.323,336.397z"/>
            <path style="fill:#666666;" d="M353.323,305.397c4.142,0,7.5-3.358,7.5-7.5v-13c0-4.142-3.358-7.5-7.5-7.5s-7.5,3.358-7.5,7.5v13   C345.823,302.039,349.181,305.397,353.323,305.397z"/>
            <path style="fill:#666666;" d="M383.323,305.397c4.142,0,7.5-3.358,7.5-7.5v-13c0-4.142-3.358-7.5-7.5-7.5s-7.5,3.358-7.5,7.5v13   C375.823,302.039,379.181,305.397,383.323,305.397z"/>
            <path style="fill:#666666;" d="M353.323,343.897c4.142,0,7.5-3.358,7.5-7.5v-13c0-4.142-3.358-7.5-7.5-7.5s-7.5,3.358-7.5,7.5v13   C345.823,340.539,349.181,343.897,353.323,343.897z"/>
            <path style="fill:#666666;" d="M383.323,343.897c4.142,0,7.5-3.358,7.5-7.5v-13c0-4.142-3.358-7.5-7.5-7.5s-7.5,3.358-7.5,7.5v13   C375.823,340.539,379.181,343.897,383.323,343.897z"/>
            <g>
                <rect x="128.907" y="307.396" style="fill:#666666;" width="5" height="55.67"/>
            </g>
            <g>
                <rect x="303.907" y="307.396" style="fill:#666666;" width="5" height="55.67"/>
            </g>
            <g>
                <path style="fill:#0FBC30;" d="M439.48,386.233H0c0-4.43,1.13-8.59,3.12-12.22c1.17-2.14,2.64-4.09,4.35-5.8    c4.61-4.62,10.99-7.47,18.03-7.47h388.48c9.65,0,18.05,5.36,22.38,13.27C438.35,377.643,439.48,381.803,439.48,386.233z"/>
                <path style="fill:#07A521;" d="M439.48,386.233H0c0-4.43,1.13-8.59,3.12-12.22h433.24    C438.35,377.643,439.48,381.803,439.48,386.233z"/>
            </g>
            <polygon style="fill:#D82525;" points="253.327,267.396 233.327,267.396 233.327,267.396 134.667,267.396 193.827,209.396    229.077,243.756  "/>
            <circle style="fill:#666666;" cx="193.786" cy="246.546" r="7.5"/>
            <path style="fill:#EAB932;" d="M143.993,106.497c-8.5,0-20.463,28-19.313,28.66l-0.01,0.01c-9.21,11.34-23.27,18.58-39.01,18.58   c-27.75,0-50.25-22.5-50.25-50.25s22.5-50.25,50.25-50.25c17.49,0,32.9,8.94,41.89,22.5L143.993,106.497z"/>
            <path style="fill:#FFD039;" d="M135.91,103.507c0,27.75-22.5,50.24-50.25,50.24c-4.47,0-8.81-0.58-12.94-1.68   c-8.21-7.91-13.31-19.01-13.31-31.31c0-24.03,19.48-43.5,43.5-43.5c12.3,0,23.4,5.1,31.32,13.31   C135.33,94.697,135.91,99.037,135.91,103.507z"/>
            <path style="fill:#3B9DFF;" d="M218.14,110.997c2.79,2.78,4.51,6.63,4.51,10.87c0,8.49-6.89,15.38-15.38,15.38h-74.86   c-2.82,0-5.46-0.76-7.73-2.09c-1.15-0.66-2.21-1.48-3.15-2.42c-2.78-2.78-4.5-6.63-4.5-10.87c0-8.49,6.88-15.37,15.38-15.37H88.29   c-4.25,0-8.09-1.72-10.87-4.5c-2.79-2.79-4.51-6.63-4.51-10.88c0-8.49,6.89-15.37,15.38-15.37h39.26h35.6   c4.25,0,8.09,1.72,10.88,4.5c2.78,2.78,4.5,6.62,4.5,10.87c0,8.5-6.88,15.38-15.38,15.38h44.12   C211.52,106.497,215.36,108.217,218.14,110.997z"/>
        </g>    </symbol>

    <symbol id="state" viewBox="0 0 512 512" xmlns="http://www.w3.org/2000/svg">
        <path d="M25.7075 13.7075L19.7075 19.7075C19.6146 19.8005 19.5043 19.8742 19.3829 19.9246C19.2615 19.9749 19.1314 20.0008 19 20.0008C18.8686 20.0008 18.7385 19.9749 18.6171 19.9246C18.4957 19.8742 18.3854 19.8005 18.2925 19.7075L12.2925 13.7075C12.1049 13.5199 11.9994 13.2654 11.9994 13C11.9994 12.7346 12.1049 12.4801 12.2925 12.2925C12.4801 12.1049 12.7346 11.9994 13 11.9994C13.2654 11.9994 13.5199 12.1049 13.7075 12.2925L18 16.5863V2H1C0.734784 2 0.48043 1.89464 0.292893 1.70711C0.105357 1.51957 0 1.26522 0 1C0 0.734784 0.105357 0.48043 0.292893 0.292893C0.48043 0.105357 0.734784 0 1 0H19C19.2652 0 19.5196 0.105357 19.7071 0.292893C19.8946 0.48043 20 0.734784 20 1V16.5863L24.2925 12.2925C24.4801 12.1049 24.7346 11.9994 25 11.9994C25.2654 11.9994 25.5199 12.1049 25.7075 12.2925C25.8951 12.4801 26.0006 12.7346 26.0006 13C26.0006 13.2654 25.8951 13.5199 25.7075 13.7075Z" />
    </symbol>

    <symbol id="country" viewBox="0 0 512 512" xmlns="http://www.w3.org/2000/svg">
        <path d="M25.7075 13.7075L19.7075 19.7075C19.6146 19.8005 19.5043 19.8742 19.3829 19.9246C19.2615 19.9749 19.1314 20.0008 19 20.0008C18.8686 20.0008 18.7385 19.9749 18.6171 19.9246C18.4957 19.8742 18.3854 19.8005 18.2925 19.7075L12.2925 13.7075C12.1049 13.5199 11.9994 13.2654 11.9994 13C11.9994 12.7346 12.1049 12.4801 12.2925 12.2925C12.4801 12.1049 12.7346 11.9994 13 11.9994C13.2654 11.9994 13.5199 12.1049 13.7075 12.2925L18 16.5863V2H1C0.734784 2 0.48043 1.89464 0.292893 1.70711C0.105357 1.51957 0 1.26522 0 1C0 0.734784 0.105357 0.48043 0.292893 0.292893C0.48043 0.105357 0.734784 0 1 0H19C19.2652 0 19.5196 0.105357 19.7071 0.292893C19.8946 0.48043 20 0.734784 20 1V16.5863L24.2925 12.2925C24.4801 12.1049 24.7346 11.9994 25 11.9994C25.2654 11.9994 25.5199 12.1049 25.7075 12.2925C25.8951 12.4801 26.0006 12.7346 26.0006 13C26.0006 13.2654 25.8951 13.5199 25.7075 13.7075Z" />
    </symbol>

    <symbol id="island" viewBox="0 0 512 512" xmlns="http://www.w3.org/2000/svg">
        <rect y="373.573" style="fill:#31C0D8;" width="512" height="125.388"/>
        <g>
            <path style="fill:#F4661E;" d="M423.184,222.065l-180.449-31.551l-0.837-5.021h-21.102c-0.418-0.306-0.837-0.735-1.143-1.041
		l70.734-37.623c12.633-1.775,25.816-1.878,39.081,0.418C372.939,154.881,407.204,184.136,423.184,222.065z"/>
            <path style="fill:#F4661E;" d="M231.98,137.636l-14.53,11.806c0.938-11.275,0.317-22.561-1.674-33.745
		c5.225-28.326,19.857-55.071,44-74.612c34.265-27.898,78.878-34.48,117.96-21.837L308.47,75.574L231.98,137.636z"/>
            <path style="fill:#F4661E;" d="M212.653,185.493l-74.612-39.704L26.755,86.646c29.051-16.194,64.062-20.378,97.081-10.449
		l73.867,59.867c6.786,12.653,11.387,26.337,13.684,40.449C211.816,179.534,212.439,182.463,212.653,185.493z"/>
        </g>
        <g>
            <path style="fill:#F1F2F2;" d="M197.704,136.064l-73.867-59.867L53.816,19.248c39.081-12.643,83.694-6.061,117.979,21.836
		c24.133,19.541,38.755,46.286,43.98,74.612c-1.98,11.184-2.612,22.469-1.674,33.745L197.704,136.064z"/>
            <path style="fill:#F1F2F2;" d="M218.285,183.085c1.572-15.877,6.265-31.347,13.693-45.449l76.49-62.062
		c32.49-9.306,66.755-5.021,95.388,10.959L290.388,146.83l-70.734,37.623c-0.428-0.428-0.837-0.837-1.265-1.265h-0.102
		L218.285,183.085L218.285,183.085z"/>
            <path style="fill:#F1F2F2;" d="M138.04,145.789l74.612,39.704h-23l-0.938,5.959L13.592,222.065
		c15.99-37.929,50.265-67.184,93.735-74.817C117.776,145.473,128.01,145.055,138.04,145.789z"/>
        </g>
        <polygon style="fill:#A7A9AC;" points="241.898,436.269 252.347,498.963 179.204,498.963 189.653,436.269 "/>
        <polygon style="fill:#E6E7E8;" points="241.898,436.269 189.653,436.269 179.204,436.269 189.653,373.575 241.898,373.575
	252.347,436.269 "/>
        <polygon style="fill:#A7A9AC;" points="241.898,310.881 252.347,373.575 241.898,373.575 189.653,373.575 179.204,373.575
	189.653,310.881 "/>
        <polygon style="fill:#E6E7E8;" points="241.898,248.187 252.347,310.881 241.898,310.881 189.653,310.881 179.204,310.881
	189.653,248.187 "/>
        <polygon style="fill:#A7A9AC;" points="242.735,190.514 252.347,248.187 241.898,248.187 189.653,248.187 179.204,248.187
	188.714,191.452 218.388,186.228 "/>
        <g>
            <path style="fill:#231F20;" d="M261.199,488.514l-6.996-41.977c2.367-0.427,4.538-1.65,6.117-3.514
		c1.985-2.344,2.84-5.442,2.334-8.472l-8.451-50.708c2.367-0.427,4.538-1.65,6.117-3.514c1.985-2.344,2.84-5.442,2.334-8.472
		l-8.451-50.708c2.367-0.427,4.538-1.65,6.117-3.514c1.985-2.344,2.84-5.442,2.334-8.472l-8.451-50.708
		c2.367-0.427,4.538-1.65,6.117-3.514c1.985-2.344,2.84-5.442,2.334-8.471l-7.187-43.123l165.916,29.011
		c0.601,0.106,1.203,0.156,1.801,0.156c3.149,0,6.17-1.425,8.172-3.939c2.381-2.99,2.939-7.044,1.456-10.567
		c-18.011-42.75-55.969-73.05-101.562-81.055c-0.002,0-0.004,0-0.005-0.001l77.515-41.19c3.378-1.796,5.507-5.293,5.545-9.121
		c0.04-3.825-2.016-7.367-5.356-9.232c-20.217-11.282-42.481-17.072-65.037-17.188l40.416-32.866
		c2.971-2.417,4.381-6.264,3.678-10.029c-0.704-3.765-3.411-6.842-7.054-8.021C336.728-5,288.96,3.85,253.204,32.962
		c-16.063,13.002-28.815,29.595-37.424,48.345c-8.604-18.749-21.345-35.337-37.386-48.328C142.594,3.852,94.824-5.001,50.6,9.307
		c-3.643,1.179-6.35,4.256-7.054,8.021c-0.705,3.764,0.706,7.611,3.678,10.028l40.723,33.12C64.9,60.444,41.957,66.21,21.668,77.521
		c-3.343,1.863-5.399,5.404-5.36,9.232c0.038,3.826,2.165,7.326,5.544,9.121l79.011,41.99c-43.49,9.193-79.495,38.859-96.899,80.142
		c-1.485,3.523-0.928,7.577,1.454,10.567c2.002,2.515,5.024,3.94,8.173,3.94c0.597,0,1.201-0.051,1.8-0.156l160.578-28.069
		l-7.07,42.171c-0.508,3.03,0.344,6.131,2.329,8.477c1.579,1.866,3.751,3.091,6.119,3.518l-8.451,50.708
		c-0.505,3.03,0.349,6.127,2.334,8.472c1.579,1.864,3.75,3.087,6.117,3.514l-8.451,50.708c-0.505,3.03,0.349,6.127,2.334,8.472
		c1.579,1.864,3.75,3.087,6.117,3.514l-8.451,50.708c-0.505,3.03,0.349,6.127,2.334,8.472c1.579,1.864,3.75,3.087,6.117,3.514
		l-6.996,41.977H0v20.898h512v-20.898H261.199V488.514z M203.63,128.754c-0.001,0.017-0.002,0.033-0.003,0.05 M218.389,196.838
		l15.254,2.684l6.37,38.215h-48.462l6.247-37.276L218.389,196.838z M198.506,321.33h34.541l6.966,41.796h-48.474L198.506,321.33z
		 M191.539,300.432l6.966-41.796h34.541l6.966,41.796H191.539z M198.506,384.024h34.541l6.966,41.796h-48.474L198.506,384.024z
		 M404.038,208.11l-152.517-26.667c-0.242-0.577-0.534-1.124-0.869-1.641l42.937-22.837c11.74-1.487,23.204-1.305,34.074,0.577
		C359.446,163.121,386.855,181.536,404.038,208.11z M285.481,137.605l-53.502,28.456c1.999-7.453,4.771-14.705,8.295-21.698
		l73.047-59.269c22.326-5.981,45.407-5.161,66.805,2.218l-94.641,50.29 M266.373,49.188c24.948-20.313,56.807-28.957,88.212-24.581
		l-52.708,42.862l0,0l-74.034,60.069c-0.32-3.86-0.812-7.733-1.447-11.612C231.67,89.487,245.797,65.841,266.373,49.188z
		 M165.22,49.205c20.542,16.634,34.662,40.281,39.935,66.724c-0.629,3.864-1.118,7.722-1.437,11.56L130.417,68.08l0,0L76.965,24.606
		C108.373,20.231,140.242,28.881,165.22,49.205z M142.945,136.563L50.569,87.469c21.887-7.421,45.872-8.133,68.369-1.794
		l70.469,57.114c3.827,7.434,6.846,15.23,9.031,23.303l-55.488-29.528 M109.077,157.55c8.592-1.459,17.351-1.941,26.073-1.462
		l45.453,24.187c-0.387,0.67-0.696,1.392-0.929,2.151L32.743,208.11C49.931,181.536,77.338,163.123,109.077,157.55z
		 M198.506,446.718h34.541l6.966,41.796h-48.474L198.506,446.718z"/>
            <rect y="363.124" style="fill:#231F20;" width="151.51" height="20.898"/>
        </g>
        <path style="fill:#FFD248;" d="M464.98,373.575H297.796c0-46.183,37.408-83.592,83.592-83.592S464.98,327.392,464.98,373.575z"/>
        <g>
            <path style="fill:#231F20;" d="M474.844,363.126c-5.214-46.954-45.134-83.592-93.457-83.592s-88.243,36.638-93.457,83.592h-16.258
		v20.898h26.122H464.98H512v-20.898H474.844z M308.989,363.126c5.086-35.399,35.615-62.694,72.399-62.694
		s67.313,27.295,72.399,62.694H308.989z"/>
            <rect x="370.939" y="237.736" style="fill:#231F20;" width="20.898" height="31.347"/>

            <rect x="446.694" y="253.219" transform="matrix(-0.7071 -0.7071 0.7071 -0.7071 588.2787 787.0486)" style="fill:#231F20;" width="20.898" height="36.937"/>

            <rect x="287.157" y="261.239" transform="matrix(-0.7071 -0.7071 0.7071 -0.7071 329.6225 679.9108)" style="fill:#231F20;" width="36.937" height="20.898"/>
            <rect x="480.653" y="316.103" style="fill:#231F20;" width="31.347" height="20.898"/>
            <rect x="303.02" y="404.92" style="fill:#231F20;" width="62.694" height="20.898"/>
            <rect x="354.22" y="446.716" style="fill:#231F20;" width="57.469" height="20.898"/>
            <rect x="105.535" y="404.92" style="fill:#231F20;" width="51.2" height="20.898"/>
            <rect x="94.041" y="451.94" style="fill:#231F20;" width="52.245" height="20.898"/>
            <rect x="437.812" y="409.099" style="fill:#231F20;" width="74.188" height="20.898"/>
            <rect y="419.548" style="fill:#231F20;" width="72.098" height="20.898"/>
        </g>
    </symbol>
</svg>

