<?xml version="1.0" encoding="iso-8859-1"?>
<svg version="1.1" id="Layer_1" xmlns="http://www.w3.org/2000/svg"
	 viewBox="0 0 512 512" xml:space="preserve">
<rect y="373.573" style="fill:#31C0D8;" width="512" height="125.388"/>
<g>
	<path style="fill:#F4661E;" d="M423.184,222.065l-180.449-31.551l-0.837-5.021h-21.102c-0.418-0.306-0.837-0.735-1.143-1.041
		l70.734-37.623c12.633-1.775,25.816-1.878,39.081,0.418C372.939,154.881,407.204,184.136,423.184,222.065z"/>
	<path style="fill:#F4661E;" d="M231.98,137.636l-14.53,11.806c0.938-11.275,0.317-22.561-1.674-33.745
		c5.225-28.326,19.857-55.071,44-74.612c34.265-27.898,78.878-34.48,117.96-21.837L308.47,75.574L231.98,137.636z"/>
	<path style="fill:#F4661E;" d="M212.653,185.493l-74.612-39.704L26.755,86.646c29.051-16.194,64.062-20.378,97.081-10.449
		l73.867,59.867c6.786,12.653,11.387,26.337,13.684,40.449C211.816,179.534,212.439,182.463,212.653,185.493z"/>
</g>
<g>
	<path style="fill:#F1F2F2;" d="M197.704,136.064l-73.867-59.867L53.816,19.248c39.081-12.643,83.694-6.061,117.979,21.836
		c24.133,19.541,38.755,46.286,43.98,74.612c-1.98,11.184-2.612,22.469-1.674,33.745L197.704,136.064z"/>
	<path style="fill:#F1F2F2;" d="M218.285,183.085c1.572-15.877,6.265-31.347,13.693-45.449l76.49-62.062
		c32.49-9.306,66.755-5.021,95.388,10.959L290.388,146.83l-70.734,37.623c-0.428-0.428-0.837-0.837-1.265-1.265h-0.102
		L218.285,183.085L218.285,183.085z"/>
	<path style="fill:#F1F2F2;" d="M138.04,145.789l74.612,39.704h-23l-0.938,5.959L13.592,222.065
		c15.99-37.929,50.265-67.184,93.735-74.817C117.776,145.473,128.01,145.055,138.04,145.789z"/>
</g>
<polygon style="fill:#A7A9AC;" points="241.898,436.269 252.347,498.963 179.204,498.963 189.653,436.269 "/>
<polygon style="fill:#E6E7E8;" points="241.898,436.269 189.653,436.269 179.204,436.269 189.653,373.575 241.898,373.575
	252.347,436.269 "/>
<polygon style="fill:#A7A9AC;" points="241.898,310.881 252.347,373.575 241.898,373.575 189.653,373.575 179.204,373.575
	189.653,310.881 "/>
<polygon style="fill:#E6E7E8;" points="241.898,248.187 252.347,310.881 241.898,310.881 189.653,310.881 179.204,310.881
	189.653,248.187 "/>
<polygon style="fill:#A7A9AC;" points="242.735,190.514 252.347,248.187 241.898,248.187 189.653,248.187 179.204,248.187
	188.714,191.452 218.388,186.228 "/>
<g>
	<path style="fill:#231F20;" d="M261.199,488.514l-6.996-41.977c2.367-0.427,4.538-1.65,6.117-3.514
		c1.985-2.344,2.84-5.442,2.334-8.472l-8.451-50.708c2.367-0.427,4.538-1.65,6.117-3.514c1.985-2.344,2.84-5.442,2.334-8.472
		l-8.451-50.708c2.367-0.427,4.538-1.65,6.117-3.514c1.985-2.344,2.84-5.442,2.334-8.472l-8.451-50.708
		c2.367-0.427,4.538-1.65,6.117-3.514c1.985-2.344,2.84-5.442,2.334-8.471l-7.187-43.123l165.916,29.011
		c0.601,0.106,1.203,0.156,1.801,0.156c3.149,0,6.17-1.425,8.172-3.939c2.381-2.99,2.939-7.044,1.456-10.567
		c-18.011-42.75-55.969-73.05-101.562-81.055c-0.002,0-0.004,0-0.005-0.001l77.515-41.19c3.378-1.796,5.507-5.293,5.545-9.121
		c0.04-3.825-2.016-7.367-5.356-9.232c-20.217-11.282-42.481-17.072-65.037-17.188l40.416-32.866
		c2.971-2.417,4.381-6.264,3.678-10.029c-0.704-3.765-3.411-6.842-7.054-8.021C336.728-5,288.96,3.85,253.204,32.962
		c-16.063,13.002-28.815,29.595-37.424,48.345c-8.604-18.749-21.345-35.337-37.386-48.328C142.594,3.852,94.824-5.001,50.6,9.307
		c-3.643,1.179-6.35,4.256-7.054,8.021c-0.705,3.764,0.706,7.611,3.678,10.028l40.723,33.12C64.9,60.444,41.957,66.21,21.668,77.521
		c-3.343,1.863-5.399,5.404-5.36,9.232c0.038,3.826,2.165,7.326,5.544,9.121l79.011,41.99c-43.49,9.193-79.495,38.859-96.899,80.142
		c-1.485,3.523-0.928,7.577,1.454,10.567c2.002,2.515,5.024,3.94,8.173,3.94c0.597,0,1.201-0.051,1.8-0.156l160.578-28.069
		l-7.07,42.171c-0.508,3.03,0.344,6.131,2.329,8.477c1.579,1.866,3.751,3.091,6.119,3.518l-8.451,50.708
		c-0.505,3.03,0.349,6.127,2.334,8.472c1.579,1.864,3.75,3.087,6.117,3.514l-8.451,50.708c-0.505,3.03,0.349,6.127,2.334,8.472
		c1.579,1.864,3.75,3.087,6.117,3.514l-8.451,50.708c-0.505,3.03,0.349,6.127,2.334,8.472c1.579,1.864,3.75,3.087,6.117,3.514
		l-6.996,41.977H0v20.898h512v-20.898H261.199V488.514z M203.63,128.754c-0.001,0.017-0.002,0.033-0.003,0.05 M218.389,196.838
		l15.254,2.684l6.37,38.215h-48.462l6.247-37.276L218.389,196.838z M198.506,321.33h34.541l6.966,41.796h-48.474L198.506,321.33z
		 M191.539,300.432l6.966-41.796h34.541l6.966,41.796H191.539z M198.506,384.024h34.541l6.966,41.796h-48.474L198.506,384.024z
		 M404.038,208.11l-152.517-26.667c-0.242-0.577-0.534-1.124-0.869-1.641l42.937-22.837c11.74-1.487,23.204-1.305,34.074,0.577
		C359.446,163.121,386.855,181.536,404.038,208.11z M285.481,137.605l-53.502,28.456c1.999-7.453,4.771-14.705,8.295-21.698
		l73.047-59.269c22.326-5.981,45.407-5.161,66.805,2.218l-94.641,50.29 M266.373,49.188c24.948-20.313,56.807-28.957,88.212-24.581
		l-52.708,42.862l0,0l-74.034,60.069c-0.32-3.86-0.812-7.733-1.447-11.612C231.67,89.487,245.797,65.841,266.373,49.188z
		 M165.22,49.205c20.542,16.634,34.662,40.281,39.935,66.724c-0.629,3.864-1.118,7.722-1.437,11.56L130.417,68.08l0,0L76.965,24.606
		C108.373,20.231,140.242,28.881,165.22,49.205z M142.945,136.563L50.569,87.469c21.887-7.421,45.872-8.133,68.369-1.794
		l70.469,57.114c3.827,7.434,6.846,15.23,9.031,23.303l-55.488-29.528 M109.077,157.55c8.592-1.459,17.351-1.941,26.073-1.462
		l45.453,24.187c-0.387,0.67-0.696,1.392-0.929,2.151L32.743,208.11C49.931,181.536,77.338,163.123,109.077,157.55z
		 M198.506,446.718h34.541l6.966,41.796h-48.474L198.506,446.718z"/>
	<rect y="363.124" style="fill:#231F20;" width="151.51" height="20.898"/>
</g>
<path style="fill:#FFD248;" d="M464.98,373.575H297.796c0-46.183,37.408-83.592,83.592-83.592S464.98,327.392,464.98,373.575z"/>
<g>
	<path style="fill:#231F20;" d="M474.844,363.126c-5.214-46.954-45.134-83.592-93.457-83.592s-88.243,36.638-93.457,83.592h-16.258
		v20.898h26.122H464.98H512v-20.898H474.844z M308.989,363.126c5.086-35.399,35.615-62.694,72.399-62.694
		s67.313,27.295,72.399,62.694H308.989z"/>
	<rect x="370.939" y="237.736" style="fill:#231F20;" width="20.898" height="31.347"/>

		<rect x="446.694" y="253.219" transform="matrix(-0.7071 -0.7071 0.7071 -0.7071 588.2787 787.0486)" style="fill:#231F20;" width="20.898" height="36.937"/>

		<rect x="287.157" y="261.239" transform="matrix(-0.7071 -0.7071 0.7071 -0.7071 329.6225 679.9108)" style="fill:#231F20;" width="36.937" height="20.898"/>
	<rect x="480.653" y="316.103" style="fill:#231F20;" width="31.347" height="20.898"/>
	<rect x="303.02" y="404.92" style="fill:#231F20;" width="62.694" height="20.898"/>
	<rect x="354.22" y="446.716" style="fill:#231F20;" width="57.469" height="20.898"/>
	<rect x="105.535" y="404.92" style="fill:#231F20;" width="51.2" height="20.898"/>
	<rect x="94.041" y="451.94" style="fill:#231F20;" width="52.245" height="20.898"/>
	<rect x="437.812" y="409.099" style="fill:#231F20;" width="74.188" height="20.898"/>
	<rect y="419.548" style="fill:#231F20;" width="72.098" height="20.898"/>
</g>
</svg>
