<svg>
    <symbol id="allotments" viewBox="0 0 20 20" xmlns="http://www.w3.org/2000/svg">
        <path d="M16.0672 15.1828C16.1252 15.2409 16.1713 15.3098 16.2027 15.3857C16.2342 15.4616 16.2503 15.5429 16.2503 15.625C16.2503 15.7071 16.2342 15.7885 16.2027 15.8643C16.1713 15.9402 16.1252 16.0091 16.0672 16.0672C16.0091 16.1253 15.9402 16.1713 15.8643 16.2028C15.7884 16.2342 15.7071 16.2504 15.625 16.2504C15.5429 16.2504 15.4615 16.2342 15.3857 16.2028C15.3098 16.1713 15.2409 16.1253 15.1828 16.0672L9.99998 10.8836L4.81717 16.0672C4.69989 16.1845 4.54083 16.2504 4.37498 16.2504C4.20913 16.2504 4.05007 16.1845 3.93279 16.0672C3.81552 15.9499 3.74963 15.7909 3.74963 15.625C3.74963 15.4592 3.81552 15.3001 3.93279 15.1828L9.11639 10L3.93279 4.8172C3.81552 4.69992 3.74963 4.54086 3.74963 4.37501C3.74963 4.20916 3.81552 4.0501 3.93279 3.93282C4.05007 3.81555 4.20913 3.74966 4.37498 3.74966C4.54083 3.74966 4.69989 3.81555 4.81717 3.93282L9.99998 9.11642L15.1828 3.93282C15.3001 3.81555 15.4591 3.74966 15.625 3.74966C15.7908 3.74966 15.9499 3.81555 16.0672 3.93282C16.1844 4.0501 16.2503 4.20916 16.2503 4.37501C16.2503 4.54086 16.1844 4.69992 16.0672 4.8172L10.8836 10L16.0672 15.1828Z" />
    </symbol>
    <symbol id="city" viewBox="0 0 512 512" xmlns="http://www.w3.org/2000/svg">
        <rect x="222.563" y="210.892" style="fill:#0F8EE3;" width="134.792" height="268.194"/>
        <rect x="357.355" y="126.955" style="fill:#FFAE18;" width="125.388" height="352.131"/>
        <rect x="32.392" y="32.914" style="fill:#DEDDE1;" width="190.171" height="446.171"/>
        <g>
            <rect x="72.62" y="69.486" style="fill:#918FA9;" width="36.571" height="57.469"/>
            <rect x="145.763" y="69.486" style="fill:#918FA9;" width="36.571" height="57.469"/>
            <rect x="72.62" y="171.886" style="fill:#918FA9;" width="36.571" height="57.469"/>
            <rect x="145.763" y="171.886" style="fill:#918FA9;" width="36.571" height="57.469"/>
            <rect x="72.62" y="274.286" style="fill:#918FA9;" width="36.571" height="57.469"/>
            <rect x="145.763" y="274.286" style="fill:#918FA9;" width="36.571" height="57.469"/>
            <rect x="72.62" y="376.686" style="fill:#918FA9;" width="36.571" height="57.469"/>
            <rect x="145.763" y="376.686" style="fill:#918FA9;" width="36.571" height="57.469"/>
        </g>
        <path d="M109.192,59.037H72.62c-5.771,0-10.449,4.678-10.449,10.449v57.469c0,5.771,4.678,10.449,10.449,10.449h36.571
	c5.771,0,10.449-4.678,10.449-10.449V69.486C119.641,63.715,114.963,59.037,109.192,59.037z M98.743,116.506H83.069V79.935h15.673
	V116.506z"/>
        <path d="M182.335,59.037h-36.571c-5.771,0-10.449,4.678-10.449,10.449v57.469c0,5.771,4.678,10.449,10.449,10.449h36.571
	c5.771,0,10.449-4.678,10.449-10.449V69.486C192.784,63.715,188.106,59.037,182.335,59.037z M171.886,116.506h-15.673V79.935h15.673
	V116.506z"/>
        <path d="M109.192,161.437H72.62c-5.771,0-10.449,4.678-10.449,10.449v57.469c0,5.771,4.678,10.449,10.449,10.449h36.571
	c5.771,0,10.449-4.678,10.449-10.449v-57.469C119.641,166.115,114.963,161.437,109.192,161.437z M98.743,218.906H83.069v-36.571
	h15.673V218.906z"/>
        <path d="M182.335,161.437h-36.571c-5.771,0-10.449,4.678-10.449,10.449v57.469c0,5.771,4.678,10.449,10.449,10.449h36.571
	c5.771,0,10.449-4.678,10.449-10.449v-57.469C192.784,166.115,188.106,161.437,182.335,161.437z M171.886,218.906h-15.673v-36.571
	h15.673V218.906z"/>
        <path d="M109.192,263.837H72.62c-5.771,0-10.449,4.678-10.449,10.449v57.469c0,5.771,4.678,10.449,10.449,10.449h36.571
	c5.771,0,10.449-4.678,10.449-10.449v-57.469C119.641,268.515,114.963,263.837,109.192,263.837z M98.743,321.306H83.069v-36.571
	h15.673V321.306z"/>
        <path d="M182.335,263.837h-36.571c-5.771,0-10.449,4.678-10.449,10.449v57.469c0,5.771,4.678,10.449,10.449,10.449h36.571
	c5.771,0,10.449-4.678,10.449-10.449v-57.469C192.784,268.515,188.106,263.837,182.335,263.837z M171.886,321.306h-15.673v-36.571
	h15.673V321.306z"/>
        <path d="M109.192,366.237H72.62c-5.771,0-10.449,4.678-10.449,10.449v57.469c0,5.771,4.678,10.449,10.449,10.449h36.571
	c5.771,0,10.449-4.678,10.449-10.449v-57.469C119.641,370.915,114.963,366.237,109.192,366.237z M98.743,423.706H83.069v-36.571
	h15.673V423.706z"/>
        <path d="M182.335,366.237h-36.571c-5.771,0-10.449,4.678-10.449,10.449v57.469c0,5.771,4.678,10.449,10.449,10.449h36.571
	c5.771,0,10.449-4.678,10.449-10.449v-57.469C192.784,370.915,188.106,366.237,182.335,366.237z M171.886,423.706h-15.673v-36.571
	h15.673V423.706z"/>
        <path d="M328.719,417.785h-0.137c-5.771,0-10.449,4.678-10.449,10.449c0,5.771,4.678,10.449,10.449,10.449h0.137
	c5.771,0,10.449-4.678,10.449-10.449C339.168,422.463,334.49,417.785,328.719,417.785z"/>
        <path d="M328.719,236.669h-0.137c-5.771,0-10.449,4.678-10.449,10.449s4.678,10.449,10.449,10.449h0.137
	c5.771,0,10.449-4.678,10.449-10.449S334.49,236.669,328.719,236.669z"/>
        <path d="M328.719,272.893h-0.137c-5.771,0-10.449,4.678-10.449,10.449c0,5.771,4.678,10.449,10.449,10.449h0.137
	c5.771,0,10.449-4.678,10.449-10.449C339.168,277.571,334.49,272.893,328.719,272.893z"/>
        <path d="M328.719,309.115h-0.137c-5.771,0-10.449,4.678-10.449,10.449c0,5.771,4.678,10.449,10.449,10.449h0.137
	c5.771,0,10.449-4.678,10.449-10.449C339.168,313.793,334.49,309.115,328.719,309.115z"/>
        <path d="M328.719,345.339h-0.137c-5.771,0-10.449,4.678-10.449,10.449c0,5.771,4.678,10.449,10.449,10.449h0.137
	c5.771,0,10.449-4.678,10.449-10.449C339.168,350.017,334.49,345.339,328.719,345.339z"/>
        <path d="M328.719,381.562h-0.137c-5.771,0-10.449,4.678-10.449,10.449c0,5.771,4.678,10.449,10.449,10.449h0.137
	c5.771,0,10.449-4.678,10.449-10.449C339.168,386.24,334.49,381.562,328.719,381.562z"/>
        <path d="M501.551,468.637h-8.359V126.955c0-5.771-4.678-10.449-10.449-10.449H357.355c-5.771,0-10.449,4.678-10.449,10.449v73.491
	H233.012V32.914c0-5.771-4.678-10.449-10.449-10.449H32.392c-5.771,0-10.449,4.678-10.449,10.449v435.722H10.449
	C4.678,468.637,0,473.315,0,479.086s4.678,10.449,10.449,10.449h472.294h18.808c5.771,0,10.449-4.678,10.449-10.449
	S507.322,468.637,501.551,468.637z M430.498,137.404h10.449v331.233h-10.449V137.404z M409.6,468.637h-10.449V137.404H409.6V468.637
	z M42.841,43.363h169.273v167.532v257.742H42.841V43.363z M233.012,438.683h61.765c5.771,0,10.449-4.678,10.449-10.449
	c0-5.771-4.678-10.449-10.449-10.449h-61.765v-15.326h61.765c5.771,0,10.449-4.678,10.449-10.449
	c0-5.771-4.678-10.449-10.449-10.449h-61.765v-15.324h61.765c5.771,0,10.449-4.678,10.449-10.449
	c0-5.771-4.678-10.449-10.449-10.449h-61.765v-15.326h61.765c5.771,0,10.449-4.678,10.449-10.449
	c0-5.771-4.678-10.449-10.449-10.449h-61.765V293.79h61.765c5.771,0,10.449-4.678,10.449-10.449c0-5.771-4.678-10.449-10.449-10.449
	h-61.765v-15.324h61.765c5.771,0,10.449-4.678,10.449-10.449s-4.678-10.449-10.449-10.449h-61.765v-15.326h113.894v247.293H233.012
	V438.683z M367.804,210.895v-73.491h10.449v331.233h-10.449V210.895z M461.845,468.637V137.404h10.449v331.233H461.845z"/>
    </symbol>
    <symbol id="town" viewBox="0 0 20 20" xmlns="http://www.w3.org/2000/svg">
        <path d="M16.0672 15.1828C16.1252 15.2409 16.1713 15.3098 16.2027 15.3857C16.2342 15.4616 16.2503 15.5429 16.2503 15.625C16.2503 15.7071 16.2342 15.7885 16.2027 15.8643C16.1713 15.9402 16.1252 16.0091 16.0672 16.0672C16.0091 16.1253 15.9402 16.1713 15.8643 16.2028C15.7884 16.2342 15.7071 16.2504 15.625 16.2504C15.5429 16.2504 15.4615 16.2342 15.3857 16.2028C15.3098 16.1713 15.2409 16.1253 15.1828 16.0672L9.99998 10.8836L4.81717 16.0672C4.69989 16.1845 4.54083 16.2504 4.37498 16.2504C4.20913 16.2504 4.05007 16.1845 3.93279 16.0672C3.81552 15.9499 3.74963 15.7909 3.74963 15.625C3.74963 15.4592 3.81552 15.3001 3.93279 15.1828L9.11639 10L3.93279 4.8172C3.81552 4.69992 3.74963 4.54086 3.74963 4.37501C3.74963 4.20916 3.81552 4.0501 3.93279 3.93282C4.05007 3.81555 4.20913 3.74966 4.37498 3.74966C4.54083 3.74966 4.69989 3.81555 4.81717 3.93282L9.99998 9.11642L15.1828 3.93282C15.3001 3.81555 15.4591 3.74966 15.625 3.74966C15.7908 3.74966 15.9499 3.81555 16.0672 3.93282C16.1844 4.0501 16.2503 4.20916 16.2503 4.37501C16.2503 4.54086 16.1844 4.69992 16.0672 4.8172L10.8836 10L16.0672 15.1828Z" />
    </symbol>
    <symbol id="village" viewBox="0 0 512 512" xmlns="http://www.w3.org/2000/svg">
        <path style="fill:#63ABA1;" d="M149.842,210.617l-18.704-32.724c-8.911-15.611-30.916-28.378-48.891-28.378H49.566v136.17
	l130.723-21.787L149.842,210.617z"/>
        <path style="fill:#83C49A;" d="M98.457,177.893l49.152,86.005l-98.043,21.787L8.715,263.898V149.515h40.851
	C67.54,149.515,89.546,162.282,98.457,177.893z"/>
        <polygon style="fill:#FFE0A2;" points="421.028,152.783 370.918,190.366 370.918,223.047 471.139,223.047 471.139,190.366 "/>
        <polygon style="fill:#FFFFFF;" points="421.028,185.464 370.918,223.047 370.918,285.685 471.139,285.685 471.139,223.047 "/>
        <path style="fill:#D3552B;" d="M421.028,272.068c-4.512,0-8.17-3.657-8.17-8.17v-32.681c0-4.513,3.658-8.17,8.17-8.17
	c4.512,0,8.17,3.657,8.17,8.17v32.681C429.199,268.411,425.541,272.068,421.028,272.068z"/>
        <polygon style="fill:#A3DC93;" points="472.238,263.898 450.451,385.906 472.238,507.915 504.919,507.915 504.919,263.898 "/>
        <rect x="9.26" y="263.898" style="fill:#CAED73;" width="462.979" height="244.017"/>
        <polygon style="fill:#FFE0A2;" points="92.061,296.579 41.95,334.162 41.95,366.843 142.172,366.843 142.172,334.162 "/>
        <polygon style="fill:#FFFFFF;" points="92.061,329.26 41.95,366.843 41.95,407.694 142.172,407.694 142.172,366.843 "/>
        <path style="fill:#D3552B;" d="M92.061,415.864c-4.512,0-8.17-3.657-8.17-8.17v-32.681c0-4.513,3.658-8.17,8.17-8.17
	c4.512,0,8.17,3.657,8.17,8.17v32.681C100.231,412.207,96.573,415.864,92.061,415.864z"/>
        <polygon style="fill:#FFE0A2;" points="142.172,375.013 92.061,412.596 92.061,445.277 192.282,445.277 192.282,412.596 "/>
        <polygon style="fill:#FFFFFF;" points="142.172,407.694 92.061,445.277 92.061,486.128 192.282,486.128 192.282,445.277 "/>
        <path style="fill:#D3552B;" d="M142.172,494.298c-4.512,0-8.17-3.657-8.17-8.17v-32.681c0-4.513,3.658-8.17,8.17-8.17
	s8.17,3.657,8.17,8.17v32.681C150.342,490.641,146.684,494.298,142.172,494.298z"/>
        <polygon style="fill:#FFE0A2;" points="294.663,377.191 294.663,420.766 414.492,475.234 447.173,475.234 447.173,377.191 "/>
        <polygon style="fill:#FFFFFF;" points="305.556,420.766 316.45,475.234 414.492,475.234 414.492,420.766 "/>
        <polygon style="fill:#D3552B;" points="436.28,342.332 316.45,342.332 316.45,388.085 458.067,388.085 "/>
        <polygon style="fill:#FFE0A2;" points="251.088,244.289 316.45,244.289 316.45,190.366 283.769,165.855 251.088,190.366 "/>
        <polygon style="fill:#FFFFFF;" points="251.088,475.234 316.45,475.234 316.45,223.047 283.769,198.536 251.088,223.047 "/>
        <path style="fill:#D3552B;" d="M283.769,483.404c-4.512,0-8.17-3.657-8.17-8.17v-32.681c0-4.513,3.658-8.17,8.17-8.17
	c4.512,0,8.17,3.657,8.17,8.17v32.681C291.939,479.747,288.281,483.404,283.769,483.404z"/>
        <rect x="251.087" y="296.579" style="fill:#FFE0A2;" width="65.362" height="32.681"/>
        <g>
            <path style="fill:#B3EFFF;" d="M436.289,66.723h-32.681V12.255h32.681c15.044,0,27.234,12.19,27.234,27.234
		S451.333,66.723,436.289,66.723z"/>
            <path style="fill:#B3EFFF;" d="M297.396,66.723l-59.915-21.787v49.021h32.681C285.206,93.957,297.396,81.767,297.396,66.723z"/>
        </g>
        <path style="fill:#D9F7FF;" d="M403.608,66.723c15.044,0,27.234-12.19,27.234-27.234s-12.19-27.234-27.234-27.234H212.97
	c-15.044,0-27.234,12.19-27.234,27.234H76.8c-15.044,0-27.234,12.19-27.234,27.234S61.756,93.957,76.8,93.957h160.681
	c15.044,0,27.234-12.19,27.234-27.234h32.681H403.608z"/>
        <path d="M503.83,255.728h-24.52v-49.501c0.883,0.313,1.801,0.479,2.717,0.479c2.484,0,4.938-1.127,6.543-3.268
	c2.707-3.609,1.975-8.731-1.634-11.438l-61.004-45.753c-2.905-2.179-6.899-2.179-9.804,0L355.122,192
	c-3.609,2.707-4.341,7.829-1.634,11.438c2.196,2.929,5.982,3.962,9.26,2.803v49.486H324.62v-49.501
	c0.883,0.313,1.801,0.479,2.717,0.479c2.484,0,4.938-1.127,6.543-3.268c2.707-3.609,1.976-8.731-1.634-11.438l-40.306-30.23v-39.489
	c0-4.513-3.658-8.17-8.17-8.17c-4.512,0-8.17,3.657-8.17,8.17v39.489L235.292,192c-3.61,2.707-4.341,7.829-1.634,11.438
	c2.197,2.929,5.982,3.962,9.26,2.803v49.486H185.03l-46.795-81.893c-10.412-18.22-35.006-32.49-55.989-32.49H8.715
	c-4.512,0-8.17,3.657-8.17,8.17s3.658,8.17,8.17,8.17h73.532c15.144,0,34.288,11.108,41.802,24.258l42.163,73.785H8.17
	c-4.512,0-8.17,3.657-8.17,8.17c0,4.513,3.658,8.17,8.17,8.17h172.11c0.033,0,62.637,0,62.637,0v16.34h-2.723
	c-4.512,0-8.17,3.657-8.17,8.17c0,4.513,3.658,8.17,8.17,8.17h2.723v170.485c0,4.513,3.658,8.17,8.17,8.17h196.085
	c4.512,0,8.17-3.657,8.17-8.17v-78.979h2.723c2.804,0,5.412-1.437,6.909-3.808c1.497-2.37,1.673-5.342,0.468-7.875l-21.787-45.753
	c-1.355-2.844-4.226-4.657-7.376-4.657h-111.66v-29.413h2.723c4.512,0,8.17-3.657,8.17-8.17c0-4.513-3.658-8.17-8.17-8.17h-2.723
	v-16.34H503.83c4.512,0,8.17-3.657,8.17-8.17C512,259.385,508.342,255.728,503.83,255.728z M439.003,467.064H324.62v-70.809h114.383
	V467.064z M431.12,350.502l14.006,29.413H324.62v-29.413H431.12z M308.28,467.064h-49.021V304.749h49.021V467.064z M259.258,288.409
	v-93.957l24.511-18.383l24.511,18.383v93.957H259.258z M379.088,194.451l41.94-31.455l41.94,31.455v61.277h-33.77v-24.511
	c0-4.513-3.658-8.17-8.17-8.17c-4.512,0-8.17,3.657-8.17,8.17v24.511h-33.77V194.451z"/>
        <path d="M208.078,414.23l-57.736-43.302v-20.905c0.883,0.313,1.801,0.479,2.717,0.479c2.484,0,4.938-1.127,6.543-3.268
	c2.707-3.609,1.975-8.731-1.634-11.438l-61.004-45.753c-2.905-2.179-6.899-2.179-9.804,0l-61.004,45.753
	c-3.609,2.707-4.341,7.829-1.634,11.438c2.197,2.929,5.982,3.963,9.26,2.803v57.657c0,4.513,3.658,8.17,8.17,8.17h10.894
	c4.512,0,8.17-3.657,8.17-8.17s-3.658-8.17-8.17-8.17H50.12v-61.277l41.94-31.455l41.94,31.455v32.681l-33.77,25.328v-21.243
	c0-4.513-3.658-8.17-8.17-8.17c-4.512,0-8.17,3.657-8.17,8.17v32.681c0,0.266,0.015,0.528,0.039,0.788l-7.665,5.749
	c-3.609,2.707-4.341,7.829-1.634,11.438c2.196,2.929,5.982,3.962,9.26,2.802v57.658c0,4.513,3.658,8.17,8.17,8.17h100.221
	c4.512,0,8.17-3.657,8.17-8.17v-57.671c0.883,0.313,1.801,0.479,2.717,0.479c2.484,0,4.938-1.128,6.543-3.268
	C212.42,422.059,211.688,416.937,208.078,414.23z M150.342,477.957v-24.511c0-4.513-3.658-8.17-8.17-8.17s-8.17,3.657-8.17,8.17
	v24.511h-33.77v-61.277l41.94-31.455l41.94,31.455v61.277H150.342z"/>
        <path d="M76.8,102.128h193.362c16.711,0,30.755-11.638,34.452-27.234h131.675c19.521,0,35.404-15.882,35.404-35.404
	S455.811,4.085,436.289,4.085h-32.681c-4.512,0-8.17,3.657-8.17,8.17s3.658,8.17,8.17,8.17h32.681
	c10.511,0,19.064,8.553,19.064,19.064s-8.553,19.064-19.064,19.064H297.396c-4.512,0-8.17,3.657-8.17,8.17
	c0,10.511-8.553,19.064-19.064,19.064H76.8c-10.511,0-19.064-8.553-19.064-19.064S66.289,47.66,76.8,47.66h108.936
	c4.512,0,8.17-3.657,8.17-8.17c0-10.511,8.553-19.064,19.064-19.064h157.957c4.512,0,8.17-3.657,8.17-8.17s-3.658-8.17-8.17-8.17
	H212.97c-16.711,0-30.755,11.638-34.452,27.234H76.8c-19.521,0-35.404,15.882-35.404,35.404S57.279,102.128,76.8,102.128z"/>
        <path d="M41.94,456.17c-4.512,0-8.17,3.657-8.17,8.17v10.894c0,4.513,3.658,8.17,8.17,8.17s8.17-3.657,8.17-8.17V464.34
	C50.111,459.827,46.453,456.17,41.94,456.17z"/>
        <path d="M205.345,336.34c-4.512,0-8.17,3.657-8.17,8.17v10.894c0,4.513,3.658,8.17,8.17,8.17c4.512,0,8.17-3.657,8.17-8.17v-10.894
	C213.515,339.997,209.857,336.34,205.345,336.34z"/>
        <path d="M472.238,288.409c-4.512,0-8.17,3.657-8.17,8.17v10.894c0,4.513,3.658,8.17,8.17,8.17s8.17-3.657,8.17-8.17v-10.894
	C480.409,292.065,476.75,288.409,472.238,288.409z"/>
        <circle cx="283.768" cy="217.6" r="8.17"/>
    </symbol>
    <symbol id="capital" viewBox="0 0 20 20" xmlns="http://www.w3.org/2000/svg">
        <path d="M16.0672 15.1828C16.1252 15.2409 16.1713 15.3098 16.2027 15.3857C16.2342 15.4616 16.2503 15.5429 16.2503 15.625C16.2503 15.7071 16.2342 15.7885 16.2027 15.8643C16.1713 15.9402 16.1252 16.0091 16.0672 16.0672C16.0091 16.1253 15.9402 16.1713 15.8643 16.2028C15.7884 16.2342 15.7071 16.2504 15.625 16.2504C15.5429 16.2504 15.4615 16.2342 15.3857 16.2028C15.3098 16.1713 15.2409 16.1253 15.1828 16.0672L9.99998 10.8836L4.81717 16.0672C4.69989 16.1845 4.54083 16.2504 4.37498 16.2504C4.20913 16.2504 4.05007 16.1845 3.93279 16.0672C3.81552 15.9499 3.74963 15.7909 3.74963 15.625C3.74963 15.4592 3.81552 15.3001 3.93279 15.1828L9.11639 10L3.93279 4.8172C3.81552 4.69992 3.74963 4.54086 3.74963 4.37501C3.74963 4.20916 3.81552 4.0501 3.93279 3.93282C4.05007 3.81555 4.20913 3.74966 4.37498 3.74966C4.54083 3.74966 4.69989 3.81555 4.81717 3.93282L9.99998 9.11642L15.1828 3.93282C15.3001 3.81555 15.4591 3.74966 15.625 3.74966C15.7908 3.74966 15.9499 3.81555 16.0672 3.93282C16.1844 4.0501 16.2503 4.20916 16.2503 4.37501C16.2503 4.54086 16.1844 4.69992 16.0672 4.8172L10.8836 10L16.0672 15.1828Z" />
    </symbol>
    <symbol id="state" viewBox="0 0 20 20" xmlns="http://www.w3.org/2000/svg">
        <path d="M16.0672 15.1828C16.1252 15.2409 16.1713 15.3098 16.2027 15.3857C16.2342 15.4616 16.2503 15.5429 16.2503 15.625C16.2503 15.7071 16.2342 15.7885 16.2027 15.8643C16.1713 15.9402 16.1252 16.0091 16.0672 16.0672C16.0091 16.1253 15.9402 16.1713 15.8643 16.2028C15.7884 16.2342 15.7071 16.2504 15.625 16.2504C15.5429 16.2504 15.4615 16.2342 15.3857 16.2028C15.3098 16.1713 15.2409 16.1253 15.1828 16.0672L9.99998 10.8836L4.81717 16.0672C4.69989 16.1845 4.54083 16.2504 4.37498 16.2504C4.20913 16.2504 4.05007 16.1845 3.93279 16.0672C3.81552 15.9499 3.74963 15.7909 3.74963 15.625C3.74963 15.4592 3.81552 15.3001 3.93279 15.1828L9.11639 10L3.93279 4.8172C3.81552 4.69992 3.74963 4.54086 3.74963 4.37501C3.74963 4.20916 3.81552 4.0501 3.93279 3.93282C4.05007 3.81555 4.20913 3.74966 4.37498 3.74966C4.54083 3.74966 4.69989 3.81555 4.81717 3.93282L9.99998 9.11642L15.1828 3.93282C15.3001 3.81555 15.4591 3.74966 15.625 3.74966C15.7908 3.74966 15.9499 3.81555 16.0672 3.93282C16.1844 4.0501 16.2503 4.20916 16.2503 4.37501C16.2503 4.54086 16.1844 4.69992 16.0672 4.8172L10.8836 10L16.0672 15.1828Z" />
    </symbol>
    <symbol id="county" viewBox="0 0 20 20" xmlns="http://www.w3.org/2000/svg">
        <path d="M16.0672 15.1828C16.1252 15.2409 16.1713 15.3098 16.2027 15.3857C16.2342 15.4616 16.2503 15.5429 16.2503 15.625C16.2503 15.7071 16.2342 15.7885 16.2027 15.8643C16.1713 15.9402 16.1252 16.0091 16.0672 16.0672C16.0091 16.1253 15.9402 16.1713 15.8643 16.2028C15.7884 16.2342 15.7071 16.2504 15.625 16.2504C15.5429 16.2504 15.4615 16.2342 15.3857 16.2028C15.3098 16.1713 15.2409 16.1253 15.1828 16.0672L9.99998 10.8836L4.81717 16.0672C4.69989 16.1845 4.54083 16.2504 4.37498 16.2504C4.20913 16.2504 4.05007 16.1845 3.93279 16.0672C3.81552 15.9499 3.74963 15.7909 3.74963 15.625C3.74963 15.4592 3.81552 15.3001 3.93279 15.1828L9.11639 10L3.93279 4.8172C3.81552 4.69992 3.74963 4.54086 3.74963 4.37501C3.74963 4.20916 3.81552 4.0501 3.93279 3.93282C4.05007 3.81555 4.20913 3.74966 4.37498 3.74966C4.54083 3.74966 4.69989 3.81555 4.81717 3.93282L9.99998 9.11642L15.1828 3.93282C15.3001 3.81555 15.4591 3.74966 15.625 3.74966C15.7908 3.74966 15.9499 3.81555 16.0672 3.93282C16.1844 4.0501 16.2503 4.20916 16.2503 4.37501C16.2503 4.54086 16.1844 4.69992 16.0672 4.8172L10.8836 10L16.0672 15.1828Z" />
    </symbol>
    <symbol id="country" viewBox="0 0 20 20" xmlns="http://www.w3.org/2000/svg">
        <path d="M16.0672 15.1828C16.1252 15.2409 16.1713 15.3098 16.2027 15.3857C16.2342 15.4616 16.2503 15.5429 16.2503 15.625C16.2503 15.7071 16.2342 15.7885 16.2027 15.8643C16.1713 15.9402 16.1252 16.0091 16.0672 16.0672C16.0091 16.1253 15.9402 16.1713 15.8643 16.2028C15.7884 16.2342 15.7071 16.2504 15.625 16.2504C15.5429 16.2504 15.4615 16.2342 15.3857 16.2028C15.3098 16.1713 15.2409 16.1253 15.1828 16.0672L9.99998 10.8836L4.81717 16.0672C4.69989 16.1845 4.54083 16.2504 4.37498 16.2504C4.20913 16.2504 4.05007 16.1845 3.93279 16.0672C3.81552 15.9499 3.74963 15.7909 3.74963 15.625C3.74963 15.4592 3.81552 15.3001 3.93279 15.1828L9.11639 10L3.93279 4.8172C3.81552 4.69992 3.74963 4.54086 3.74963 4.37501C3.74963 4.20916 3.81552 4.0501 3.93279 3.93282C4.05007 3.81555 4.20913 3.74966 4.37498 3.74966C4.54083 3.74966 4.69989 3.81555 4.81717 3.93282L9.99998 9.11642L15.1828 3.93282C15.3001 3.81555 15.4591 3.74966 15.625 3.74966C15.7908 3.74966 15.9499 3.81555 16.0672 3.93282C16.1844 4.0501 16.2503 4.20916 16.2503 4.37501C16.2503 4.54086 16.1844 4.69992 16.0672 4.8172L10.8836 10L16.0672 15.1828Z" />
    </symbol>
    <symbol id="island" viewBox="0 0 20 20" xmlns="http://www.w3.org/2000/svg">
        <path d="M16.0672 15.1828C16.1252 15.2409 16.1713 15.3098 16.2027 15.3857C16.2342 15.4616 16.2503 15.5429 16.2503 15.625C16.2503 15.7071 16.2342 15.7885 16.2027 15.8643C16.1713 15.9402 16.1252 16.0091 16.0672 16.0672C16.0091 16.1253 15.9402 16.1713 15.8643 16.2028C15.7884 16.2342 15.7071 16.2504 15.625 16.2504C15.5429 16.2504 15.4615 16.2342 15.3857 16.2028C15.3098 16.1713 15.2409 16.1253 15.1828 16.0672L9.99998 10.8836L4.81717 16.0672C4.69989 16.1845 4.54083 16.2504 4.37498 16.2504C4.20913 16.2504 4.05007 16.1845 3.93279 16.0672C3.81552 15.9499 3.74963 15.7909 3.74963 15.625C3.74963 15.4592 3.81552 15.3001 3.93279 15.1828L9.11639 10L3.93279 4.8172C3.81552 4.69992 3.74963 4.54086 3.74963 4.37501C3.74963 4.20916 3.81552 4.0501 3.93279 3.93282C4.05007 3.81555 4.20913 3.74966 4.37498 3.74966C4.54083 3.74966 4.69989 3.81555 4.81717 3.93282L9.99998 9.11642L15.1828 3.93282C15.3001 3.81555 15.4591 3.74966 15.625 3.74966C15.7908 3.74966 15.9499 3.81555 16.0672 3.93282C16.1844 4.0501 16.2503 4.20916 16.2503 4.37501C16.2503 4.54086 16.1844 4.69992 16.0672 4.8172L10.8836 10L16.0672 15.1828Z" />
    </symbol>
    <symbol id="hamlet" viewBox="0 0 20 20" xmlns="http://www.w3.org/2000/svg">
        <path d="M16.0672 15.1828C16.1252 15.2409 16.1713 15.3098 16.2027 15.3857C16.2342 15.4616 16.2503 15.5429 16.2503 15.625C16.2503 15.7071 16.2342 15.7885 16.2027 15.8643C16.1713 15.9402 16.1252 16.0091 16.0672 16.0672C16.0091 16.1253 15.9402 16.1713 15.8643 16.2028C15.7884 16.2342 15.7071 16.2504 15.625 16.2504C15.5429 16.2504 15.4615 16.2342 15.3857 16.2028C15.3098 16.1713 15.2409 16.1253 15.1828 16.0672L9.99998 10.8836L4.81717 16.0672C4.69989 16.1845 4.54083 16.2504 4.37498 16.2504C4.20913 16.2504 4.05007 16.1845 3.93279 16.0672C3.81552 15.9499 3.74963 15.7909 3.74963 15.625C3.74963 15.4592 3.81552 15.3001 3.93279 15.1828L9.11639 10L3.93279 4.8172C3.81552 4.69992 3.74963 4.54086 3.74963 4.37501C3.74963 4.20916 3.81552 4.0501 3.93279 3.93282C4.05007 3.81555 4.20913 3.74966 4.37498 3.74966C4.54083 3.74966 4.69989 3.81555 4.81717 3.93282L9.99998 9.11642L15.1828 3.93282C15.3001 3.81555 15.4591 3.74966 15.625 3.74966C15.7908 3.74966 15.9499 3.81555 16.0672 3.93282C16.1844 4.0501 16.2503 4.20916 16.2503 4.37501C16.2503 4.54086 16.1844 4.69992 16.0672 4.8172L10.8836 10L16.0672 15.1828Z" />
    </symbol>
    <symbol id="archipelago" viewBox="0 0 20 20" xmlns="http://www.w3.org/2000/svg">
        <path d="M16.0672 15.1828C16.1252 15.2409 16.1713 15.3098 16.2027 15.3857C16.2342 15.4616 16.2503 15.5429 16.2503 15.625C16.2503 15.7071 16.2342 15.7885 16.2027 15.8643C16.1713 15.9402 16.1252 16.0091 16.0672 16.0672C16.0091 16.1253 15.9402 16.1713 15.8643 16.2028C15.7884 16.2342 15.7071 16.2504 15.625 16.2504C15.5429 16.2504 15.4615 16.2342 15.3857 16.2028C15.3098 16.1713 15.2409 16.1253 15.1828 16.0672L9.99998 10.8836L4.81717 16.0672C4.69989 16.1845 4.54083 16.2504 4.37498 16.2504C4.20913 16.2504 4.05007 16.1845 3.93279 16.0672C3.81552 15.9499 3.74963 15.7909 3.74963 15.625C3.74963 15.4592 3.81552 15.3001 3.93279 15.1828L9.11639 10L3.93279 4.8172C3.81552 4.69992 3.74963 4.54086 3.74963 4.37501C3.74963 4.20916 3.81552 4.0501 3.93279 3.93282C4.05007 3.81555 4.20913 3.74966 4.37498 3.74966C4.54083 3.74966 4.69989 3.81555 4.81717 3.93282L9.99998 9.11642L15.1828 3.93282C15.3001 3.81555 15.4591 3.74966 15.625 3.74966C15.7908 3.74966 15.9499 3.81555 16.0672 3.93282C16.1844 4.0501 16.2503 4.20916 16.2503 4.37501C16.2503 4.54086 16.1844 4.69992 16.0672 4.8172L10.8836 10L16.0672 15.1828Z" />
    </symbol>
    <symbol id="borough" viewBox="0 0 20 20" xmlns="http://www.w3.org/2000/svg">
        <path d="M16.0672 15.1828C16.1252 15.2409 16.1713 15.3098 16.2027 15.3857C16.2342 15.4616 16.2503 15.5429 16.2503 15.625C16.2503 15.7071 16.2342 15.7885 16.2027 15.8643C16.1713 15.9402 16.1252 16.0091 16.0672 16.0672C16.0091 16.1253 15.9402 16.1713 15.8643 16.2028C15.7884 16.2342 15.7071 16.2504 15.625 16.2504C15.5429 16.2504 15.4615 16.2342 15.3857 16.2028C15.3098 16.1713 15.2409 16.1253 15.1828 16.0672L9.99998 10.8836L4.81717 16.0672C4.69989 16.1845 4.54083 16.2504 4.37498 16.2504C4.20913 16.2504 4.05007 16.1845 3.93279 16.0672C3.81552 15.9499 3.74963 15.7909 3.74963 15.625C3.74963 15.4592 3.81552 15.3001 3.93279 15.1828L9.11639 10L3.93279 4.8172C3.81552 4.69992 3.74963 4.54086 3.74963 4.37501C3.74963 4.20916 3.81552 4.0501 3.93279 3.93282C4.05007 3.81555 4.20913 3.74966 4.37498 3.74966C4.54083 3.74966 4.69989 3.81555 4.81717 3.93282L9.99998 9.11642L15.1828 3.93282C15.3001 3.81555 15.4591 3.74966 15.625 3.74966C15.7908 3.74966 15.9499 3.81555 16.0672 3.93282C16.1844 4.0501 16.2503 4.20916 16.2503 4.37501C16.2503 4.54086 16.1844 4.69992 16.0672 4.8172L10.8836 10L16.0672 15.1828Z" />
    </symbol>
    <symbol id="city_block" viewBox="0 0 20 20" xmlns="http://www.w3.org/2000/svg">
        <path d="M16.0672 15.1828C16.1252 15.2409 16.1713 15.3098 16.2027 15.3857C16.2342 15.4616 16.2503 15.5429 16.2503 15.625C16.2503 15.7071 16.2342 15.7885 16.2027 15.8643C16.1713 15.9402 16.1252 16.0091 16.0672 16.0672C16.0091 16.1253 15.9402 16.1713 15.8643 16.2028C15.7884 16.2342 15.7071 16.2504 15.625 16.2504C15.5429 16.2504 15.4615 16.2342 15.3857 16.2028C15.3098 16.1713 15.2409 16.1253 15.1828 16.0672L9.99998 10.8836L4.81717 16.0672C4.69989 16.1845 4.54083 16.2504 4.37498 16.2504C4.20913 16.2504 4.05007 16.1845 3.93279 16.0672C3.81552 15.9499 3.74963 15.7909 3.74963 15.625C3.74963 15.4592 3.81552 15.3001 3.93279 15.1828L9.11639 10L3.93279 4.8172C3.81552 4.69992 3.74963 4.54086 3.74963 4.37501C3.74963 4.20916 3.81552 4.0501 3.93279 3.93282C4.05007 3.81555 4.20913 3.74966 4.37498 3.74966C4.54083 3.74966 4.69989 3.81555 4.81717 3.93282L9.99998 9.11642L15.1828 3.93282C15.3001 3.81555 15.4591 3.74966 15.625 3.74966C15.7908 3.74966 15.9499 3.81555 16.0672 3.93282C16.1844 4.0501 16.2503 4.20916 16.2503 4.37501C16.2503 4.54086 16.1844 4.69992 16.0672 4.8172L10.8836 10L16.0672 15.1828Z" />
    </symbol>
    <symbol id="continent" viewBox="0 0 20 20" xmlns="http://www.w3.org/2000/svg">
        <path d="M16.0672 15.1828C16.1252 15.2409 16.1713 15.3098 16.2027 15.3857C16.2342 15.4616 16.2503 15.5429 16.2503 15.625C16.2503 15.7071 16.2342 15.7885 16.2027 15.8643C16.1713 15.9402 16.1252 16.0091 16.0672 16.0672C16.0091 16.1253 15.9402 16.1713 15.8643 16.2028C15.7884 16.2342 15.7071 16.2504 15.625 16.2504C15.5429 16.2504 15.4615 16.2342 15.3857 16.2028C15.3098 16.1713 15.2409 16.1253 15.1828 16.0672L9.99998 10.8836L4.81717 16.0672C4.69989 16.1845 4.54083 16.2504 4.37498 16.2504C4.20913 16.2504 4.05007 16.1845 3.93279 16.0672C3.81552 15.9499 3.74963 15.7909 3.74963 15.625C3.74963 15.4592 3.81552 15.3001 3.93279 15.1828L9.11639 10L3.93279 4.8172C3.81552 4.69992 3.74963 4.54086 3.74963 4.37501C3.74963 4.20916 3.81552 4.0501 3.93279 3.93282C4.05007 3.81555 4.20913 3.74966 4.37498 3.74966C4.54083 3.74966 4.69989 3.81555 4.81717 3.93282L9.99998 9.11642L15.1828 3.93282C15.3001 3.81555 15.4591 3.74966 15.625 3.74966C15.7908 3.74966 15.9499 3.81555 16.0672 3.93282C16.1844 4.0501 16.2503 4.20916 16.2503 4.37501C16.2503 4.54086 16.1844 4.69992 16.0672 4.8172L10.8836 10L16.0672 15.1828Z" />
    </symbol>
    <symbol id="district" viewBox="0 0 20 20" xmlns="http://www.w3.org/2000/svg">
        <path d="M16.0672 15.1828C16.1252 15.2409 16.1713 15.3098 16.2027 15.3857C16.2342 15.4616 16.2503 15.5429 16.2503 15.625C16.2503 15.7071 16.2342 15.7885 16.2027 15.8643C16.1713 15.9402 16.1252 16.0091 16.0672 16.0672C16.0091 16.1253 15.9402 16.1713 15.8643 16.2028C15.7884 16.2342 15.7071 16.2504 15.625 16.2504C15.5429 16.2504 15.4615 16.2342 15.3857 16.2028C15.3098 16.1713 15.2409 16.1253 15.1828 16.0672L9.99998 10.8836L4.81717 16.0672C4.69989 16.1845 4.54083 16.2504 4.37498 16.2504C4.20913 16.2504 4.05007 16.1845 3.93279 16.0672C3.81552 15.9499 3.74963 15.7909 3.74963 15.625C3.74963 15.4592 3.81552 15.3001 3.93279 15.1828L9.11639 10L3.93279 4.8172C3.81552 4.69992 3.74963 4.54086 3.74963 4.37501C3.74963 4.20916 3.81552 4.0501 3.93279 3.93282C4.05007 3.81555 4.20913 3.74966 4.37498 3.74966C4.54083 3.74966 4.69989 3.81555 4.81717 3.93282L9.99998 9.11642L15.1828 3.93282C15.3001 3.81555 15.4591 3.74966 15.625 3.74966C15.7908 3.74966 15.9499 3.81555 16.0672 3.93282C16.1844 4.0501 16.2503 4.20916 16.2503 4.37501C16.2503 4.54086 16.1844 4.69992 16.0672 4.8172L10.8836 10L16.0672 15.1828Z" />
    </symbol>
    <symbol id="farm" viewBox="0 0 20 20" xmlns="http://www.w3.org/2000/svg">
        <path d="M16.0672 15.1828C16.1252 15.2409 16.1713 15.3098 16.2027 15.3857C16.2342 15.4616 16.2503 15.5429 16.2503 15.625C16.2503 15.7071 16.2342 15.7885 16.2027 15.8643C16.1713 15.9402 16.1252 16.0091 16.0672 16.0672C16.0091 16.1253 15.9402 16.1713 15.8643 16.2028C15.7884 16.2342 15.7071 16.2504 15.625 16.2504C15.5429 16.2504 15.4615 16.2342 15.3857 16.2028C15.3098 16.1713 15.2409 16.1253 15.1828 16.0672L9.99998 10.8836L4.81717 16.0672C4.69989 16.1845 4.54083 16.2504 4.37498 16.2504C4.20913 16.2504 4.05007 16.1845 3.93279 16.0672C3.81552 15.9499 3.74963 15.7909 3.74963 15.625C3.74963 15.4592 3.81552 15.3001 3.93279 15.1828L9.11639 10L3.93279 4.8172C3.81552 4.69992 3.74963 4.54086 3.74963 4.37501C3.74963 4.20916 3.81552 4.0501 3.93279 3.93282C4.05007 3.81555 4.20913 3.74966 4.37498 3.74966C4.54083 3.74966 4.69989 3.81555 4.81717 3.93282L9.99998 9.11642L15.1828 3.93282C15.3001 3.81555 15.4591 3.74966 15.625 3.74966C15.7908 3.74966 15.9499 3.81555 16.0672 3.93282C16.1844 4.0501 16.2503 4.20916 16.2503 4.37501C16.2503 4.54086 16.1844 4.69992 16.0672 4.8172L10.8836 10L16.0672 15.1828Z" />
    </symbol>
    <symbol id="islet" viewBox="0 0 20 20" xmlns="http://www.w3.org/2000/svg">
        <path d="M16.0672 15.1828C16.1252 15.2409 16.1713 15.3098 16.2027 15.3857C16.2342 15.4616 16.2503 15.5429 16.2503 15.625C16.2503 15.7071 16.2342 15.7885 16.2027 15.8643C16.1713 15.9402 16.1252 16.0091 16.0672 16.0672C16.0091 16.1253 15.9402 16.1713 15.8643 16.2028C15.7884 16.2342 15.7071 16.2504 15.625 16.2504C15.5429 16.2504 15.4615 16.2342 15.3857 16.2028C15.3098 16.1713 15.2409 16.1253 15.1828 16.0672L9.99998 10.8836L4.81717 16.0672C4.69989 16.1845 4.54083 16.2504 4.37498 16.2504C4.20913 16.2504 4.05007 16.1845 3.93279 16.0672C3.81552 15.9499 3.74963 15.7909 3.74963 15.625C3.74963 15.4592 3.81552 15.3001 3.93279 15.1828L9.11639 10L3.93279 4.8172C3.81552 4.69992 3.74963 4.54086 3.74963 4.37501C3.74963 4.20916 3.81552 4.0501 3.93279 3.93282C4.05007 3.81555 4.20913 3.74966 4.37498 3.74966C4.54083 3.74966 4.69989 3.81555 4.81717 3.93282L9.99998 9.11642L15.1828 3.93282C15.3001 3.81555 15.4591 3.74966 15.625 3.74966C15.7908 3.74966 15.9499 3.81555 16.0672 3.93282C16.1844 4.0501 16.2503 4.20916 16.2503 4.37501C16.2503 4.54086 16.1844 4.69992 16.0672 4.8172L10.8836 10L16.0672 15.1828Z" />
    </symbol>
    <symbol id="isolated_dwelling" viewBox="0 0 20 20" xmlns="http://www.w3.org/2000/svg">
        <path d="M16.0672 15.1828C16.1252 15.2409 16.1713 15.3098 16.2027 15.3857C16.2342 15.4616 16.2503 15.5429 16.2503 15.625C16.2503 15.7071 16.2342 15.7885 16.2027 15.8643C16.1713 15.9402 16.1252 16.0091 16.0672 16.0672C16.0091 16.1253 15.9402 16.1713 15.8643 16.2028C15.7884 16.2342 15.7071 16.2504 15.625 16.2504C15.5429 16.2504 15.4615 16.2342 15.3857 16.2028C15.3098 16.1713 15.2409 16.1253 15.1828 16.0672L9.99998 10.8836L4.81717 16.0672C4.69989 16.1845 4.54083 16.2504 4.37498 16.2504C4.20913 16.2504 4.05007 16.1845 3.93279 16.0672C3.81552 15.9499 3.74963 15.7909 3.74963 15.625C3.74963 15.4592 3.81552 15.3001 3.93279 15.1828L9.11639 10L3.93279 4.8172C3.81552 4.69992 3.74963 4.54086 3.74963 4.37501C3.74963 4.20916 3.81552 4.0501 3.93279 3.93282C4.05007 3.81555 4.20913 3.74966 4.37498 3.74966C4.54083 3.74966 4.69989 3.81555 4.81717 3.93282L9.99998 9.11642L15.1828 3.93282C15.3001 3.81555 15.4591 3.74966 15.625 3.74966C15.7908 3.74966 15.9499 3.81555 16.0672 3.93282C16.1844 4.0501 16.2503 4.20916 16.2503 4.37501C16.2503 4.54086 16.1844 4.69992 16.0672 4.8172L10.8836 10L16.0672 15.1828Z" />
    </symbol>
    <symbol id="locality" viewBox="0 0 20 20" xmlns="http://www.w3.org/2000/svg">
        <path d="M16.0672 15.1828C16.1252 15.2409 16.1713 15.3098 16.2027 15.3857C16.2342 15.4616 16.2503 15.5429 16.2503 15.625C16.2503 15.7071 16.2342 15.7885 16.2027 15.8643C16.1713 15.9402 16.1252 16.0091 16.0672 16.0672C16.0091 16.1253 15.9402 16.1713 15.8643 16.2028C15.7884 16.2342 15.7071 16.2504 15.625 16.2504C15.5429 16.2504 15.4615 16.2342 15.3857 16.2028C15.3098 16.1713 15.2409 16.1253 15.1828 16.0672L9.99998 10.8836L4.81717 16.0672C4.69989 16.1845 4.54083 16.2504 4.37498 16.2504C4.20913 16.2504 4.05007 16.1845 3.93279 16.0672C3.81552 15.9499 3.74963 15.7909 3.74963 15.625C3.74963 15.4592 3.81552 15.3001 3.93279 15.1828L9.11639 10L3.93279 4.8172C3.81552 4.69992 3.74963 4.54086 3.74963 4.37501C3.74963 4.20916 3.81552 4.0501 3.93279 3.93282C4.05007 3.81555 4.20913 3.74966 4.37498 3.74966C4.54083 3.74966 4.69989 3.81555 4.81717 3.93282L9.99998 9.11642L15.1828 3.93282C15.3001 3.81555 15.4591 3.74966 15.625 3.74966C15.7908 3.74966 15.9499 3.81555 16.0672 3.93282C16.1844 4.0501 16.2503 4.20916 16.2503 4.37501C16.2503 4.54086 16.1844 4.69992 16.0672 4.8172L10.8836 10L16.0672 15.1828Z" />
    </symbol>
    <symbol id="municipality" viewBox="0 0 20 20" xmlns="http://www.w3.org/2000/svg">
        <path d="M16.0672 15.1828C16.1252 15.2409 16.1713 15.3098 16.2027 15.3857C16.2342 15.4616 16.2503 15.5429 16.2503 15.625C16.2503 15.7071 16.2342 15.7885 16.2027 15.8643C16.1713 15.9402 16.1252 16.0091 16.0672 16.0672C16.0091 16.1253 15.9402 16.1713 15.8643 16.2028C15.7884 16.2342 15.7071 16.2504 15.625 16.2504C15.5429 16.2504 15.4615 16.2342 15.3857 16.2028C15.3098 16.1713 15.2409 16.1253 15.1828 16.0672L9.99998 10.8836L4.81717 16.0672C4.69989 16.1845 4.54083 16.2504 4.37498 16.2504C4.20913 16.2504 4.05007 16.1845 3.93279 16.0672C3.81552 15.9499 3.74963 15.7909 3.74963 15.625C3.74963 15.4592 3.81552 15.3001 3.93279 15.1828L9.11639 10L3.93279 4.8172C3.81552 4.69992 3.74963 4.54086 3.74963 4.37501C3.74963 4.20916 3.81552 4.0501 3.93279 3.93282C4.05007 3.81555 4.20913 3.74966 4.37498 3.74966C4.54083 3.74966 4.69989 3.81555 4.81717 3.93282L9.99998 9.11642L15.1828 3.93282C15.3001 3.81555 15.4591 3.74966 15.625 3.74966C15.7908 3.74966 15.9499 3.81555 16.0672 3.93282C16.1844 4.0501 16.2503 4.20916 16.2503 4.37501C16.2503 4.54086 16.1844 4.69992 16.0672 4.8172L10.8836 10L16.0672 15.1828Z" />
    </symbol>
    <symbol id="neighbourhood" viewBox="0 0 20 20" xmlns="http://www.w3.org/2000/svg">
        <path d="M16.0672 15.1828C16.1252 15.2409 16.1713 15.3098 16.2027 15.3857C16.2342 15.4616 16.2503 15.5429 16.2503 15.625C16.2503 15.7071 16.2342 15.7885 16.2027 15.8643C16.1713 15.9402 16.1252 16.0091 16.0672 16.0672C16.0091 16.1253 15.9402 16.1713 15.8643 16.2028C15.7884 16.2342 15.7071 16.2504 15.625 16.2504C15.5429 16.2504 15.4615 16.2342 15.3857 16.2028C15.3098 16.1713 15.2409 16.1253 15.1828 16.0672L9.99998 10.8836L4.81717 16.0672C4.69989 16.1845 4.54083 16.2504 4.37498 16.2504C4.20913 16.2504 4.05007 16.1845 3.93279 16.0672C3.81552 15.9499 3.74963 15.7909 3.74963 15.625C3.74963 15.4592 3.81552 15.3001 3.93279 15.1828L9.11639 10L3.93279 4.8172C3.81552 4.69992 3.74963 4.54086 3.74963 4.37501C3.74963 4.20916 3.81552 4.0501 3.93279 3.93282C4.05007 3.81555 4.20913 3.74966 4.37498 3.74966C4.54083 3.74966 4.69989 3.81555 4.81717 3.93282L9.99998 9.11642L15.1828 3.93282C15.3001 3.81555 15.4591 3.74966 15.625 3.74966C15.7908 3.74966 15.9499 3.81555 16.0672 3.93282C16.1844 4.0501 16.2503 4.20916 16.2503 4.37501C16.2503 4.54086 16.1844 4.69992 16.0672 4.8172L10.8836 10L16.0672 15.1828Z" />
    </symbol>
    <symbol id="ocean" viewBox="0 0 20 20" xmlns="http://www.w3.org/2000/svg">
        <path d="M16.0672 15.1828C16.1252 15.2409 16.1713 15.3098 16.2027 15.3857C16.2342 15.4616 16.2503 15.5429 16.2503 15.625C16.2503 15.7071 16.2342 15.7885 16.2027 15.8643C16.1713 15.9402 16.1252 16.0091 16.0672 16.0672C16.0091 16.1253 15.9402 16.1713 15.8643 16.2028C15.7884 16.2342 15.7071 16.2504 15.625 16.2504C15.5429 16.2504 15.4615 16.2342 15.3857 16.2028C15.3098 16.1713 15.2409 16.1253 15.1828 16.0672L9.99998 10.8836L4.81717 16.0672C4.69989 16.1845 4.54083 16.2504 4.37498 16.2504C4.20913 16.2504 4.05007 16.1845 3.93279 16.0672C3.81552 15.9499 3.74963 15.7909 3.74963 15.625C3.74963 15.4592 3.81552 15.3001 3.93279 15.1828L9.11639 10L3.93279 4.8172C3.81552 4.69992 3.74963 4.54086 3.74963 4.37501C3.74963 4.20916 3.81552 4.0501 3.93279 3.93282C4.05007 3.81555 4.20913 3.74966 4.37498 3.74966C4.54083 3.74966 4.69989 3.81555 4.81717 3.93282L9.99998 9.11642L15.1828 3.93282C15.3001 3.81555 15.4591 3.74966 15.625 3.74966C15.7908 3.74966 15.9499 3.81555 16.0672 3.93282C16.1844 4.0501 16.2503 4.20916 16.2503 4.37501C16.2503 4.54086 16.1844 4.69992 16.0672 4.8172L10.8836 10L16.0672 15.1828Z" />
    </symbol>
    <symbol id="plot" viewBox="0 0 20 20" xmlns="http://www.w3.org/2000/svg">
        <path d="M16.0672 15.1828C16.1252 15.2409 16.1713 15.3098 16.2027 15.3857C16.2342 15.4616 16.2503 15.5429 16.2503 15.625C16.2503 15.7071 16.2342 15.7885 16.2027 15.8643C16.1713 15.9402 16.1252 16.0091 16.0672 16.0672C16.0091 16.1253 15.9402 16.1713 15.8643 16.2028C15.7884 16.2342 15.7071 16.2504 15.625 16.2504C15.5429 16.2504 15.4615 16.2342 15.3857 16.2028C15.3098 16.1713 15.2409 16.1253 15.1828 16.0672L9.99998 10.8836L4.81717 16.0672C4.69989 16.1845 4.54083 16.2504 4.37498 16.2504C4.20913 16.2504 4.05007 16.1845 3.93279 16.0672C3.81552 15.9499 3.74963 15.7909 3.74963 15.625C3.74963 15.4592 3.81552 15.3001 3.93279 15.1828L9.11639 10L3.93279 4.8172C3.81552 4.69992 3.74963 4.54086 3.74963 4.37501C3.74963 4.20916 3.81552 4.0501 3.93279 3.93282C4.05007 3.81555 4.20913 3.74966 4.37498 3.74966C4.54083 3.74966 4.69989 3.81555 4.81717 3.93282L9.99998 9.11642L15.1828 3.93282C15.3001 3.81555 15.4591 3.74966 15.625 3.74966C15.7908 3.74966 15.9499 3.81555 16.0672 3.93282C16.1844 4.0501 16.2503 4.20916 16.2503 4.37501C16.2503 4.54086 16.1844 4.69992 16.0672 4.8172L10.8836 10L16.0672 15.1828Z" />
    </symbol>
    <symbol id="polder" viewBox="0 0 20 20" xmlns="http://www.w3.org/2000/svg">
        <path d="M16.0672 15.1828C16.1252 15.2409 16.1713 15.3098 16.2027 15.3857C16.2342 15.4616 16.2503 15.5429 16.2503 15.625C16.2503 15.7071 16.2342 15.7885 16.2027 15.8643C16.1713 15.9402 16.1252 16.0091 16.0672 16.0672C16.0091 16.1253 15.9402 16.1713 15.8643 16.2028C15.7884 16.2342 15.7071 16.2504 15.625 16.2504C15.5429 16.2504 15.4615 16.2342 15.3857 16.2028C15.3098 16.1713 15.2409 16.1253 15.1828 16.0672L9.99998 10.8836L4.81717 16.0672C4.69989 16.1845 4.54083 16.2504 4.37498 16.2504C4.20913 16.2504 4.05007 16.1845 3.93279 16.0672C3.81552 15.9499 3.74963 15.7909 3.74963 15.625C3.74963 15.4592 3.81552 15.3001 3.93279 15.1828L9.11639 10L3.93279 4.8172C3.81552 4.69992 3.74963 4.54086 3.74963 4.37501C3.74963 4.20916 3.81552 4.0501 3.93279 3.93282C4.05007 3.81555 4.20913 3.74966 4.37498 3.74966C4.54083 3.74966 4.69989 3.81555 4.81717 3.93282L9.99998 9.11642L15.1828 3.93282C15.3001 3.81555 15.4591 3.74966 15.625 3.74966C15.7908 3.74966 15.9499 3.81555 16.0672 3.93282C16.1844 4.0501 16.2503 4.20916 16.2503 4.37501C16.2503 4.54086 16.1844 4.69992 16.0672 4.8172L10.8836 10L16.0672 15.1828Z" />
    </symbol>
    <symbol id="province" viewBox="0 0 20 20" xmlns="http://www.w3.org/2000/svg">
        <path d="M16.0672 15.1828C16.1252 15.2409 16.1713 15.3098 16.2027 15.3857C16.2342 15.4616 16.2503 15.5429 16.2503 15.625C16.2503 15.7071 16.2342 15.7885 16.2027 15.8643C16.1713 15.9402 16.1252 16.0091 16.0672 16.0672C16.0091 16.1253 15.9402 16.1713 15.8643 16.2028C15.7884 16.2342 15.7071 16.2504 15.625 16.2504C15.5429 16.2504 15.4615 16.2342 15.3857 16.2028C15.3098 16.1713 15.2409 16.1253 15.1828 16.0672L9.99998 10.8836L4.81717 16.0672C4.69989 16.1845 4.54083 16.2504 4.37498 16.2504C4.20913 16.2504 4.05007 16.1845 3.93279 16.0672C3.81552 15.9499 3.74963 15.7909 3.74963 15.625C3.74963 15.4592 3.81552 15.3001 3.93279 15.1828L9.11639 10L3.93279 4.8172C3.81552 4.69992 3.74963 4.54086 3.74963 4.37501C3.74963 4.20916 3.81552 4.0501 3.93279 3.93282C4.05007 3.81555 4.20913 3.74966 4.37498 3.74966C4.54083 3.74966 4.69989 3.81555 4.81717 3.93282L9.99998 9.11642L15.1828 3.93282C15.3001 3.81555 15.4591 3.74966 15.625 3.74966C15.7908 3.74966 15.9499 3.81555 16.0672 3.93282C16.1844 4.0501 16.2503 4.20916 16.2503 4.37501C16.2503 4.54086 16.1844 4.69992 16.0672 4.8172L10.8836 10L16.0672 15.1828Z" />
    </symbol>
    <symbol id="quarter" viewBox="0 0 20 20" xmlns="http://www.w3.org/2000/svg">
        <path d="M16.0672 15.1828C16.1252 15.2409 16.1713 15.3098 16.2027 15.3857C16.2342 15.4616 16.2503 15.5429 16.2503 15.625C16.2503 15.7071 16.2342 15.7885 16.2027 15.8643C16.1713 15.9402 16.1252 16.0091 16.0672 16.0672C16.0091 16.1253 15.9402 16.1713 15.8643 16.2028C15.7884 16.2342 15.7071 16.2504 15.625 16.2504C15.5429 16.2504 15.4615 16.2342 15.3857 16.2028C15.3098 16.1713 15.2409 16.1253 15.1828 16.0672L9.99998 10.8836L4.81717 16.0672C4.69989 16.1845 4.54083 16.2504 4.37498 16.2504C4.20913 16.2504 4.05007 16.1845 3.93279 16.0672C3.81552 15.9499 3.74963 15.7909 3.74963 15.625C3.74963 15.4592 3.81552 15.3001 3.93279 15.1828L9.11639 10L3.93279 4.8172C3.81552 4.69992 3.74963 4.54086 3.74963 4.37501C3.74963 4.20916 3.81552 4.0501 3.93279 3.93282C4.05007 3.81555 4.20913 3.74966 4.37498 3.74966C4.54083 3.74966 4.69989 3.81555 4.81717 3.93282L9.99998 9.11642L15.1828 3.93282C15.3001 3.81555 15.4591 3.74966 15.625 3.74966C15.7908 3.74966 15.9499 3.81555 16.0672 3.93282C16.1844 4.0501 16.2503 4.20916 16.2503 4.37501C16.2503 4.54086 16.1844 4.69992 16.0672 4.8172L10.8836 10L16.0672 15.1828Z" />
    </symbol>
    <symbol id="region" viewBox="0 0 20 20" xmlns="http://www.w3.org/2000/svg">
        <path d="M16.0672 15.1828C16.1252 15.2409 16.1713 15.3098 16.2027 15.3857C16.2342 15.4616 16.2503 15.5429 16.2503 15.625C16.2503 15.7071 16.2342 15.7885 16.2027 15.8643C16.1713 15.9402 16.1252 16.0091 16.0672 16.0672C16.0091 16.1253 15.9402 16.1713 15.8643 16.2028C15.7884 16.2342 15.7071 16.2504 15.625 16.2504C15.5429 16.2504 15.4615 16.2342 15.3857 16.2028C15.3098 16.1713 15.2409 16.1253 15.1828 16.0672L9.99998 10.8836L4.81717 16.0672C4.69989 16.1845 4.54083 16.2504 4.37498 16.2504C4.20913 16.2504 4.05007 16.1845 3.93279 16.0672C3.81552 15.9499 3.74963 15.7909 3.74963 15.625C3.74963 15.4592 3.81552 15.3001 3.93279 15.1828L9.11639 10L3.93279 4.8172C3.81552 4.69992 3.74963 4.54086 3.74963 4.37501C3.74963 4.20916 3.81552 4.0501 3.93279 3.93282C4.05007 3.81555 4.20913 3.74966 4.37498 3.74966C4.54083 3.74966 4.69989 3.81555 4.81717 3.93282L9.99998 9.11642L15.1828 3.93282C15.3001 3.81555 15.4591 3.74966 15.625 3.74966C15.7908 3.74966 15.9499 3.81555 16.0672 3.93282C16.1844 4.0501 16.2503 4.20916 16.2503 4.37501C16.2503 4.54086 16.1844 4.69992 16.0672 4.8172L10.8836 10L16.0672 15.1828Z" />
    </symbol>
    <symbol id="sea" viewBox="0 0 20 20" xmlns="http://www.w3.org/2000/svg">
        <path d="M16.0672 15.1828C16.1252 15.2409 16.1713 15.3098 16.2027 15.3857C16.2342 15.4616 16.2503 15.5429 16.2503 15.625C16.2503 15.7071 16.2342 15.7885 16.2027 15.8643C16.1713 15.9402 16.1252 16.0091 16.0672 16.0672C16.0091 16.1253 15.9402 16.1713 15.8643 16.2028C15.7884 16.2342 15.7071 16.2504 15.625 16.2504C15.5429 16.2504 15.4615 16.2342 15.3857 16.2028C15.3098 16.1713 15.2409 16.1253 15.1828 16.0672L9.99998 10.8836L4.81717 16.0672C4.69989 16.1845 4.54083 16.2504 4.37498 16.2504C4.20913 16.2504 4.05007 16.1845 3.93279 16.0672C3.81552 15.9499 3.74963 15.7909 3.74963 15.625C3.74963 15.4592 3.81552 15.3001 3.93279 15.1828L9.11639 10L3.93279 4.8172C3.81552 4.69992 3.74963 4.54086 3.74963 4.37501C3.74963 4.20916 3.81552 4.0501 3.93279 3.93282C4.05007 3.81555 4.20913 3.74966 4.37498 3.74966C4.54083 3.74966 4.69989 3.81555 4.81717 3.93282L9.99998 9.11642L15.1828 3.93282C15.3001 3.81555 15.4591 3.74966 15.625 3.74966C15.7908 3.74966 15.9499 3.81555 16.0672 3.93282C16.1844 4.0501 16.2503 4.20916 16.2503 4.37501C16.2503 4.54086 16.1844 4.69992 16.0672 4.8172L10.8836 10L16.0672 15.1828Z" />
    </symbol>
    <symbol id="square" viewBox="0 0 20 20" xmlns="http://www.w3.org/2000/svg">
        <path d="M16.0672 15.1828C16.1252 15.2409 16.1713 15.3098 16.2027 15.3857C16.2342 15.4616 16.2503 15.5429 16.2503 15.625C16.2503 15.7071 16.2342 15.7885 16.2027 15.8643C16.1713 15.9402 16.1252 16.0091 16.0672 16.0672C16.0091 16.1253 15.9402 16.1713 15.8643 16.2028C15.7884 16.2342 15.7071 16.2504 15.625 16.2504C15.5429 16.2504 15.4615 16.2342 15.3857 16.2028C15.3098 16.1713 15.2409 16.1253 15.1828 16.0672L9.99998 10.8836L4.81717 16.0672C4.69989 16.1845 4.54083 16.2504 4.37498 16.2504C4.20913 16.2504 4.05007 16.1845 3.93279 16.0672C3.81552 15.9499 3.74963 15.7909 3.74963 15.625C3.74963 15.4592 3.81552 15.3001 3.93279 15.1828L9.11639 10L3.93279 4.8172C3.81552 4.69992 3.74963 4.54086 3.74963 4.37501C3.74963 4.20916 3.81552 4.0501 3.93279 3.93282C4.05007 3.81555 4.20913 3.74966 4.37498 3.74966C4.54083 3.74966 4.69989 3.81555 4.81717 3.93282L9.99998 9.11642L15.1828 3.93282C15.3001 3.81555 15.4591 3.74966 15.625 3.74966C15.7908 3.74966 15.9499 3.81555 16.0672 3.93282C16.1844 4.0501 16.2503 4.20916 16.2503 4.37501C16.2503 4.54086 16.1844 4.69992 16.0672 4.8172L10.8836 10L16.0672 15.1828Z" />
    </symbol>
    <symbol id="suburb" viewBox="0 0 20 20" xmlns="http://www.w3.org/2000/svg">
        <path d="M16.0672 15.1828C16.1252 15.2409 16.1713 15.3098 16.2027 15.3857C16.2342 15.4616 16.2503 15.5429 16.2503 15.625C16.2503 15.7071 16.2342 15.7885 16.2027 15.8643C16.1713 15.9402 16.1252 16.0091 16.0672 16.0672C16.0091 16.1253 15.9402 16.1713 15.8643 16.2028C15.7884 16.2342 15.7071 16.2504 15.625 16.2504C15.5429 16.2504 15.4615 16.2342 15.3857 16.2028C15.3098 16.1713 15.2409 16.1253 15.1828 16.0672L9.99998 10.8836L4.81717 16.0672C4.69989 16.1845 4.54083 16.2504 4.37498 16.2504C4.20913 16.2504 4.05007 16.1845 3.93279 16.0672C3.81552 15.9499 3.74963 15.7909 3.74963 15.625C3.74963 15.4592 3.81552 15.3001 3.93279 15.1828L9.11639 10L3.93279 4.8172C3.81552 4.69992 3.74963 4.54086 3.74963 4.37501C3.74963 4.20916 3.81552 4.0501 3.93279 3.93282C4.05007 3.81555 4.20913 3.74966 4.37498 3.74966C4.54083 3.74966 4.69989 3.81555 4.81717 3.93282L9.99998 9.11642L15.1828 3.93282C15.3001 3.81555 15.4591 3.74966 15.625 3.74966C15.7908 3.74966 15.9499 3.81555 16.0672 3.93282C16.1844 4.0501 16.2503 4.20916 16.2503 4.37501C16.2503 4.54086 16.1844 4.69992 16.0672 4.8172L10.8836 10L16.0672 15.1828Z" />
    </symbol>
</svg>
