<svg>
	<symbol id="linkedin" viewBox="0 0 16 16" xmlns="http://www.w3.org/2000/svg">
		<path d="M12.225 12.225h-1.778V9.44c0-.664-.012-1.519-.925-1.519-.926 0-1.068.724-1.068 1.47v2.834H6.676V6.498h1.707v.783h.024c.348-.594.996-.95 1.684-.925 1.802 0 2.135 1.185 2.135 2.728l-.001 3.14zM4.67 5.715a1.037 1.037 0 01-1.032-1.031c0-.566.466-1.032 1.032-1.032.566 0 1.031.466 1.032 1.032 0 .566-.466 1.032-1.032 1.032zm.889 6.51h-1.78V6.498h1.78v5.727zM13.11 2H2.885A.88.88 0 002 2.866v10.268a.88.88 0 00.885.866h10.226a.882.882 0 00.889-.866V2.865a.88.88 0 00-.889-.864z"/>
	</symbol>
	<symbol id="facebook" viewBox="0 0 512 512" xmlns="http://www.w3.org/2000/svg">
		<path style="fill:#385C8E;" d="M134.941,272.691h56.123v231.051c0,4.562,3.696,8.258,8.258,8.258h95.159
		c4.562,0,8.258-3.696,8.258-8.258V273.78h64.519c4.195,0,7.725-3.148,8.204-7.315l9.799-85.061c0.269-2.34-0.472-4.684-2.038-6.44
		c-1.567-1.757-3.81-2.763-6.164-2.763h-74.316V118.88c0-16.073,8.654-24.224,25.726-24.224c2.433,0,48.59,0,48.59,0
		c4.562,0,8.258-3.698,8.258-8.258V8.319c0-4.562-3.696-8.258-8.258-8.258h-66.965C309.622,0.038,308.573,0,307.027,0
		c-11.619,0-52.006,2.281-83.909,31.63c-35.348,32.524-30.434,71.465-29.26,78.217v62.352h-58.918c-4.562,0-8.258,3.696-8.258,8.258
		v83.975C126.683,268.993,130.379,272.691,134.941,272.691z"/>
	</symbol>
	<symbol id="google" viewBox="0 0 16 16" xmlns="http://www.w3.org/2000/svg">
		<path fill="#4285F4" d="M14.9 8.161c0-.476-.039-.954-.121-1.422h-6.64v2.695h3.802a3.24 3.24 0 01-1.407 2.127v1.75h2.269c1.332-1.22 2.097-3.02 2.097-5.15z"/>
		<path fill="#34A853" d="M8.14 15c1.898 0 3.499-.62 4.665-1.69l-2.268-1.749c-.631.427-1.446.669-2.395.669-1.836 0-3.393-1.232-3.952-2.888H1.85v1.803A7.044 7.044 0 008.14 15z"/>
		<path fill="#FBBC04" d="M4.187 9.342a4.17 4.17 0 010-2.68V4.859H1.849a6.97 6.97 0 000 6.286l2.338-1.803z"/>
		<path fill="#EA4335" d="M8.14 3.77a3.837 3.837 0 012.7 1.05l2.01-1.999a6.786 6.786 0 00-4.71-1.82 7.042 7.042 0 00-6.29 3.858L4.186 6.66c.556-1.658 2.116-2.89 3.952-2.89z"/>
	</symbol>
	<symbol id="microsoft" viewBox="0 0 16 16" xmlns="http://www.w3.org/2000/svg">
		<path fill="#F35325" d="M1 1h6.5v6.5H1V1z"/>
		<path fill="#81BC06" d="M8.5 1H15v6.5H8.5V1z"/>
		<path fill="#05A6F0" d="M1 8.5h6.5V15H1V8.5z"/>
		<path fill="#FFBA08" d="M8.5 8.5H15V15H8.5V8.5z"/>
	</symbol>
</svg>
